<svg width="55" height="55" viewBox="0 0 55 55" fill="none" xmlns="http://www.w3.org/2000/svg">
<path d="M27.5 0.859375C12.7867 0.859375 0.859375 12.7867 0.859375 27.5C0.859375 42.2133 12.7867 54.1406 27.5 54.1406C42.2133 54.1406 54.1406 42.2133 54.1406 27.5C54.1406 12.7867 42.2133 0.859375 27.5 0.859375ZM27.5 6.01562C39.3736 6.01562 48.9844 15.6246 48.9844 27.5C48.9844 39.3736 39.3754 48.9844 27.5 48.9844C15.6264 48.9844 6.01562 39.3754 6.01562 27.5C6.01562 15.6264 15.6246 6.01562 27.5 6.01562ZM42.561 20.0091L40.1401 17.5687C39.6388 17.0633 38.8226 17.06 38.3172 17.5614L23.1329 32.6237L16.7099 26.1486C16.2086 25.6432 15.3924 25.6399 14.887 26.1412L12.4464 28.5621C11.941 29.0634 11.9377 29.8796 12.4391 30.3851L22.191 40.216C22.6923 40.7214 23.5085 40.7247 24.0139 40.2233L42.5538 21.8322C43.0591 21.3308 43.0623 20.5146 42.561 20.0091Z" fill="#EDB5B6"/>
</svg>
