<svg width="643" height="192" viewBox="0 0 643 192" fill="none" xmlns="http://www.w3.org/2000/svg">
<g clip-path="url(#clip0)">
<path d="M543.113 87.8273C540.897 88.5723 540.339 90.3434 541.767 92.0301C542.079 92.3815 542.588 93.1265 542.9 93.6888C543.392 94.5181 543.606 94.7289 544.148 94.9398C544.509 95.0663 544.886 95.3193 545.001 95.502C545.248 95.9237 545.1 97.5683 544.755 98.2992L544.492 98.8333L543.277 98.749C542.621 98.6928 541.652 98.6225 541.16 98.5663L540.24 98.4679L539.239 99.2972C537.416 100.787 534.806 104.02 532.639 107.464L531.834 108.757L532.195 109.361C533.394 111.4 536.054 114.127 538.795 116.108C539.567 116.671 539.616 116.685 540.7 116.657L541.816 116.629L541.931 117.191C541.98 117.486 542.358 118.751 542.752 119.988C543.622 122.673 545.198 128.436 545.543 130.207C545.691 130.896 545.757 131.626 545.707 131.823C544.821 135.141 541.554 139.273 537.4 142.309C533.328 145.289 527.91 147.932 522.164 149.745C521.491 149.956 520.719 150.195 520.456 150.279C519.865 150.462 518.88 151.179 518.88 151.432C518.88 151.769 519.57 152.359 520.358 152.697C522.738 153.723 529.716 154.355 538.746 154.369C546.233 154.384 550.255 154.018 553.046 153.104C554.179 152.739 555.164 152.022 555.164 151.558C555.164 151.446 554.934 150.898 554.655 150.335C553.473 147.932 552.11 142.9 551.618 138.964C551.257 136.054 551.355 133.904 552.028 131.12C553.407 125.301 554.048 121.337 554.081 118.231C554.081 116.966 554.113 115.94 554.146 115.94C554.179 115.94 554.409 116.038 554.688 116.165C554.951 116.277 555.312 116.347 555.46 116.305C555.969 116.165 558.612 112.159 559.581 110.05C559.991 109.193 559.958 109.122 558.481 107.295C556.001 104.259 553.046 101.195 552.242 100.857C551.995 100.745 551.142 100.52 550.321 100.337C549.516 100.169 548.761 99.9578 548.646 99.8875C548.351 99.6908 548.219 99.002 548.351 98.257L548.449 97.5964L549.106 97.6386C549.73 97.6948 549.763 97.6807 550.058 97.0904C550.83 95.6004 550.928 92.7751 550.255 91.1305C549.861 90.1325 548.975 89.3735 547.809 89.008C547.382 88.8675 546.824 88.5863 546.545 88.3755C545.954 87.8976 545.001 87.5462 544.377 87.5462C544.131 87.5602 543.557 87.6867 543.113 87.8273ZM539.961 104.849C540.289 105.552 541.045 107.042 541.636 108.153C542.998 110.725 543.097 111.386 542.391 113.129C541.948 114.197 541.866 114.323 541.357 114.478C540.174 114.843 540.01 114.773 538.861 113.438C536.513 110.711 535.38 109.066 535.528 108.574C535.577 108.406 536.283 107.464 537.088 106.494C537.892 105.524 538.713 104.47 538.927 104.147C539.14 103.837 539.337 103.57 539.337 103.57C539.354 103.57 539.633 104.147 539.961 104.849ZM551.93 104.554C553.276 105.088 557.463 109.137 557.463 109.882C557.463 110.486 555.328 114.211 554.819 114.464C554.557 114.604 550.239 110.641 549.96 109.994C549.845 109.741 549.763 109.08 549.763 108.504C549.746 107.576 549.812 107.351 550.321 106.508C550.731 105.819 550.895 105.369 550.895 104.92C550.895 104.554 550.978 104.273 551.06 104.273C551.158 104.273 551.536 104.4 551.93 104.554Z" fill="black"/>
</g>
<rect x="93" y="80" width="175" height="97" rx="20" fill="#EDB5B6"/>
<path d="M231.732 144.109H227.114V155.593H225.708V144.109H221.267V142.914H231.732V144.109ZM234.192 155.593V142.914H238.845C240.454 142.914 241.689 143.203 242.548 143.781C243.407 144.351 243.837 145.191 243.837 146.3C243.837 146.933 243.646 147.5 243.263 148C242.88 148.492 242.321 148.851 241.587 149.078C242.415 149.234 243.079 149.59 243.579 150.144C244.087 150.699 244.341 151.343 244.341 152.078C244.341 153.195 243.927 154.062 243.099 154.679C242.278 155.289 241.114 155.593 239.607 155.593H234.192ZM235.587 149.757V154.422H239.653C240.708 154.422 241.521 154.218 242.091 153.812C242.661 153.406 242.946 152.82 242.946 152.054C242.946 151.351 242.661 150.793 242.091 150.379C241.521 149.965 240.708 149.757 239.653 149.757H235.587ZM235.587 148.586H239.138C241.341 148.554 242.442 147.804 242.442 146.336C242.442 145.562 242.138 145 241.528 144.648C240.927 144.289 240.032 144.109 238.845 144.109H235.587V148.586ZM246.696 149.066C246.696 147.847 246.931 146.75 247.4 145.773C247.876 144.797 248.544 144.039 249.403 143.5C250.271 142.953 251.251 142.679 252.345 142.679C254.032 142.679 255.4 143.273 256.446 144.461C257.493 145.64 258.017 147.207 258.017 149.16V149.453C258.017 150.679 257.778 151.785 257.302 152.769C256.833 153.746 256.169 154.5 255.31 155.031C254.45 155.562 253.47 155.828 252.368 155.828C250.689 155.828 249.321 155.238 248.267 154.058C247.22 152.871 246.696 151.3 246.696 149.347V149.066ZM248.103 149.453C248.103 150.968 248.493 152.215 249.275 153.191C250.064 154.16 251.095 154.644 252.368 154.644C253.634 154.644 254.657 154.16 255.439 153.191C256.228 152.215 256.622 150.929 256.622 149.336V149.066C256.622 148.097 256.442 147.211 256.083 146.406C255.724 145.601 255.22 144.98 254.571 144.543C253.923 144.097 253.181 143.875 252.345 143.875C251.095 143.875 250.075 144.367 249.286 145.351C248.497 146.328 248.103 147.609 248.103 149.195V149.453ZM269.255 142.914H270.661V155.593H269.255V145.175L262.411 155.593H261.017V142.914H262.411V153.343L269.255 142.914ZM269.185 138.343C269.185 139.242 268.876 139.968 268.259 140.523C267.65 141.078 266.829 141.355 265.798 141.355C264.782 141.355 263.962 141.082 263.337 140.535C262.72 139.98 262.411 139.25 262.411 138.343H263.607C263.607 138.992 263.798 139.488 264.181 139.832C264.571 140.175 265.11 140.347 265.798 140.347C266.485 140.347 267.021 140.168 267.403 139.808C267.794 139.449 267.989 138.961 267.989 138.343H269.185ZM284.946 154.644C285.923 154.644 286.739 154.371 287.396 153.824C288.06 153.269 288.419 152.554 288.474 151.679H289.821C289.782 152.453 289.54 153.16 289.095 153.8C288.65 154.433 288.056 154.929 287.314 155.289C286.579 155.648 285.79 155.828 284.946 155.828C283.282 155.828 281.962 155.25 280.985 154.093C280.017 152.937 279.532 151.382 279.532 149.429V149.007C279.532 147.757 279.751 146.652 280.189 145.691C280.626 144.73 281.251 143.988 282.064 143.465C282.884 142.941 283.841 142.679 284.935 142.679C286.325 142.679 287.47 143.093 288.368 143.922C289.275 144.75 289.759 145.84 289.821 147.191H288.474C288.411 146.199 288.052 145.398 287.396 144.789C286.747 144.179 285.927 143.875 284.935 143.875C283.669 143.875 282.685 144.332 281.982 145.246C281.286 146.16 280.939 147.441 280.939 149.09V149.5C280.939 151.117 281.286 152.379 281.982 153.285C282.685 154.191 283.673 154.644 284.946 154.644ZM301.739 144.109H297.122V155.593H295.716V144.109H291.275V142.914H301.739V144.109ZM312.38 142.914H313.786V155.593H312.38V145.175L305.536 155.593H304.142V142.914H305.536V153.343L312.38 142.914ZM326.653 144.109H322.036V155.593H320.63V144.109H316.189V142.914H326.653V144.109ZM337.294 142.914H338.7V155.593H337.294V145.175L330.45 155.593H329.056V142.914H330.45V153.343L337.294 142.914ZM347.15 154.644C348.126 154.644 348.942 154.371 349.599 153.824C350.263 153.269 350.622 152.554 350.677 151.679H352.025C351.985 152.453 351.743 153.16 351.298 153.8C350.853 154.433 350.259 154.929 349.517 155.289C348.782 155.648 347.993 155.828 347.15 155.828C345.485 155.828 344.165 155.25 343.189 154.093C342.22 152.937 341.735 151.382 341.735 149.429V149.007C341.735 147.757 341.954 146.652 342.392 145.691C342.829 144.73 343.454 143.988 344.267 143.465C345.087 142.941 346.044 142.679 347.138 142.679C348.528 142.679 349.673 143.093 350.571 143.922C351.478 144.75 351.962 145.84 352.025 147.191H350.677C350.614 146.199 350.255 145.398 349.599 144.789C348.95 144.179 348.13 143.875 347.138 143.875C345.872 143.875 344.888 144.332 344.185 145.246C343.489 146.16 343.142 147.441 343.142 149.09V149.5C343.142 151.117 343.489 152.379 344.185 153.285C344.888 154.191 345.876 154.644 347.15 154.644ZM363.942 144.109H359.325V155.593H357.919V144.109H353.478V142.914H363.942V144.109ZM375.532 149.781H373.587V155.593H372.169V142.914H373.587V148.539H375.509L380.161 142.914H381.931L376.728 149.066L382.505 155.593H380.653L375.532 149.781ZM399.474 144.109H394.857V155.593H393.45V144.109H389.009V142.914H399.474V144.109ZM405.755 155.828C404.677 155.828 403.7 155.562 402.825 155.031C401.958 154.5 401.282 153.761 400.798 152.816C400.314 151.863 400.071 150.797 400.071 149.617V149.113C400.071 147.894 400.306 146.797 400.775 145.82C401.251 144.843 401.911 144.078 402.755 143.523C403.599 142.961 404.513 142.679 405.497 142.679C407.036 142.679 408.255 143.207 409.153 144.261C410.06 145.308 410.513 146.742 410.513 148.562V149.347H401.466V149.617C401.466 151.054 401.876 152.254 402.696 153.215C403.525 154.168 404.564 154.644 405.814 154.644C406.564 154.644 407.224 154.507 407.794 154.234C408.372 153.961 408.896 153.523 409.364 152.922L410.243 153.59C409.212 155.082 407.716 155.828 405.755 155.828ZM405.497 143.875C404.442 143.875 403.552 144.261 402.825 145.035C402.107 145.808 401.669 146.847 401.513 148.152H409.118V148C409.079 146.781 408.732 145.789 408.075 145.023C407.419 144.257 406.56 143.875 405.497 143.875ZM418.353 143.757C419.962 143.757 421.267 144.285 422.267 145.34C423.267 146.386 423.767 147.777 423.767 149.511V149.816C423.767 150.965 423.536 152 423.075 152.922C422.622 153.836 421.966 154.55 421.107 155.066C420.255 155.574 419.275 155.828 418.165 155.828C416.493 155.828 415.138 155.273 414.099 154.164C413.067 153.047 412.552 151.558 412.552 149.699V148.574C412.552 145.949 413.052 143.851 414.052 142.281C415.052 140.711 416.474 139.773 418.317 139.468C419.482 139.281 420.298 139.027 420.767 138.707C421.243 138.386 421.482 137.949 421.482 137.394H422.689C422.689 138.05 422.552 138.593 422.278 139.023C422.005 139.453 421.595 139.8 421.048 140.066C420.501 140.324 419.665 140.543 418.54 140.722C417.251 140.925 416.212 141.476 415.423 142.375C414.642 143.265 414.134 144.461 413.9 145.961C414.4 145.304 415.025 144.773 415.775 144.367C416.532 143.961 417.392 143.757 418.353 143.757ZM413.958 149.523V149.816C413.958 151.246 414.345 152.41 415.118 153.308C415.892 154.199 416.907 154.644 418.165 154.644C419.431 154.644 420.446 154.195 421.212 153.297C421.978 152.39 422.36 151.203 422.36 149.734V149.429C422.36 148.109 421.97 147.031 421.189 146.195C420.415 145.359 419.4 144.941 418.142 144.941C416.884 144.941 415.872 145.367 415.107 146.218C414.341 147.062 413.958 148.164 413.958 149.523ZM431.372 155.828C430.294 155.828 429.317 155.562 428.442 155.031C427.575 154.5 426.9 153.761 426.415 152.816C425.931 151.863 425.689 150.797 425.689 149.617V149.113C425.689 147.894 425.923 146.797 426.392 145.82C426.868 144.843 427.528 144.078 428.372 143.523C429.216 142.961 430.13 142.679 431.114 142.679C432.653 142.679 433.872 143.207 434.771 144.261C435.677 145.308 436.13 146.742 436.13 148.562V149.347H427.083V149.617C427.083 151.054 427.493 152.254 428.314 153.215C429.142 154.168 430.181 154.644 431.431 154.644C432.181 154.644 432.841 154.507 433.411 154.234C433.989 153.961 434.513 153.523 434.982 152.922L435.86 153.59C434.829 155.082 433.333 155.828 431.372 155.828ZM431.114 143.875C430.06 143.875 429.169 144.261 428.442 145.035C427.724 145.808 427.286 146.847 427.13 148.152H434.735V148C434.696 146.781 434.349 145.789 433.692 145.023C433.036 144.257 432.177 143.875 431.114 143.875ZM444.403 154.41L445.025 153.601C446.009 152.265 446.575 150.312 446.724 147.742L446.946 142.914H454.435V154.41H455.747V159.32H454.353V155.593H444.825V159.32H443.478L443.489 154.41H444.403ZM446.021 154.41H453.028V144.226H448.282L448.13 147.519C447.989 150.543 447.286 152.84 446.021 154.41ZM457.681 149.066C457.681 147.847 457.915 146.75 458.384 145.773C458.86 144.797 459.528 144.039 460.388 143.5C461.255 142.953 462.235 142.679 463.329 142.679C465.017 142.679 466.384 143.273 467.431 144.461C468.478 145.64 469.001 147.207 469.001 149.16V149.453C469.001 150.679 468.763 151.785 468.286 152.769C467.817 153.746 467.153 154.5 466.294 155.031C465.435 155.562 464.454 155.828 463.353 155.828C461.673 155.828 460.306 155.238 459.251 154.058C458.204 152.871 457.681 151.3 457.681 149.347V149.066ZM459.087 149.453C459.087 150.968 459.478 152.215 460.259 153.191C461.048 154.16 462.079 154.644 463.353 154.644C464.618 154.644 465.642 154.16 466.423 153.191C467.212 152.215 467.607 150.929 467.607 149.336V149.066C467.607 148.097 467.427 147.211 467.067 146.406C466.708 145.601 466.204 144.98 465.556 144.543C464.907 144.097 464.165 143.875 463.329 143.875C462.079 143.875 461.06 144.367 460.271 145.351C459.482 146.328 459.087 147.609 459.087 149.195V149.453ZM478.927 153.695L483.966 142.914H485.7V155.593H484.294V145.187L479.419 155.593H478.423L473.454 144.953V155.593H472.06V142.914H473.9L478.927 153.695ZM488.689 149.066C488.689 147.847 488.923 146.75 489.392 145.773C489.868 144.797 490.536 144.039 491.396 143.5C492.263 142.953 493.243 142.679 494.337 142.679C496.025 142.679 497.392 143.273 498.439 144.461C499.485 145.64 500.009 147.207 500.009 149.16V149.453C500.009 150.679 499.771 151.785 499.294 152.769C498.825 153.746 498.161 154.5 497.302 155.031C496.442 155.562 495.462 155.828 494.36 155.828C492.681 155.828 491.314 155.238 490.259 154.058C489.212 152.871 488.689 151.3 488.689 149.347V149.066ZM490.095 149.453C490.095 150.968 490.485 152.215 491.267 153.191C492.056 154.16 493.087 154.644 494.36 154.644C495.626 154.644 496.65 154.16 497.431 153.191C498.22 152.215 498.614 150.929 498.614 149.336V149.066C498.614 148.097 498.435 147.211 498.075 146.406C497.716 145.601 497.212 144.98 496.564 144.543C495.915 144.097 495.173 143.875 494.337 143.875C493.087 143.875 492.067 144.367 491.278 145.351C490.489 146.328 490.095 147.609 490.095 149.195V149.453ZM511.247 142.914H512.653V155.593H511.247V145.175L504.403 155.593H503.009V142.914H504.403V153.343L511.247 142.914ZM511.177 138.343C511.177 139.242 510.868 139.968 510.251 140.523C509.642 141.078 508.821 141.355 507.79 141.355C506.775 141.355 505.954 141.082 505.329 140.535C504.712 139.98 504.403 139.25 504.403 138.343H505.599C505.599 138.992 505.79 139.488 506.173 139.832C506.564 140.175 507.103 140.347 507.79 140.347C508.478 140.347 509.013 140.168 509.396 139.808C509.786 139.449 509.982 138.961 509.982 138.343H511.177Z" fill="black"/>
<line y1="-0.5" x2="342.97" y2="-0.5" transform="matrix(0.999894 -0.0145363 0.0144463 0.999896 175.454 132)" stroke="black"/>
<path d="M268.758 119.188C268.758 119.562 268.612 119.896 268.321 120.188C268.071 120.479 267.758 120.708 267.383 120.875C267.008 121.083 266.612 121.271 266.196 121.438C265.821 121.604 265.487 121.75 265.196 121.875C264.737 121.625 264.258 121.458 263.758 121.375C263.3 121.292 262.883 121.083 262.508 120.75H262.071C261.404 120.75 260.883 120.833 260.508 121C259.925 120.792 259.446 120.479 259.071 120.062C258.696 119.688 258.342 119.271 258.008 118.812C257.675 118.396 257.342 117.979 257.008 117.562C256.675 117.146 256.258 116.792 255.758 116.5C255.008 114.417 254.342 112.312 253.758 110.188C253.175 108.062 252.737 105.896 252.446 103.688C252.529 103.479 252.592 103.25 252.633 103C252.675 102.75 252.696 102.521 252.696 102.312C252.696 102.146 252.654 101.979 252.571 101.812C252.529 101.604 252.404 101.479 252.196 101.438C252.404 101.104 252.529 100.729 252.571 100.312C252.654 99.8542 252.696 99.4375 252.696 99.0625C252.696 98.2292 252.612 97.5417 252.446 97C252.696 96.7917 252.8 96.4583 252.758 96C252.717 95.5 252.821 95.1458 253.071 94.9375C252.862 94.2292 252.758 93.5417 252.758 92.875C252.758 91.9583 252.862 91.0625 253.071 90.1875C253.321 89.3125 253.446 88.4167 253.446 87.5C253.446 87.2917 253.425 87.0833 253.383 86.875C253.383 86.6667 253.362 86.4583 253.321 86.25C253.529 85.5833 253.717 84.9167 253.883 84.25C254.092 83.5417 254.196 82.8333 254.196 82.125C254.196 81.625 254.112 81.2083 253.946 80.875C254.487 78.9583 254.862 77.0625 255.071 75.1875C255.321 73.2708 255.55 71.3333 255.758 69.375C255.717 69.2917 255.675 69.2292 255.633 69.1875C255.592 69.1458 255.571 69.0833 255.571 69C255.571 68.7917 255.675 68.625 255.883 68.5C256.133 68.375 256.237 68.1458 256.196 67.8125C255.696 68.3125 255.279 68.8958 254.946 69.5625C254.654 70.2292 254.362 70.8958 254.071 71.5625C253.821 72.2292 253.529 72.8958 253.196 73.5625C252.904 74.1875 252.508 74.75 252.008 75.25C251.967 75.7083 251.821 76.1458 251.571 76.5625C251.362 76.9792 251.258 77.4375 251.258 77.9375C251.217 77.9375 251.175 77.9375 251.133 77.9375C251.092 77.8958 251.029 77.875 250.946 77.875C250.779 77.875 250.654 77.9792 250.571 78.1875C250.529 78.3958 250.404 78.4583 250.196 78.375C249.237 80.25 248.175 82.0833 247.008 83.875C245.883 85.6667 244.404 87.1042 242.571 88.1875C242.237 88.0625 241.925 88 241.633 88C241.092 88 240.55 88.1667 240.008 88.5C239.508 88.7917 239.175 88.9375 239.008 88.9375C238.592 88.9375 238.071 88.7292 237.446 88.3125C236.862 87.8542 236.258 87.6042 235.633 87.5625C234.967 87.1042 234.404 86.6458 233.946 86.1875C233.529 85.6875 232.883 85.3958 232.008 85.3125C231.425 84.4375 230.842 83.6042 230.258 82.8125C229.717 82.0208 229.175 81.25 228.633 80.5C228.133 79.7083 227.675 78.875 227.258 78C226.883 77.125 226.592 76.1458 226.383 75.0625C226.425 74.9792 226.446 74.8958 226.446 74.8125C226.446 74.5625 226.321 74.4583 226.071 74.5C225.862 74.5417 225.758 74.4167 225.758 74.125V73.6875C225.758 73.3542 225.696 73.0625 225.571 72.8125C225.487 72.5208 225.467 72.2083 225.508 71.875C225.217 71.4167 224.987 70.9375 224.821 70.4375C224.654 69.9375 224.362 69.5 223.946 69.125V68.5625C223.946 68.3125 223.925 68.0833 223.883 67.875C223.883 67.625 223.821 67.4167 223.696 67.25C223.612 67.0417 223.467 66.9167 223.258 66.875C223.217 65.375 222.904 63.8542 222.321 62.3125C221.779 60.7292 221.279 59.2083 220.821 57.75C220.487 58.8333 220.237 59.9375 220.071 61.0625C219.904 62.1458 219.821 63.25 219.821 64.375V65.4375C219.821 65.7708 219.862 66.1042 219.946 66.4375C219.821 66.6458 219.633 66.7917 219.383 66.875C219.175 66.9583 219.05 67.125 219.008 67.375C218.967 67.5833 218.946 67.7917 218.946 68C218.987 68.2083 218.987 68.4167 218.946 68.625C218.862 69.625 218.737 70.5833 218.571 71.5C218.321 72.875 218.029 74.2708 217.696 75.6875C217.362 77.0625 217.196 78.4792 217.196 79.9375C217.196 80.0208 217.196 80.1458 217.196 80.3125C217.237 80.4375 217.258 80.5417 217.258 80.625C216.592 81.2083 216.237 81.9375 216.196 82.8125C216.154 83.6875 216.05 84.5208 215.883 85.3125C215.675 86.4792 215.425 87.6458 215.133 88.8125C214.842 89.9375 214.592 91.1042 214.383 92.3125C214.258 92.9792 214.154 93.6458 214.071 94.3125C213.987 94.9375 213.904 95.5833 213.821 96.25C213.779 96.625 213.633 96.9375 213.383 97.1875C213.175 97.4375 213.029 97.7292 212.946 98.0625C212.904 98.3542 212.883 98.6875 212.883 99.0625C212.925 99.3958 212.946 99.7083 212.946 100C212.946 100.5 212.904 100.979 212.821 101.438C212.737 101.854 212.487 102.229 212.071 102.562C212.154 103.646 212.342 104.562 212.633 105.312C212.925 106.104 213.258 106.979 213.633 107.938H215.196V108.188C215.196 108.604 215.258 108.979 215.383 109.312C215.55 109.646 215.862 109.792 216.321 109.75C216.279 109.917 216.258 110.125 216.258 110.375C216.258 110.75 216.321 111.083 216.446 111.375C216.612 111.708 216.737 112.062 216.821 112.438C215.987 113.812 215.092 114.833 214.133 115.5C213.175 116.167 211.862 116.5 210.196 116.5H209.196C208.987 115.833 208.737 115.188 208.446 114.562C208.154 113.938 207.862 113.312 207.571 112.688C207.321 112.062 207.092 111.417 206.883 110.75C206.717 110.125 206.633 109.458 206.633 108.75C206.633 108.583 206.654 108.417 206.696 108.25C206.737 108.125 206.758 107.979 206.758 107.812C206.758 107.604 206.675 107.479 206.508 107.438C206.342 107.396 206.258 107.188 206.258 106.812C206.258 106.521 206.237 106.25 206.196 106C206.196 105.75 206.196 105.479 206.196 105.188C206.196 103.812 206.3 102.458 206.508 101.125C206.717 99.75 206.862 98.375 206.946 97C207.154 96.7917 207.258 96.5208 207.258 96.1875C207.258 95.8542 207.362 95.5833 207.571 95.375V94.9375C207.571 94.1875 207.654 93.4375 207.821 92.6875C207.987 91.9375 208.175 91.2083 208.383 90.5C208.592 89.7917 208.779 89.0625 208.946 88.3125C209.112 87.5625 209.196 86.8125 209.196 86.0625V85.0625C209.196 84.7708 209.321 84.6458 209.571 84.6875C209.862 84.6875 210.029 84.5208 210.071 84.1875C210.154 83.6042 210.196 83.0417 210.196 82.5C210.237 81.9167 210.3 81.3333 210.383 80.75C210.592 79.625 210.821 78.5 211.071 77.375C211.321 76.2083 211.446 75.0417 211.446 73.875V73.6875C211.446 73.5625 211.55 73.3125 211.758 72.9375C211.967 72.5208 212.071 72.125 212.071 71.75C212.071 71.4583 212.008 71.1875 211.883 70.9375C211.925 70.9792 212.008 71 212.133 71C212.3 71 212.404 70.9583 212.446 70.875C212.529 70.75 212.633 70.6458 212.758 70.5625C212.633 70.3958 212.571 70.2292 212.571 70.0625C212.571 69.8542 212.592 69.6667 212.633 69.5C212.717 69.2917 212.758 69.0833 212.758 68.875C212.758 68.5833 212.612 68.375 212.321 68.25C212.821 67.3333 213.175 66.3542 213.383 65.3125C213.633 64.2708 213.8 63.2083 213.883 62.125C214.008 61.0417 214.112 59.9583 214.196 58.875C214.279 57.75 214.467 56.6875 214.758 55.6875C214.675 55.4375 214.612 55.1667 214.571 54.875C214.571 54.5833 214.571 54.3125 214.571 54.0625C214.571 53.8958 214.55 53.7292 214.508 53.5625C214.467 53.3542 214.487 53.1667 214.571 53C214.571 52.9167 214.592 52.8125 214.633 52.6875L214.758 52.3125C214.842 52.0208 214.883 51.7292 214.883 51.4375C214.925 51.1042 214.967 50.7708 215.008 50.4375C215.092 49.4792 215.112 48.5 215.071 47.5C215.071 46.5 215.112 45.5 215.196 44.5C215.071 44.3333 214.946 44.2083 214.821 44.125C214.696 44 214.612 43.8333 214.571 43.625C214.904 43.0417 215.258 42.5 215.633 42C216.05 41.4583 216.592 41.0417 217.258 40.75C217.383 41.2083 217.717 41.4375 218.258 41.4375C218.508 41.4375 218.821 41.375 219.196 41.25C219.571 41.125 219.821 40.9583 219.946 40.75C220.654 41 221.362 41.125 222.071 41.125C222.821 41.0833 223.508 41.25 224.133 41.625C224.258 42.25 224.425 42.8958 224.633 43.5625C224.842 44.2292 225.133 44.8333 225.508 45.375C225.592 45.9167 225.675 46.5833 225.758 47.375C225.842 48.125 225.925 48.9167 226.008 49.75C226.092 50.5417 226.217 51.3125 226.383 52.0625C226.55 52.7708 226.779 53.3333 227.071 53.75C227.112 54.5 227.237 55.25 227.446 56C227.654 56.75 227.883 57.4792 228.133 58.1875C228.383 58.8542 228.592 59.4792 228.758 60.0625C228.967 60.6458 229.071 61.125 229.071 61.5C229.071 61.8333 229.008 62.0625 228.883 62.1875C228.8 62.2708 228.717 62.4375 228.633 62.6875C228.8 63.1458 229.029 63.5417 229.321 63.875C229.612 64.1667 229.925 64.5208 230.258 64.9375C230.883 67.3125 231.696 69.625 232.696 71.875C233.696 74.125 234.904 76.2917 236.321 78.375C236.696 78.4167 236.987 78.5208 237.196 78.6875C237.446 78.8542 237.821 78.8958 238.321 78.8125V79.25C238.321 79.6667 238.404 79.9583 238.571 80.125C238.946 80.375 239.383 80.5 239.883 80.5C240.425 80.5 240.842 80.3542 241.133 80.0625C241.467 79.7292 241.779 79.3542 242.071 78.9375C242.362 78.5208 242.654 78.125 242.946 77.75C243.237 77.375 243.633 77.125 244.133 77V76.875C244.133 76.5417 244.196 76.2708 244.321 76.0625C244.487 75.8125 244.571 75.5417 244.571 75.25C245.029 74.9167 245.383 74.5 245.633 74C245.883 73.5 246.112 73 246.321 72.5C246.529 71.9583 246.758 71.4583 247.008 71C247.3 70.5417 247.675 70.1667 248.133 69.875C248.717 68.0833 249.425 66.4167 250.258 64.875C251.092 63.3333 251.967 61.7708 252.883 60.1875C252.883 60.0625 252.862 59.9375 252.821 59.8125C252.779 59.6458 252.758 59.5 252.758 59.375C252.758 59.3333 252.8 59.1458 252.883 58.8125C253.092 58.3958 253.279 58 253.446 57.625C253.612 57.25 253.758 56.8333 253.883 56.375C254.3 55.0833 254.675 53.8125 255.008 52.5625C255.383 51.3125 255.925 50.125 256.633 49V47.4375C257.383 45.9375 257.904 44.3542 258.196 42.6875C258.529 41.0208 258.925 39.3958 259.383 37.8125C259.467 37.3542 259.612 36.8958 259.821 36.4375C260.071 35.9375 260.362 35.5833 260.696 35.375C260.571 35.125 260.508 34.875 260.508 34.625C260.508 34.2917 260.55 34 260.633 33.75C260.758 33.4583 260.862 33.1667 260.946 32.875C260.821 32.5833 260.758 32.2083 260.758 31.75C260.758 31.1667 260.925 30.625 261.258 30.125C261.592 29.5833 262.092 29.2292 262.758 29.0625C263.175 29.1875 263.529 29.3958 263.821 29.6875C264.112 29.9792 264.383 30.2917 264.633 30.625C264.925 30.9167 265.217 31.1667 265.508 31.375C265.842 31.5417 266.258 31.5833 266.758 31.5C267.092 32.125 267.321 32.7917 267.446 33.5C267.571 34.1667 267.633 34.8542 267.633 35.5625C267.633 36.5208 267.55 37.5208 267.383 38.5625C267.217 39.5625 267.154 40.5833 267.196 41.625C266.862 42.2917 266.612 43.0208 266.446 43.8125C266.321 44.5625 266.196 45.3333 266.071 46.125C265.946 46.9167 265.8 47.6875 265.633 48.4375C265.467 49.1875 265.175 49.8958 264.758 50.5625C264.633 52.4375 264.487 54.2708 264.321 56.0625C264.196 57.8542 263.987 59.6458 263.696 61.4375L263.133 65C263.05 65.2917 262.967 65.625 262.883 66C262.8 66.3333 262.758 66.625 262.758 66.875C262.758 67.125 262.779 67.3958 262.821 67.6875C262.862 67.9375 262.987 68.125 263.196 68.25C262.904 68.6667 262.696 69.1667 262.571 69.75C262.446 70.3333 262.321 70.9583 262.196 71.625L261.883 73.5625C261.8 74.1875 261.633 74.75 261.383 75.25V75.9375C261.383 77.6042 261.092 79.3125 260.508 81.0625V81.375C260.508 81.5833 260.487 81.7708 260.446 81.9375C260.446 82.0625 260.446 82.2292 260.446 82.4375C260.446 82.7292 260.529 82.9583 260.696 83.125C260.362 84.2083 260.05 85.3333 259.758 86.5C259.467 87.625 259.258 88.7917 259.133 90C259.008 91.625 258.987 93.2917 259.071 95C259.154 96.6667 258.946 98.2917 258.446 99.875C258.696 100.625 258.862 101.438 258.946 102.312L259.196 104.938C259.279 105.812 259.404 106.646 259.571 107.438C259.779 108.271 260.154 108.958 260.696 109.5C260.737 109.583 260.758 109.708 260.758 109.875C260.758 110.208 260.675 110.458 260.508 110.625C260.592 111.042 260.737 111.396 260.946 111.688C261.154 111.979 261.362 112.25 261.571 112.5C261.779 112.792 261.946 113.104 262.071 113.438C262.237 113.771 262.321 114.188 262.321 114.688C262.654 115.146 263.175 115.5 263.883 115.75C264.592 116 265.3 116.25 266.008 116.5C266.758 116.75 267.404 117.062 267.946 117.438C268.487 117.854 268.758 118.438 268.758 119.188ZM295.719 99.3086C295.391 99.8711 295.133 100.328 294.946 100.68C294.782 101.008 294.606 101.289 294.418 101.523C294.254 101.734 294.055 101.934 293.821 102.121C293.61 102.285 293.305 102.496 292.907 102.754C292.649 102.988 292.391 103.188 292.133 103.352C291.922 103.516 291.711 103.656 291.5 103.773C291.313 103.891 291.161 103.949 291.043 103.949C290.996 103.949 290.95 103.938 290.903 103.914C290.856 103.914 290.809 103.914 290.762 103.914C290.621 103.914 290.481 103.914 290.34 103.914C290.223 103.938 290.118 103.855 290.024 103.668C289.954 103.738 289.895 103.82 289.848 103.914C289.801 104.008 289.754 104.09 289.707 104.16C289.661 104.254 289.59 104.324 289.496 104.371C289.426 104.418 289.321 104.418 289.18 104.371L289.004 104.16L288.477 104.617C287.821 104.289 287.188 104.008 286.579 103.773C285.993 103.562 285.465 103.305 284.996 103C284.528 102.695 284.129 102.309 283.801 101.84C283.473 101.348 283.239 100.68 283.098 99.8359C282.981 99.6953 282.852 99.5781 282.711 99.4844C282.571 99.3672 282.407 99.332 282.219 99.3789C281.985 99.7773 281.704 100.117 281.375 100.398C281.047 100.68 280.719 100.984 280.391 101.312C280.274 101.43 280.18 101.559 280.11 101.699C280.039 101.84 279.946 101.969 279.829 102.086C279.641 102.297 279.418 102.449 279.161 102.543C278.903 102.613 278.645 102.684 278.387 102.754C278.129 102.824 277.883 102.941 277.649 103.105C277.438 103.27 277.286 103.551 277.192 103.949C276.911 103.785 276.629 103.738 276.348 103.809C276.137 103.855 275.914 103.902 275.68 103.949C275.446 104.02 275.211 104.055 274.977 104.055C274.766 104.078 274.555 104.055 274.344 103.984C274.133 103.914 273.946 103.762 273.782 103.527C273.454 103.668 273.149 103.656 272.868 103.492C272.586 103.352 272.317 103.152 272.059 102.895C271.825 102.613 271.59 102.32 271.356 102.016C271.121 101.711 270.899 101.488 270.688 101.348C270.547 100.973 270.559 100.656 270.723 100.398C270.864 100.117 271.028 99.8594 271.215 99.625C271.379 99.3672 271.496 99.1211 271.567 98.8867C271.637 98.6289 271.532 98.3242 271.25 97.9727C271.485 97.6211 271.696 97.2578 271.883 96.8828C272.071 96.4844 272.258 96.0977 272.446 95.7227C272.657 95.3242 272.868 94.9492 273.079 94.5977C273.313 94.2227 273.594 93.9062 273.922 93.6484C273.782 93.4844 273.711 93.332 273.711 93.1914C273.711 93.0273 273.746 92.875 273.817 92.7344C273.887 92.5703 273.969 92.418 274.063 92.2773C274.157 92.1133 274.227 91.9609 274.274 91.8203L275.293 91.3281L275.047 90.4844C275.305 90.5312 275.493 90.5195 275.61 90.4492C275.75 90.3789 275.844 90.2734 275.891 90.1328C275.961 89.9922 276.008 89.8398 276.032 89.6758C276.079 89.4883 276.137 89.3242 276.207 89.1836C276.325 88.9727 276.5 88.8203 276.735 88.7266C277.227 88.3516 277.707 87.9531 278.176 87.5312C278.668 87.1094 279.149 86.6992 279.618 86.3008C280.11 85.9023 280.614 85.5273 281.129 85.1758C281.645 84.8008 282.207 84.4844 282.817 84.2266C283.239 84.2969 283.567 84.4258 283.801 84.6133C284.059 84.8008 284.246 85.0234 284.364 85.2812C284.504 85.5391 284.61 85.832 284.68 86.1602C284.75 86.4648 284.821 86.7695 284.891 87.0742C285.008 87.4727 285.149 87.8125 285.313 88.0938C285.477 88.375 285.758 88.6094 286.157 88.7969C285.829 89.3594 285.7 89.9219 285.77 90.4844C285.84 91.0234 285.911 91.5977 285.981 92.207C286.051 92.7695 286.039 93.3203 285.946 93.8594C285.875 94.3984 285.536 94.8789 284.926 95.3008C284.879 95.4648 284.868 95.6406 284.891 95.8281C284.914 96.0156 284.926 96.2031 284.926 96.3906C284.926 96.5781 284.891 96.7539 284.821 96.918C284.75 97.082 284.621 97.2109 284.434 97.3047C284.645 97.5625 284.75 97.8203 284.75 98.0781C284.774 98.3359 284.786 98.582 284.786 98.8164C284.809 99.0508 284.868 99.2617 284.961 99.4492C285.079 99.6367 285.336 99.7773 285.735 99.8711C285.805 100.176 285.864 100.41 285.911 100.574C285.981 100.715 286.051 100.832 286.121 100.926C286.215 101.02 286.332 101.113 286.473 101.207C286.614 101.277 286.801 101.395 287.036 101.559C287.223 101.605 287.434 101.605 287.668 101.559C287.903 101.512 288.09 101.582 288.231 101.77C288.348 101.652 288.489 101.594 288.653 101.594C288.817 101.57 288.969 101.57 289.11 101.594L289.567 102.367C289.825 102.18 290.118 102.016 290.446 101.875C290.774 101.734 291.09 101.617 291.395 101.523C291.746 101.43 292.098 101.348 292.45 101.277L295.719 99.3086ZM282.219 87.2852C282.008 87.4727 281.75 87.6602 281.446 87.8477C281.141 88.0352 280.836 88.2344 280.532 88.4453C280.25 88.6562 280.004 88.8906 279.793 89.1484C279.582 89.3828 279.454 89.6641 279.407 89.9922C278.868 90.0859 278.493 90.3086 278.282 90.6602C278.071 91.0117 277.895 91.3984 277.754 91.8203C277.614 92.2422 277.461 92.6641 277.297 93.0859C277.133 93.4844 276.84 93.8008 276.418 94.0352C276.278 94.1289 276.149 94.1758 276.032 94.1758C276.055 94.1758 275.985 94.2227 275.821 94.3164C275.563 94.5039 275.34 94.7383 275.153 95.0195C274.965 95.3008 274.801 95.6055 274.661 95.9336C274.543 96.2617 274.426 96.6016 274.309 96.9531C274.215 97.2812 274.121 97.5859 274.028 97.8672C273.7 97.9141 273.454 97.9844 273.289 98.0781C273.125 98.1719 273.02 98.2773 272.973 98.3945C272.95 98.4883 272.961 98.6055 273.008 98.7461C273.055 98.8867 273.125 99.0391 273.219 99.2031C273.313 99.3438 273.407 99.5078 273.5 99.6953C273.618 99.8828 273.711 100.07 273.782 100.258C273.852 100.445 273.887 100.633 273.887 100.82C273.911 101.008 273.864 101.184 273.746 101.348C274.075 101.605 274.391 101.664 274.696 101.523C275 101.359 275.282 101.184 275.539 100.996C275.633 100.926 275.727 100.855 275.821 100.785C275.938 100.691 276.055 100.621 276.172 100.574C276.711 100.691 277.204 100.656 277.649 100.469C278.094 100.281 278.504 100.023 278.879 99.6953C279.254 99.3672 279.618 99.0156 279.969 98.6406C280.321 98.2656 280.672 97.9375 281.024 97.6562L280.743 97.375C281.164 97.2578 281.457 97.1055 281.621 96.918C281.809 96.707 281.926 96.4727 281.973 96.2148C282.02 95.957 282.02 95.6875 281.973 95.4062C281.926 95.1016 281.891 94.7852 281.868 94.457C281.844 94.2695 281.832 94.0938 281.832 93.9297C281.856 93.7422 281.903 93.5547 281.973 93.3672C281.786 92.8281 281.75 92.3125 281.868 91.8203C282.008 91.3281 282.184 90.8594 282.395 90.4141C282.629 89.9453 282.852 89.4766 283.063 89.0078C283.274 88.5391 283.379 88.0469 283.379 87.5312L282.219 87.2852ZM319.661 96.0391C319.121 96.2969 318.758 96.6133 318.571 96.9883C318.383 97.3633 318.231 97.75 318.114 98.1484C318.02 98.5469 317.891 98.9336 317.727 99.3086C317.586 99.6602 317.27 99.9531 316.778 100.188C316.661 100.609 316.426 100.902 316.075 101.066C315.746 101.23 315.395 101.383 315.02 101.523C314.645 101.641 314.305 101.805 314 102.016C313.719 102.227 313.579 102.59 313.579 103.105C313.11 103.363 312.594 103.598 312.032 103.809C311.493 104.02 310.918 104.172 310.309 104.266C309.723 104.383 309.137 104.43 308.551 104.406C307.965 104.383 307.414 104.266 306.899 104.055C306.547 103.891 306.207 103.68 305.879 103.422C305.762 103.328 305.645 103.246 305.528 103.176C305.434 103.129 305.329 103.047 305.211 102.93C304.93 102.648 304.696 102.32 304.508 101.945C304.321 101.57 304.168 101.172 304.051 100.75C303.934 100.328 303.84 99.9062 303.77 99.4844C303.7 99.0625 303.641 98.6641 303.594 98.2891L304.895 94.7734C304.215 94.2344 303.664 93.6133 303.243 92.9102C302.821 92.1836 302.305 91.5156 301.696 90.9062C301.579 91.0703 301.426 91.2109 301.239 91.3281C301.051 91.4453 300.981 91.6328 301.028 91.8906L301.379 92.207C300.606 93.0508 299.821 94.0117 299.024 95.0898C298.25 96.1445 297.641 97.2109 297.196 98.2891C296.68 98.2656 296.317 98.3945 296.106 98.6758C295.895 98.9336 295.719 99.2383 295.579 99.5898C295.438 99.918 295.262 100.223 295.051 100.504C294.84 100.785 294.489 100.902 293.996 100.855C293.879 101.113 293.762 101.395 293.645 101.699C293.528 101.98 293.387 102.25 293.223 102.508C293.059 102.766 292.86 102.977 292.625 103.141C292.391 103.328 292.098 103.422 291.746 103.422C291.559 103.234 291.454 103.035 291.43 102.824C291.407 102.613 291.43 102.402 291.5 102.191C291.571 101.957 291.664 101.734 291.782 101.523C291.899 101.289 291.981 101.066 292.028 100.855C292.215 100.176 292.555 99.5664 293.047 99.0273C293.539 98.4648 294.032 97.9141 294.524 97.375C295.016 96.8125 295.438 96.2266 295.789 95.6172C296.141 95.0078 296.282 94.293 296.211 93.4727C296.516 93.4492 296.821 93.3906 297.125 93.2969C297.454 93.1797 297.746 93.0391 298.004 92.875C298.286 92.6875 298.496 92.4648 298.637 92.207C298.801 91.9258 298.86 91.5977 298.813 91.2227C298.625 91.1289 298.52 91 298.496 90.8359C298.473 90.6484 298.473 90.4609 298.496 90.2734C299.012 90.1094 299.422 89.8281 299.727 89.4297C300.055 89.0078 300.348 88.5625 300.606 88.0938C300.864 87.625 301.11 87.1562 301.344 86.6875C301.602 86.1953 301.93 85.7734 302.329 85.4219C302.657 85.6094 302.985 85.7734 303.313 85.9141C303.641 86.0312 303.957 86.1953 304.262 86.4062C304.051 86.6875 303.922 86.957 303.875 87.2148C303.829 87.4727 303.805 87.7422 303.805 88.0234C303.805 88.2812 303.805 88.5391 303.805 88.7969C303.805 89.0547 303.735 89.3242 303.594 89.6055C303.969 89.9336 304.286 90.3203 304.543 90.7656C304.801 91.2109 305.129 91.5859 305.528 91.8906C305.809 91.6797 306.125 91.5742 306.477 91.5742C306.829 91.5508 307.18 91.5508 307.532 91.5742C307.907 91.5742 308.258 91.5508 308.586 91.5039C308.914 91.4336 309.184 91.2344 309.395 90.9062C309.489 91 309.629 91.0469 309.817 91.0469C310.004 91.0469 310.192 91.0469 310.379 91.0469C310.567 91.0469 310.731 91.082 310.871 91.1523C311.012 91.1992 311.094 91.3047 311.118 91.4688C311.141 91.6562 311.129 91.7852 311.082 91.8555C311.059 91.9258 311.024 92.043 310.977 92.207C310.93 92.3945 310.918 92.4883 310.942 92.4883C310.965 92.4883 310.942 92.5703 310.871 92.7344C310.754 93.0391 310.555 93.2969 310.274 93.5078C310.016 93.7188 309.746 93.9297 309.465 94.1406C309.207 94.3281 308.961 94.5508 308.727 94.8086C308.516 95.043 308.411 95.3477 308.411 95.7227C307.895 95.9102 307.532 96.1914 307.321 96.5664C307.11 96.918 306.969 97.3281 306.899 97.7969C306.829 98.2422 306.782 98.7109 306.758 99.2031C306.735 99.6719 306.653 100.105 306.512 100.504L306.829 100.855L307.11 100.504C307.438 100.973 307.825 101.266 308.27 101.383C308.739 101.5 309.219 101.535 309.711 101.488C309.946 101.137 310.215 100.855 310.52 100.645C310.848 100.434 311.188 100.258 311.539 100.117C311.914 99.9766 312.289 99.8477 312.664 99.7305C313.063 99.6133 313.438 99.4727 313.789 99.3086C314.071 99.168 314.305 99.0156 314.493 98.8516C314.704 98.6875 314.926 98.5 315.161 98.2891C315.864 97.6328 316.555 96.9883 317.235 96.3555C317.938 95.7227 318.641 95.0781 319.344 94.4219C319.485 94.4219 319.579 94.4922 319.625 94.6328C319.672 94.7734 319.696 94.9375 319.696 95.125C319.696 95.2891 319.684 95.4648 319.661 95.6523C319.661 95.8164 319.661 95.9453 319.661 96.0391ZM327.184 81.0625C326.762 81.2266 326.528 81.4727 326.481 81.8008C326.434 82.1289 326.411 82.4688 326.411 82.8203C326.434 83.1719 326.422 83.5 326.375 83.8047C326.329 84.1094 326.094 84.3086 325.672 84.4023C325.508 84.1211 325.297 83.8633 325.039 83.6289C324.805 83.3711 324.571 83.125 324.336 82.8906C324.102 82.6328 323.914 82.3633 323.774 82.082C323.633 81.8008 323.586 81.4609 323.633 81.0625L325.391 79.0234C325.672 79.1172 325.895 79.2344 326.059 79.375C326.223 79.5156 326.364 79.6797 326.481 79.8672C326.598 80.0547 326.704 80.2539 326.797 80.4648C326.914 80.6523 327.043 80.8516 327.184 81.0625ZM334.004 96.8125C334.028 97.3281 333.981 97.6914 333.864 97.9023C333.77 98.1133 333.653 98.2891 333.512 98.4297C333.371 98.5469 333.243 98.6875 333.125 98.8516C333.032 98.9922 332.985 99.25 332.985 99.625C332.446 100.211 332.012 100.645 331.684 100.926C331.356 101.184 331.039 101.406 330.735 101.594C330.43 101.758 330.09 101.945 329.715 102.156C329.34 102.367 328.825 102.695 328.168 103.141L327.922 103.176C327.852 103.527 327.723 103.727 327.536 103.773C327.371 103.844 327.172 103.879 326.938 103.879C326.727 103.879 326.516 103.902 326.305 103.949C326.094 103.996 325.918 104.195 325.778 104.547C325.379 104.664 325.039 104.711 324.758 104.688C324.477 104.664 324.114 104.652 323.668 104.652C323.528 104.652 323.34 104.641 323.106 104.617C322.895 104.594 322.719 104.605 322.579 104.652C322.485 104.676 322.379 104.734 322.262 104.828C322.168 104.945 322.063 105.039 321.946 105.109C321.829 105.18 321.711 105.203 321.594 105.18C321.477 105.18 321.371 105.086 321.278 104.898C320.996 104.969 320.739 104.969 320.504 104.898C320.27 104.828 320.047 104.711 319.836 104.547C319.625 104.383 319.426 104.184 319.239 103.949C319.075 103.738 318.911 103.539 318.746 103.352C318.629 103.211 318.5 103.082 318.36 102.965C318.219 102.848 318.09 102.73 317.973 102.613C317.715 102.355 317.528 102.027 317.411 101.629C317.293 101.23 317.223 100.82 317.2 100.398C317.176 99.9766 317.188 99.5547 317.235 99.1328C317.282 98.7109 317.352 98.3359 317.446 98.0078C317.657 97.7969 317.809 97.5625 317.903 97.3047C317.973 97.0234 318.032 96.7422 318.079 96.4609C318.149 96.1797 318.219 95.9102 318.289 95.6523C318.383 95.3711 318.536 95.125 318.746 94.9141C318.746 94.6094 318.793 94.3281 318.887 94.0703C319.004 93.8125 319.145 93.5664 319.309 93.332C319.496 93.0977 319.696 92.8867 319.907 92.6992C320.141 92.4883 320.352 92.2891 320.539 92.1016C320.727 92.1016 320.914 92.1016 321.102 92.1016C321.289 92.0781 321.465 92.0898 321.629 92.1367C321.793 92.1602 321.934 92.2305 322.051 92.3477C322.168 92.4414 322.262 92.6055 322.332 92.8398C322.496 93.4727 322.45 93.9883 322.192 94.3867C321.957 94.7617 321.688 95.125 321.383 95.4766C321.079 95.8281 320.832 96.1914 320.645 96.5664C320.457 96.9414 320.504 97.4219 320.786 98.0078C320.528 98.0078 320.352 98.0781 320.258 98.2188C320.188 98.3594 320.129 98.5234 320.082 98.7109C320.059 98.875 320.012 99.0391 319.942 99.2031C319.871 99.3672 319.731 99.4844 319.52 99.5547C319.661 99.6953 319.731 99.9414 319.731 100.293C319.754 100.645 319.789 100.984 319.836 101.312C319.907 101.617 320.012 101.863 320.153 102.051C320.317 102.238 320.61 102.25 321.032 102.086C321.336 102.344 321.7 102.449 322.121 102.402C322.567 102.355 322.977 102.344 323.352 102.367C323.68 102.156 323.961 102.051 324.196 102.051C324.43 102.027 324.653 102.051 324.864 102.121C325.075 102.168 325.297 102.215 325.532 102.262C325.766 102.309 326.047 102.273 326.375 102.156C326.469 101.758 326.633 101.523 326.868 101.453C327.102 101.383 327.336 101.348 327.571 101.348C327.805 101.324 328.016 101.277 328.204 101.207C328.414 101.137 328.555 100.902 328.625 100.504C328.813 100.27 329.036 100.141 329.293 100.117C329.551 100.07 329.809 100.023 330.067 99.9766C330.348 99.9297 330.594 99.8359 330.805 99.6953C331.039 99.5312 331.204 99.2266 331.297 98.7812C331.696 98.4766 331.977 98.2539 332.141 98.1133C332.329 97.9492 332.481 97.8203 332.598 97.7266C332.715 97.6328 332.868 97.5273 333.055 97.4102C333.243 97.293 333.559 97.0938 334.004 96.8125ZM355.871 99.3086C355.543 99.8711 355.286 100.328 355.098 100.68C354.934 101.008 354.758 101.289 354.571 101.523C354.407 101.734 354.207 101.934 353.973 102.121C353.762 102.285 353.457 102.496 353.059 102.754C352.801 102.988 352.543 103.188 352.286 103.352C352.075 103.516 351.864 103.656 351.653 103.773C351.465 103.891 351.313 103.949 351.196 103.949C351.149 103.949 351.102 103.938 351.055 103.914C351.008 103.914 350.961 103.914 350.914 103.914C350.774 103.914 350.633 103.914 350.493 103.914C350.375 103.938 350.27 103.855 350.176 103.668C350.106 103.738 350.047 103.82 350 103.914C349.954 104.008 349.907 104.09 349.86 104.16C349.813 104.254 349.743 104.324 349.649 104.371C349.579 104.418 349.473 104.418 349.332 104.371L349.157 104.16L348.629 104.617C347.973 104.289 347.34 104.008 346.731 103.773C346.145 103.562 345.618 103.305 345.149 103C344.68 102.695 344.282 102.309 343.954 101.84C343.625 101.348 343.391 100.68 343.25 99.8359C343.133 99.6953 343.004 99.5781 342.864 99.4844C342.723 99.3672 342.559 99.332 342.371 99.3789C342.137 99.7773 341.856 100.117 341.528 100.398C341.2 100.68 340.871 100.984 340.543 101.312C340.426 101.43 340.332 101.559 340.262 101.699C340.192 101.84 340.098 101.969 339.981 102.086C339.793 102.297 339.571 102.449 339.313 102.543C339.055 102.613 338.797 102.684 338.539 102.754C338.282 102.824 338.036 102.941 337.801 103.105C337.59 103.27 337.438 103.551 337.344 103.949C337.063 103.785 336.782 103.738 336.5 103.809C336.289 103.855 336.067 103.902 335.832 103.949C335.598 104.02 335.364 104.055 335.129 104.055C334.918 104.078 334.707 104.055 334.496 103.984C334.286 103.914 334.098 103.762 333.934 103.527C333.606 103.668 333.301 103.656 333.02 103.492C332.739 103.352 332.469 103.152 332.211 102.895C331.977 102.613 331.743 102.32 331.508 102.016C331.274 101.711 331.051 101.488 330.84 101.348C330.7 100.973 330.711 100.656 330.875 100.398C331.016 100.117 331.18 99.8594 331.368 99.625C331.532 99.3672 331.649 99.1211 331.719 98.8867C331.789 98.6289 331.684 98.3242 331.403 97.9727C331.637 97.6211 331.848 97.2578 332.036 96.8828C332.223 96.4844 332.411 96.0977 332.598 95.7227C332.809 95.3242 333.02 94.9492 333.231 94.5977C333.465 94.2227 333.746 93.9062 334.075 93.6484C333.934 93.4844 333.864 93.332 333.864 93.1914C333.864 93.0273 333.899 92.875 333.969 92.7344C334.039 92.5703 334.121 92.418 334.215 92.2773C334.309 92.1133 334.379 91.9609 334.426 91.8203L335.446 91.3281L335.2 90.4844C335.457 90.5312 335.645 90.5195 335.762 90.4492C335.903 90.3789 335.996 90.2734 336.043 90.1328C336.114 89.9922 336.161 89.8398 336.184 89.6758C336.231 89.4883 336.289 89.3242 336.36 89.1836C336.477 88.9727 336.653 88.8203 336.887 88.7266C337.379 88.3516 337.86 87.9531 338.329 87.5312C338.821 87.1094 339.301 86.6992 339.77 86.3008C340.262 85.9023 340.766 85.5273 341.282 85.1758C341.797 84.8008 342.36 84.4844 342.969 84.2266C343.391 84.2969 343.719 84.4258 343.954 84.6133C344.211 84.8008 344.399 85.0234 344.516 85.2812C344.657 85.5391 344.762 85.832 344.832 86.1602C344.903 86.4648 344.973 86.7695 345.043 87.0742C345.161 87.4727 345.301 87.8125 345.465 88.0938C345.629 88.375 345.911 88.6094 346.309 88.7969C345.981 89.3594 345.852 89.9219 345.922 90.4844C345.993 91.0234 346.063 91.5977 346.133 92.207C346.204 92.7695 346.192 93.3203 346.098 93.8594C346.028 94.3984 345.688 94.8789 345.079 95.3008C345.032 95.4648 345.02 95.6406 345.043 95.8281C345.067 96.0156 345.079 96.2031 345.079 96.3906C345.079 96.5781 345.043 96.7539 344.973 96.918C344.903 97.082 344.774 97.2109 344.586 97.3047C344.797 97.5625 344.903 97.8203 344.903 98.0781C344.926 98.3359 344.938 98.582 344.938 98.8164C344.961 99.0508 345.02 99.2617 345.114 99.4492C345.231 99.6367 345.489 99.7773 345.887 99.8711C345.957 100.176 346.016 100.41 346.063 100.574C346.133 100.715 346.204 100.832 346.274 100.926C346.368 101.02 346.485 101.113 346.625 101.207C346.766 101.277 346.954 101.395 347.188 101.559C347.375 101.605 347.586 101.605 347.821 101.559C348.055 101.512 348.243 101.582 348.383 101.77C348.5 101.652 348.641 101.594 348.805 101.594C348.969 101.57 349.121 101.57 349.262 101.594L349.719 102.367C349.977 102.18 350.27 102.016 350.598 101.875C350.926 101.734 351.243 101.617 351.547 101.523C351.899 101.43 352.25 101.348 352.602 101.277L355.871 99.3086ZM342.371 87.2852C342.161 87.4727 341.903 87.6602 341.598 87.8477C341.293 88.0352 340.989 88.2344 340.684 88.4453C340.403 88.6562 340.157 88.8906 339.946 89.1484C339.735 89.3828 339.606 89.6641 339.559 89.9922C339.02 90.0859 338.645 90.3086 338.434 90.6602C338.223 91.0117 338.047 91.3984 337.907 91.8203C337.766 92.2422 337.614 92.6641 337.45 93.0859C337.286 93.4844 336.993 93.8008 336.571 94.0352C336.43 94.1289 336.301 94.1758 336.184 94.1758C336.207 94.1758 336.137 94.2227 335.973 94.3164C335.715 94.5039 335.493 94.7383 335.305 95.0195C335.118 95.3008 334.954 95.6055 334.813 95.9336C334.696 96.2617 334.579 96.6016 334.461 96.9531C334.368 97.2812 334.274 97.5859 334.18 97.8672C333.852 97.9141 333.606 97.9844 333.442 98.0781C333.278 98.1719 333.172 98.2773 333.125 98.3945C333.102 98.4883 333.114 98.6055 333.161 98.7461C333.207 98.8867 333.278 99.0391 333.371 99.2031C333.465 99.3438 333.559 99.5078 333.653 99.6953C333.77 99.8828 333.864 100.07 333.934 100.258C334.004 100.445 334.039 100.633 334.039 100.82C334.063 101.008 334.016 101.184 333.899 101.348C334.227 101.605 334.543 101.664 334.848 101.523C335.153 101.359 335.434 101.184 335.692 100.996C335.786 100.926 335.879 100.855 335.973 100.785C336.09 100.691 336.207 100.621 336.325 100.574C336.864 100.691 337.356 100.656 337.801 100.469C338.246 100.281 338.657 100.023 339.032 99.6953C339.407 99.3672 339.77 99.0156 340.121 98.6406C340.473 98.2656 340.825 97.9375 341.176 97.6562L340.895 97.375C341.317 97.2578 341.61 97.1055 341.774 96.918C341.961 96.707 342.079 96.4727 342.125 96.2148C342.172 95.957 342.172 95.6875 342.125 95.4062C342.079 95.1016 342.043 94.7852 342.02 94.457C341.996 94.2695 341.985 94.0938 341.985 93.9297C342.008 93.7422 342.055 93.5547 342.125 93.3672C341.938 92.8281 341.903 92.3125 342.02 91.8203C342.161 91.3281 342.336 90.8594 342.547 90.4141C342.782 89.9453 343.004 89.4766 343.215 89.0078C343.426 88.5391 343.532 88.0469 343.532 87.5312L342.371 87.2852ZM373.731 101.734C373.754 102.016 373.707 102.227 373.59 102.367C373.473 102.508 373.309 102.613 373.098 102.684C372.911 102.754 372.7 102.812 372.465 102.859C372.231 102.883 372.032 102.941 371.868 103.035C371.188 102.965 370.532 102.871 369.899 102.754C369.266 102.613 368.68 102.414 368.141 102.156C367.602 101.875 367.11 101.512 366.664 101.066C366.243 100.621 365.879 100.059 365.575 99.3789C365.879 98.8867 365.985 98.3477 365.891 97.7617C365.797 97.1523 365.704 96.5664 365.61 96.0039C365.539 95.4414 365.551 94.9258 365.645 94.457C365.762 93.9883 366.172 93.6133 366.875 93.332C366.829 93.0742 366.829 92.793 366.875 92.4883C366.946 92.1836 366.864 91.9258 366.629 91.7148C365.809 91.9961 365.094 92.3945 364.485 92.9102C363.875 93.4258 363.289 93.9883 362.727 94.5977C362.188 95.207 361.637 95.8281 361.075 96.4609C360.536 97.0703 359.938 97.6094 359.282 98.0781C358.977 98.1016 358.649 98.0898 358.297 98.043C357.969 97.9727 357.688 98.0664 357.454 98.3242C357.477 98.4883 357.536 98.6289 357.629 98.7461C357.723 98.8633 357.793 98.9805 357.84 99.0977C357.911 99.2148 357.946 99.3438 357.946 99.4844C357.946 99.6016 357.864 99.7422 357.7 99.9062C357.465 100.141 357.207 100.34 356.926 100.504C356.668 100.645 356.411 100.809 356.153 100.996C355.918 101.16 355.719 101.359 355.555 101.594C355.391 101.828 355.309 102.145 355.309 102.543C355.168 102.473 355.039 102.461 354.922 102.508C354.805 102.531 354.7 102.59 354.606 102.684C354.489 102.777 354.383 102.883 354.289 103C354.196 103.117 354.102 103.211 354.008 103.281C353.961 103.398 353.973 103.492 354.043 103.562C354.114 103.656 354.196 103.75 354.289 103.844C354.196 104.102 354.079 104.254 353.938 104.301C353.774 104.371 353.61 104.383 353.446 104.336C353.258 104.289 353.082 104.207 352.918 104.09C352.731 103.996 352.567 103.914 352.426 103.844C352.356 103.539 352.309 103.188 352.286 102.789C352.262 102.391 352.274 102.004 352.321 101.629C352.368 101.23 352.461 100.855 352.602 100.504C352.743 100.152 352.954 99.8594 353.235 99.625C353.329 99.5547 353.387 99.5195 353.411 99.5195C353.434 99.4961 353.446 99.4844 353.446 99.4844C353.446 99.4844 353.457 99.4844 353.481 99.4844C353.504 99.4609 353.551 99.4141 353.621 99.3438C353.809 99.1328 353.938 98.9102 354.008 98.6758C354.079 98.418 354.137 98.1602 354.184 97.9023C354.231 97.6445 354.301 97.3984 354.395 97.1641C354.465 96.9062 354.606 96.6836 354.817 96.4961C354.723 96.1211 354.723 95.793 354.817 95.5117C354.934 95.207 355.075 94.9258 355.239 94.668C355.426 94.3867 355.602 94.1172 355.766 93.8594C355.954 93.5781 356.071 93.2734 356.118 92.9453C356.141 92.8281 356.141 92.7227 356.118 92.6289C356.118 92.5117 356.118 92.3945 356.118 92.2773C356.071 91.9023 356.106 91.6211 356.223 91.4336C356.364 91.2227 356.528 91.0586 356.715 90.9414C356.926 90.8008 357.137 90.6602 357.348 90.5195C357.582 90.3789 357.782 90.168 357.946 89.8867C358.625 90.2148 359.024 90.6602 359.141 91.2227C359.282 91.7617 359.329 92.3711 359.282 93.0508C358.883 93.3086 358.579 93.6719 358.368 94.1406C358.157 94.5859 358.016 95.0195 357.946 95.4414C357.993 95.582 358.051 95.6641 358.121 95.6875C358.215 95.6875 358.309 95.6758 358.403 95.6523C358.52 95.6055 358.625 95.5586 358.719 95.5117C358.813 95.4648 358.907 95.4414 359 95.4414C359.844 94.8555 360.676 94.1992 361.496 93.4727C362.34 92.7461 362.996 91.9141 363.465 90.9766C364.145 90.6484 364.789 90.2734 365.399 89.8516C366.008 89.4062 366.676 89.0781 367.403 88.8672L368.211 88.0586C368.329 88.2461 368.469 88.293 368.633 88.1992C368.797 88.082 368.961 87.9531 369.125 87.8125C369.289 87.6719 369.442 87.5898 369.582 87.5664C369.746 87.543 369.899 87.707 370.039 88.0586C370.274 88.668 370.332 89.2656 370.215 89.8516C370.098 90.4141 369.911 90.9766 369.653 91.5391C369.418 92.0781 369.172 92.6289 368.914 93.1914C368.657 93.7539 368.504 94.3281 368.457 94.9141C368.457 95.0547 368.457 95.207 368.457 95.3711C368.457 95.5117 368.446 95.6641 368.422 95.8281C368.375 96.3203 368.305 96.8594 368.211 97.4453C368.141 98.0078 368.176 98.5234 368.317 98.9922C368.434 99.4141 368.68 99.7891 369.055 100.117C369.43 100.445 369.758 100.773 370.039 101.102C370.204 101.078 370.368 101.09 370.532 101.137C370.696 101.184 370.848 101.23 370.989 101.277C371.153 101.324 371.305 101.348 371.446 101.348C371.586 101.324 371.727 101.242 371.868 101.102C372.032 101.031 372.184 101.043 372.325 101.137C372.489 101.207 372.641 101.301 372.782 101.418C372.922 101.535 373.063 101.641 373.204 101.734C373.368 101.805 373.543 101.805 373.731 101.734ZM400.274 99.3086C399.946 99.8711 399.688 100.328 399.5 100.68C399.336 101.008 399.161 101.289 398.973 101.523C398.809 101.734 398.61 101.934 398.375 102.121C398.164 102.285 397.86 102.496 397.461 102.754C397.204 102.988 396.946 103.188 396.688 103.352C396.477 103.516 396.266 103.656 396.055 103.773C395.868 103.891 395.715 103.949 395.598 103.949C395.551 103.949 395.504 103.938 395.457 103.914C395.411 103.914 395.364 103.914 395.317 103.914C395.176 103.914 395.036 103.914 394.895 103.914C394.778 103.938 394.672 103.855 394.579 103.668C394.508 103.738 394.45 103.82 394.403 103.914C394.356 104.008 394.309 104.09 394.262 104.16C394.215 104.254 394.145 104.324 394.051 104.371C393.981 104.418 393.875 104.418 393.735 104.371L393.559 104.16L393.032 104.617C392.375 104.289 391.743 104.008 391.133 103.773C390.547 103.562 390.02 103.305 389.551 103C389.082 102.695 388.684 102.309 388.356 101.84C388.028 101.348 387.793 100.68 387.653 99.8359C387.536 99.6953 387.407 99.5781 387.266 99.4844C387.125 99.3672 386.961 99.332 386.774 99.3789C386.539 99.7773 386.258 100.117 385.93 100.398C385.602 100.68 385.274 100.984 384.946 101.312C384.829 101.43 384.735 101.559 384.664 101.699C384.594 101.84 384.5 101.969 384.383 102.086C384.196 102.297 383.973 102.449 383.715 102.543C383.457 102.613 383.2 102.684 382.942 102.754C382.684 102.824 382.438 102.941 382.204 103.105C381.993 103.27 381.84 103.551 381.746 103.949C381.465 103.785 381.184 103.738 380.903 103.809C380.692 103.855 380.469 103.902 380.235 103.949C380 104.02 379.766 104.055 379.532 104.055C379.321 104.078 379.11 104.055 378.899 103.984C378.688 103.914 378.5 103.762 378.336 103.527C378.008 103.668 377.704 103.656 377.422 103.492C377.141 103.352 376.871 103.152 376.614 102.895C376.379 102.613 376.145 102.32 375.911 102.016C375.676 101.711 375.454 101.488 375.243 101.348C375.102 100.973 375.114 100.656 375.278 100.398C375.418 100.117 375.582 99.8594 375.77 99.625C375.934 99.3672 376.051 99.1211 376.121 98.8867C376.192 98.6289 376.086 98.3242 375.805 97.9727C376.039 97.6211 376.25 97.2578 376.438 96.8828C376.625 96.4844 376.813 96.0977 377 95.7227C377.211 95.3242 377.422 94.9492 377.633 94.5977C377.868 94.2227 378.149 93.9062 378.477 93.6484C378.336 93.4844 378.266 93.332 378.266 93.1914C378.266 93.0273 378.301 92.875 378.371 92.7344C378.442 92.5703 378.524 92.418 378.618 92.2773C378.711 92.1133 378.782 91.9609 378.829 91.8203L379.848 91.3281L379.602 90.4844C379.86 90.5312 380.047 90.5195 380.164 90.4492C380.305 90.3789 380.399 90.2734 380.446 90.1328C380.516 89.9922 380.563 89.8398 380.586 89.6758C380.633 89.4883 380.692 89.3242 380.762 89.1836C380.879 88.9727 381.055 88.8203 381.289 88.7266C381.782 88.3516 382.262 87.9531 382.731 87.5312C383.223 87.1094 383.704 86.6992 384.172 86.3008C384.664 85.9023 385.168 85.5273 385.684 85.1758C386.2 84.8008 386.762 84.4844 387.371 84.2266C387.793 84.2969 388.121 84.4258 388.356 84.6133C388.614 84.8008 388.801 85.0234 388.918 85.2812C389.059 85.5391 389.164 85.832 389.235 86.1602C389.305 86.4648 389.375 86.7695 389.446 87.0742C389.563 87.4727 389.704 87.8125 389.868 88.0938C390.032 88.375 390.313 88.6094 390.711 88.7969C390.383 89.3594 390.254 89.9219 390.325 90.4844C390.395 91.0234 390.465 91.5977 390.536 92.207C390.606 92.7695 390.594 93.3203 390.5 93.8594C390.43 94.3984 390.09 94.8789 389.481 95.3008C389.434 95.4648 389.422 95.6406 389.446 95.8281C389.469 96.0156 389.481 96.2031 389.481 96.3906C389.481 96.5781 389.446 96.7539 389.375 96.918C389.305 97.082 389.176 97.2109 388.989 97.3047C389.2 97.5625 389.305 97.8203 389.305 98.0781C389.329 98.3359 389.34 98.582 389.34 98.8164C389.364 99.0508 389.422 99.2617 389.516 99.4492C389.633 99.6367 389.891 99.7773 390.289 99.8711C390.36 100.176 390.418 100.41 390.465 100.574C390.536 100.715 390.606 100.832 390.676 100.926C390.77 101.02 390.887 101.113 391.028 101.207C391.168 101.277 391.356 101.395 391.59 101.559C391.778 101.605 391.989 101.605 392.223 101.559C392.457 101.512 392.645 101.582 392.786 101.77C392.903 101.652 393.043 101.594 393.207 101.594C393.371 101.57 393.524 101.57 393.664 101.594L394.121 102.367C394.379 102.18 394.672 102.016 395 101.875C395.329 101.734 395.645 101.617 395.95 101.523C396.301 101.43 396.653 101.348 397.004 101.277L400.274 99.3086ZM386.774 87.2852C386.563 87.4727 386.305 87.6602 386 87.8477C385.696 88.0352 385.391 88.2344 385.086 88.4453C384.805 88.6562 384.559 88.8906 384.348 89.1484C384.137 89.3828 384.008 89.6641 383.961 89.9922C383.422 90.0859 383.047 90.3086 382.836 90.6602C382.625 91.0117 382.45 91.3984 382.309 91.8203C382.168 92.2422 382.016 92.6641 381.852 93.0859C381.688 93.4844 381.395 93.8008 380.973 94.0352C380.832 94.1289 380.704 94.1758 380.586 94.1758C380.61 94.1758 380.539 94.2227 380.375 94.3164C380.118 94.5039 379.895 94.7383 379.707 95.0195C379.52 95.3008 379.356 95.6055 379.215 95.9336C379.098 96.2617 378.981 96.6016 378.864 96.9531C378.77 97.2812 378.676 97.5859 378.582 97.8672C378.254 97.9141 378.008 97.9844 377.844 98.0781C377.68 98.1719 377.575 98.2773 377.528 98.3945C377.504 98.4883 377.516 98.6055 377.563 98.7461C377.61 98.8867 377.68 99.0391 377.774 99.2031C377.868 99.3438 377.961 99.5078 378.055 99.6953C378.172 99.8828 378.266 100.07 378.336 100.258C378.407 100.445 378.442 100.633 378.442 100.82C378.465 101.008 378.418 101.184 378.301 101.348C378.629 101.605 378.946 101.664 379.25 101.523C379.555 101.359 379.836 101.184 380.094 100.996C380.188 100.926 380.282 100.855 380.375 100.785C380.493 100.691 380.61 100.621 380.727 100.574C381.266 100.691 381.758 100.656 382.204 100.469C382.649 100.281 383.059 100.023 383.434 99.6953C383.809 99.3672 384.172 99.0156 384.524 98.6406C384.875 98.2656 385.227 97.9375 385.579 97.6562L385.297 97.375C385.719 97.2578 386.012 97.1055 386.176 96.918C386.364 96.707 386.481 96.4727 386.528 96.2148C386.575 95.957 386.575 95.6875 386.528 95.4062C386.481 95.1016 386.446 94.7852 386.422 94.457C386.399 94.2695 386.387 94.0938 386.387 93.9297C386.411 93.7422 386.457 93.5547 386.528 93.3672C386.34 92.8281 386.305 92.3125 386.422 91.8203C386.563 91.3281 386.739 90.8594 386.95 90.4141C387.184 89.9453 387.407 89.4766 387.618 89.0078C387.829 88.5391 387.934 88.0469 387.934 87.5312L386.774 87.2852ZM448.696 55.9375C448.258 56.5625 447.789 57.1562 447.289 57.7188C446.821 58.25 446.227 58.6719 445.508 58.9844C445.133 61.1406 444.821 63.3125 444.571 65.5C444.352 67.6875 444.102 69.875 443.821 72.0625C443.571 74.25 443.274 76.4375 442.93 78.625C442.618 80.7812 442.18 82.9219 441.618 85.0469L441.664 85.6094C441.727 86.2344 441.649 86.8281 441.43 87.3906C441.211 87.9531 441.118 88.5625 441.149 89.2188C440.711 90.3125 440.336 91.5312 440.024 92.875C439.711 94.1875 439.524 95.4375 439.461 96.625C439.149 97.1562 438.883 97.7344 438.664 98.3594C438.477 98.9844 438.274 99.625 438.055 100.281C437.868 100.906 437.649 101.516 437.399 102.109C437.149 102.672 436.821 103.188 436.414 103.656C436.321 104.375 436.133 105.047 435.852 105.672C435.602 106.328 435.305 106.969 434.961 107.594C434.649 108.219 434.336 108.828 434.024 109.422C433.743 110.047 433.539 110.703 433.414 111.391C432.883 112.203 432.352 112.984 431.821 113.734C431.289 114.516 430.805 115.328 430.368 116.172C429.961 116.359 429.602 116.562 429.289 116.781C429.008 117.031 428.727 117.25 428.446 117.438C428.164 117.656 427.836 117.844 427.461 118C427.118 118.156 426.696 118.234 426.196 118.234C426.071 118.234 425.946 118.219 425.821 118.188C425.727 118.188 425.618 118.188 425.493 118.188C425.055 117.844 424.618 117.5 424.18 117.156C423.743 116.844 423.274 116.562 422.774 116.312C422.774 116.125 422.743 115.969 422.68 115.844C422.649 115.719 422.618 115.594 422.586 115.469C422.555 115.344 422.539 115.219 422.539 115.094C422.539 114.969 422.571 114.812 422.633 114.625C422.352 114.438 422.024 114.094 421.649 113.594C421.305 113.125 421.133 112.719 421.133 112.375C421.133 112.062 421.243 111.906 421.461 111.906C421.399 111.594 421.289 111.281 421.133 110.969C421.008 110.688 420.946 110.391 420.946 110.078C420.946 109.859 421.008 109.625 421.133 109.375C420.789 108.562 420.477 107.719 420.196 106.844C419.914 106 419.727 105.125 419.633 104.219C419.321 103.812 419.071 103.344 418.883 102.812C418.727 102.25 418.602 101.672 418.508 101.078C418.414 100.484 418.336 99.9062 418.274 99.3438C418.211 98.75 418.133 98.2031 418.039 97.7031C418.008 97.5156 417.93 97.2188 417.805 96.8125C417.68 96.375 417.618 96.0781 417.618 95.9219C417.618 95.7344 417.649 95.5938 417.711 95.5C417.805 95.4062 417.883 95.2812 417.946 95.125C417.571 93.625 417.258 92.1094 417.008 90.5781C416.789 89.0469 416.571 87.5156 416.352 85.9844C416.164 84.4531 415.93 82.9375 415.649 81.4375C415.399 79.9062 415.039 78.4062 414.571 76.9375V76.5156C414.571 75.5156 414.18 74.7188 413.399 74.125C413.555 73.6562 413.633 73.2656 413.633 72.9531C413.633 72.5469 413.571 72.1562 413.446 71.7812C413.352 71.4062 413.243 71.0312 413.118 70.6562C412.993 70.2812 412.899 69.9062 412.836 69.5312C412.805 69.1562 412.836 68.7812 412.93 68.4062C412.586 68.0312 412.305 67.625 412.086 67.1875C411.868 66.75 411.586 66.375 411.243 66.0625L411.196 65.7812C411.196 65.625 411.243 65.4844 411.336 65.3594C411.399 65.2344 411.43 65.0938 411.43 64.9375C411.43 64.7188 411.383 64.5312 411.289 64.375C411.164 64.2188 411.039 64.0781 410.914 63.9531C410.758 63.8281 410.633 63.7031 410.539 63.5781C410.414 63.4531 410.352 63.3125 410.352 63.1562C410.352 62.7812 410.477 62.4844 410.727 62.2656C410.977 62.0469 411.258 61.8594 411.571 61.7031C411.883 61.5156 412.18 61.3281 412.461 61.1406C412.774 60.9531 412.977 60.6875 413.071 60.3438C413.321 60.4062 413.571 60.4531 413.821 60.4844C414.071 60.4844 414.321 60.5469 414.571 60.6719C414.602 60.6406 414.618 60.5938 414.618 60.5312C414.618 60.4375 414.461 60.3594 414.149 60.2969C413.868 60.2031 413.68 60.0938 413.586 59.9688C413.836 59.9062 414.024 59.875 414.149 59.875C414.774 59.875 415.368 60.0312 415.93 60.3438C416.524 60.6562 417.086 60.9844 417.618 61.3281C417.68 61.6094 417.696 61.9062 417.664 62.2188C417.633 62.5 417.727 62.7656 417.946 63.0156C417.914 63.1719 417.899 63.3125 417.899 63.4375C417.93 63.5625 417.946 63.6875 417.946 63.8125C417.946 63.9688 417.914 64.1094 417.852 64.2344C417.821 64.3281 417.743 64.375 417.618 64.375C417.836 64.75 417.977 65.2031 418.039 65.7344C418.133 66.2656 418.211 66.8125 418.274 67.375C418.368 67.9375 418.477 68.4844 418.602 69.0156C418.727 69.5469 418.961 70.0156 419.305 70.4219C419.243 70.6094 419.196 70.7969 419.164 70.9844C419.164 71.1719 419.164 71.375 419.164 71.5938C419.164 72.5938 419.289 73.5781 419.539 74.5469C419.789 75.5156 419.914 76.5 419.914 77.5C419.914 78.0938 419.821 78.6406 419.633 79.1406C419.633 79.4219 419.727 79.6562 419.914 79.8438C420.102 80 420.227 80.2188 420.289 80.5C420.133 80.875 420.055 81.2344 420.055 81.5781C420.055 82.2969 420.196 82.9844 420.477 83.6406C420.758 84.2656 420.899 84.9219 420.899 85.6094C420.899 85.8281 420.868 86.0312 420.805 86.2188C420.743 86.4062 420.68 86.5781 420.618 86.7344C420.899 87.0156 421.039 87.375 421.039 87.8125C421.071 88.25 421.211 88.6094 421.461 88.8906C421.43 89.0469 421.399 89.2031 421.368 89.3594C421.368 89.5156 421.289 89.6406 421.133 89.7344C421.289 89.9531 421.368 90.25 421.368 90.625C421.399 90.9688 421.539 91.1719 421.789 91.2344C421.727 91.3906 421.68 91.5312 421.649 91.6562C421.618 91.7812 421.602 91.9219 421.602 92.0781C421.602 92.4219 421.649 92.7344 421.743 93.0156L422.024 93.8594C422.118 94.1406 422.18 94.4375 422.211 94.75C422.274 95.0625 422.243 95.4062 422.118 95.7812C422.243 95.9688 422.336 96.1875 422.399 96.4375C422.493 96.6875 422.571 96.9531 422.633 97.2344C422.696 97.4844 422.789 97.7188 422.914 97.9375C423.039 98.125 423.227 98.25 423.477 98.3125C423.508 98.5 423.43 98.5938 423.243 98.5938C423.086 98.5938 423.008 98.6719 423.008 98.8281C423.008 99.0781 423.102 99.3906 423.289 99.7656C423.477 100.109 423.649 100.359 423.805 100.516C423.774 100.641 423.758 100.766 423.758 100.891V101.312C423.758 101.75 423.821 102.203 423.946 102.672C424.071 103.109 424.18 103.547 424.274 103.984C424.399 104.453 424.493 104.906 424.555 105.344C424.618 105.781 424.586 106.188 424.461 106.562C424.711 107 424.93 107.469 425.118 107.969C425.305 108.469 425.602 108.891 426.008 109.234C426.008 109.766 426.118 110.266 426.336 110.734C426.555 111.234 426.836 111.703 427.18 112.141C427.493 112.141 427.727 112.031 427.883 111.812C428.039 111.625 428.164 111.406 428.258 111.156C428.352 110.906 428.461 110.672 428.586 110.453C428.711 110.234 428.914 110.109 429.196 110.078C429.227 109.766 429.305 109.5 429.43 109.281C429.586 109.094 429.727 108.891 429.852 108.672C430.008 108.453 430.133 108.219 430.227 107.969C430.352 107.719 430.399 107.406 430.368 107.031L430.883 106.891C431.039 106.047 431.274 105.281 431.586 104.594C431.93 103.938 432.305 103.25 432.711 102.531V102.297C432.711 101.984 432.758 101.719 432.852 101.5C432.946 101.281 432.961 101 432.899 100.656C433.118 100.594 433.274 100.469 433.368 100.281C433.461 100.094 433.539 99.9062 433.602 99.7188C433.664 99.5 433.727 99.2969 433.789 99.1094C433.883 98.8906 434.024 98.7344 434.211 98.6406V98.2656C434.18 97.9844 434.196 97.7188 434.258 97.4688C434.352 97.1875 434.336 96.9062 434.211 96.625C434.461 96.5312 434.649 96.375 434.774 96.1562C434.899 95.9375 434.993 95.7031 435.055 95.4531C435.149 95.2031 435.196 94.9375 435.196 94.6562C435.227 94.375 435.243 94.125 435.243 93.9062C435.461 93.625 435.618 93.2969 435.711 92.9219C435.805 92.5156 435.883 92.1094 435.946 91.7031C436.008 91.2969 436.086 90.9062 436.18 90.5312C436.305 90.1562 436.493 89.8281 436.743 89.5469C436.68 89.3906 436.649 89.25 436.649 89.125V88.7031C436.649 88.1094 436.743 87.5781 436.93 87.1094C437.118 86.6094 437.289 86.0781 437.446 85.5156C437.852 84.1094 438.133 82.6719 438.289 81.2031C438.477 79.7031 438.743 78.2344 439.086 76.7969C439.118 76.6406 439.18 76.3906 439.274 76.0469C439.368 75.7031 439.461 75.3594 439.555 75.0156C439.649 74.6406 439.727 74.3125 439.789 74.0312C439.883 73.7188 439.93 73.5156 439.93 73.4219C439.93 73.1719 439.868 73 439.743 72.9062C439.649 72.8125 439.602 72.6562 439.602 72.4375C439.789 72.1562 439.914 71.7969 439.977 71.3594C440.039 70.9219 440.086 70.4688 440.118 70C440.149 69.5 440.149 69.0312 440.118 68.5938C440.118 68.125 440.118 67.7188 440.118 67.375C440.118 67.0312 440.196 66.5938 440.352 66.0625C440.508 65.5312 440.618 65.0625 440.68 64.6562C440.836 63.5938 440.93 62.5469 440.961 61.5156C441.024 60.4531 441.086 59.3906 441.149 58.3281C441.368 58.2031 441.524 58.0469 441.618 57.8594C441.711 57.6406 441.758 57.4219 441.758 57.2031C441.758 56.8594 441.711 56.5312 441.618 56.2188C441.555 55.9062 441.524 55.5781 441.524 55.2344C441.524 55.0781 441.539 54.9219 441.571 54.7656C441.602 54.5781 441.68 54.4219 441.805 54.2969C441.774 54.0781 441.743 53.8594 441.711 53.6406C441.711 53.4219 441.633 53.2344 441.477 53.0781C441.633 52.6719 441.711 52.2656 441.711 51.8594C441.711 51.4844 441.664 51.1094 441.571 50.7344C441.508 50.3594 441.477 49.9688 441.477 49.5625C441.477 48.7812 441.805 48.2188 442.461 47.875H443.118C443.43 47.875 443.743 47.8594 444.055 47.8281C444.368 47.7969 444.696 47.7031 445.039 47.5469C445.446 47.9844 445.868 48.4688 446.305 49C446.743 49.5 447.118 50.0469 447.43 50.6406C447.743 51.2344 447.977 51.8438 448.133 52.4688C448.289 53.0938 448.305 53.75 448.18 54.4375C448.305 54.6875 448.383 54.9375 448.414 55.1875C448.446 55.4375 448.539 55.6875 448.696 55.9375ZM439.133 81.4844C439.008 81.4531 438.914 81.4062 438.852 81.3438C438.821 81.25 438.727 81.1875 438.571 81.1562V81.6719H438.946L439.133 81.4844ZM457.508 81.0625C457.086 81.2266 456.852 81.4727 456.805 81.8008C456.758 82.1289 456.735 82.4688 456.735 82.8203C456.758 83.1719 456.746 83.5 456.7 83.8047C456.653 84.1094 456.418 84.3086 455.996 84.4023C455.832 84.1211 455.621 83.8633 455.364 83.6289C455.129 83.3711 454.895 83.125 454.661 82.8906C454.426 82.6328 454.239 82.3633 454.098 82.082C453.957 81.8008 453.911 81.4609 453.957 81.0625L455.715 79.0234C455.996 79.1172 456.219 79.2344 456.383 79.375C456.547 79.5156 456.688 79.6797 456.805 79.8672C456.922 80.0547 457.028 80.2539 457.121 80.4648C457.239 80.6523 457.368 80.8516 457.508 81.0625ZM464.329 96.8125C464.352 97.3281 464.305 97.6914 464.188 97.9023C464.094 98.1133 463.977 98.2891 463.836 98.4297C463.696 98.5469 463.567 98.6875 463.45 98.8516C463.356 98.9922 463.309 99.25 463.309 99.625C462.77 100.211 462.336 100.645 462.008 100.926C461.68 101.184 461.364 101.406 461.059 101.594C460.754 101.758 460.414 101.945 460.039 102.156C459.664 102.367 459.149 102.695 458.493 103.141L458.246 103.176C458.176 103.527 458.047 103.727 457.86 103.773C457.696 103.844 457.496 103.879 457.262 103.879C457.051 103.879 456.84 103.902 456.629 103.949C456.418 103.996 456.243 104.195 456.102 104.547C455.704 104.664 455.364 104.711 455.082 104.688C454.801 104.664 454.438 104.652 453.993 104.652C453.852 104.652 453.664 104.641 453.43 104.617C453.219 104.594 453.043 104.605 452.903 104.652C452.809 104.676 452.704 104.734 452.586 104.828C452.493 104.945 452.387 105.039 452.27 105.109C452.153 105.18 452.036 105.203 451.918 105.18C451.801 105.18 451.696 105.086 451.602 104.898C451.321 104.969 451.063 104.969 450.829 104.898C450.594 104.828 450.371 104.711 450.161 104.547C449.95 104.383 449.75 104.184 449.563 103.949C449.399 103.738 449.235 103.539 449.071 103.352C448.954 103.211 448.825 103.082 448.684 102.965C448.543 102.848 448.414 102.73 448.297 102.613C448.039 102.355 447.852 102.027 447.735 101.629C447.618 101.23 447.547 100.82 447.524 100.398C447.5 99.9766 447.512 99.5547 447.559 99.1328C447.606 98.7109 447.676 98.3359 447.77 98.0078C447.981 97.7969 448.133 97.5625 448.227 97.3047C448.297 97.0234 448.356 96.7422 448.403 96.4609C448.473 96.1797 448.543 95.9102 448.614 95.6523C448.707 95.3711 448.86 95.125 449.071 94.9141C449.071 94.6094 449.118 94.3281 449.211 94.0703C449.329 93.8125 449.469 93.5664 449.633 93.332C449.821 93.0977 450.02 92.8867 450.231 92.6992C450.465 92.4883 450.676 92.2891 450.864 92.1016C451.051 92.1016 451.239 92.1016 451.426 92.1016C451.614 92.0781 451.789 92.0898 451.954 92.1367C452.118 92.1602 452.258 92.2305 452.375 92.3477C452.493 92.4414 452.586 92.6055 452.657 92.8398C452.821 93.4727 452.774 93.9883 452.516 94.3867C452.282 94.7617 452.012 95.125 451.707 95.4766C451.403 95.8281 451.157 96.1914 450.969 96.5664C450.782 96.9414 450.829 97.4219 451.11 98.0078C450.852 98.0078 450.676 98.0781 450.582 98.2188C450.512 98.3594 450.454 98.5234 450.407 98.7109C450.383 98.875 450.336 99.0391 450.266 99.2031C450.196 99.3672 450.055 99.4844 449.844 99.5547C449.985 99.6953 450.055 99.9414 450.055 100.293C450.079 100.645 450.114 100.984 450.161 101.312C450.231 101.617 450.336 101.863 450.477 102.051C450.641 102.238 450.934 102.25 451.356 102.086C451.661 102.344 452.024 102.449 452.446 102.402C452.891 102.355 453.301 102.344 453.676 102.367C454.004 102.156 454.286 102.051 454.52 102.051C454.754 102.027 454.977 102.051 455.188 102.121C455.399 102.168 455.621 102.215 455.856 102.262C456.09 102.309 456.371 102.273 456.7 102.156C456.793 101.758 456.957 101.523 457.192 101.453C457.426 101.383 457.661 101.348 457.895 101.348C458.129 101.324 458.34 101.277 458.528 101.207C458.739 101.137 458.879 100.902 458.95 100.504C459.137 100.27 459.36 100.141 459.618 100.117C459.875 100.07 460.133 100.023 460.391 99.9766C460.672 99.9297 460.918 99.8359 461.129 99.6953C461.364 99.5312 461.528 99.2266 461.621 98.7812C462.02 98.4766 462.301 98.2539 462.465 98.1133C462.653 97.9492 462.805 97.8203 462.922 97.7266C463.039 97.6328 463.192 97.5273 463.379 97.4102C463.567 97.293 463.883 97.0938 464.329 96.8125ZM487.848 92.2422C487.637 92.4531 487.473 92.6172 487.356 92.7344C487.262 92.8516 487.168 92.9688 487.075 93.0859C487.004 93.1797 486.911 93.2852 486.793 93.4023C486.7 93.5195 486.547 93.6953 486.336 93.9297C486.149 94.1172 485.973 94.3164 485.809 94.5273C485.645 94.7383 485.457 94.9258 485.246 95.0898C484.965 95.0195 484.743 95.0547 484.579 95.1953C484.438 95.3359 484.297 95.5 484.157 95.6875C484.039 95.8516 483.922 96.0156 483.805 96.1797C483.711 96.3203 483.582 96.3789 483.418 96.3555C482.856 96.6602 482.293 96.9297 481.731 97.1641C481.168 97.375 480.629 97.6914 480.114 98.1133L479.832 97.832L476.176 99.5898C476.059 99.6367 475.942 99.707 475.825 99.8008C475.707 99.8945 475.59 99.9766 475.473 100.047C474.957 100.328 474.418 100.586 473.856 100.82C473.317 101.031 472.778 101.23 472.239 101.418L471.782 101.559C471.969 102.027 471.969 102.355 471.782 102.543C471.594 102.73 471.325 102.871 470.973 102.965C470.621 103.035 470.235 103.082 469.813 103.105C469.391 103.129 469.063 103.211 468.829 103.352C468.547 103.305 468.254 103.281 467.95 103.281C467.668 103.305 467.375 103.34 467.071 103.387C466.743 103.434 466.438 103.457 466.157 103.457C465.875 103.457 465.571 103.422 465.243 103.352H465.172C464.774 103.539 464.422 103.574 464.118 103.457C463.836 103.363 463.579 103.199 463.344 102.965C463.11 102.707 462.887 102.414 462.676 102.086C462.489 101.734 462.289 101.418 462.079 101.137C461.938 100.949 461.762 100.68 461.551 100.328C461.34 99.9766 461.164 99.6016 461.024 99.2031C460.86 98.8047 460.766 98.4062 460.743 98.0078C460.696 97.5859 460.778 97.2227 460.989 96.918C461.2 96.6133 461.375 96.2852 461.516 95.9336C461.633 95.582 461.692 95.1719 461.692 94.7031C461.692 94.5391 461.692 94.3867 461.692 94.2461C461.668 94.1055 461.657 93.9531 461.657 93.7891C461.774 93.7891 461.903 93.8008 462.043 93.8242C462.184 93.8242 462.313 93.8242 462.43 93.8242C462.571 93.8008 462.676 93.7539 462.746 93.6836C462.84 93.5898 462.887 93.4375 462.887 93.2266C462.887 93.1094 462.84 93.0156 462.746 92.9453C462.676 92.875 462.629 92.8047 462.606 92.7344C462.746 92.5234 462.875 92.3594 462.993 92.2422C463.133 92.1016 463.25 91.9727 463.344 91.8555C463.438 91.7148 463.508 91.5625 463.555 91.3984C463.602 91.2109 463.59 90.9648 463.52 90.6602C463.801 90.168 464.129 89.7344 464.504 89.3594C464.903 88.9609 465.313 88.5977 465.735 88.2695C466.157 87.918 466.59 87.5781 467.036 87.25C467.481 86.9219 467.903 86.5703 468.301 86.1953C468.746 86.3828 469.098 86.3828 469.356 86.1953C469.637 86.0078 469.883 85.8086 470.094 85.5977C470.305 85.3633 470.516 85.1758 470.727 85.0352C470.938 84.8945 471.219 84.9531 471.571 85.2109L471.641 85.2812C472.274 84.6484 472.907 84.3672 473.539 84.4375C474.196 84.5078 474.746 84.7188 475.192 85.0703C475.661 85.4219 475.965 85.832 476.106 86.3008C476.246 86.7461 476.118 87.0508 475.719 87.2148C475.977 87.4727 476.106 87.7773 476.106 88.1289C476.106 88.4805 476.012 88.7852 475.825 89.043C475.614 89.3242 475.426 89.6172 475.262 89.9219C475.121 90.2031 474.969 90.5078 474.805 90.8359C474.571 91.375 474.313 91.8906 474.032 92.3828C473.75 92.8516 473.352 93.25 472.836 93.5781C472.414 93.4609 472.121 93.5078 471.957 93.7188C471.817 93.9297 471.711 94.1641 471.641 94.4219C471.571 94.6562 471.489 94.8438 471.395 94.9844C471.301 95.125 471.102 95.0781 470.797 94.8438L470.727 94.7734L470.657 94.8438C470.469 95.0312 470.317 95.2422 470.2 95.4766C470.106 95.7109 469.965 95.8867 469.778 96.0039C469.567 95.9336 469.344 95.875 469.11 95.8281C468.875 95.7812 468.653 95.7344 468.442 95.6875C468.442 96.1797 468.348 96.5664 468.161 96.8477C467.973 97.1289 467.727 97.3633 467.422 97.5508C467.141 97.7148 466.813 97.8555 466.438 97.9727C466.063 98.0664 465.688 98.1953 465.313 98.3594C464.961 98.5 464.621 98.6875 464.293 98.9219C463.989 99.1328 463.743 99.4375 463.555 99.8359C463.789 100.094 464.082 100.246 464.434 100.293C464.786 100.316 465.149 100.316 465.524 100.293C465.899 100.246 466.262 100.223 466.614 100.223C466.989 100.223 467.317 100.316 467.598 100.504L467.633 100.539L467.668 100.504C468.231 100.434 468.77 100.305 469.286 100.117C469.825 99.9062 470.34 99.6953 470.832 99.4844C471.348 99.25 471.864 99.0391 472.379 98.8516C472.918 98.6406 473.469 98.4883 474.032 98.3945C474.149 98.582 474.301 98.6875 474.489 98.7109C474.7 98.7344 474.899 98.7227 475.086 98.6758L475.121 98.6055C475.168 98.4414 475.215 98.3008 475.262 98.1836C475.309 98.043 475.379 97.8906 475.473 97.7266C475.637 97.4688 475.836 97.2695 476.071 97.1289C476.305 96.9883 476.551 96.8828 476.809 96.8125C477.09 96.7422 477.383 96.6953 477.688 96.6719C477.993 96.6484 478.297 96.6133 478.602 96.5664H478.672L478.707 96.4609C478.801 96.1797 478.918 95.9922 479.059 95.8984C479.223 95.7812 479.387 95.6992 479.551 95.6523C479.739 95.6055 479.926 95.5703 480.114 95.5469C480.325 95.5234 480.524 95.4531 480.711 95.3359C481.133 95.4766 481.485 95.4297 481.766 95.1953C482.047 94.9609 482.317 94.7148 482.575 94.457L482.856 94.8086L482.961 94.668C483.313 94.3398 483.571 94.0938 483.735 93.9297C483.922 93.7656 484.098 93.625 484.262 93.5078C484.426 93.3672 484.614 93.2383 484.825 93.1211C485.059 92.9805 485.375 92.7812 485.774 92.5234C486.102 92.3125 486.418 92.1016 486.723 91.8906C487.051 91.6797 487.368 91.4453 487.672 91.1875C487.789 91.2344 487.848 91.3281 487.848 91.4688C487.848 91.5859 487.848 91.7031 487.848 91.8203C487.825 91.8672 487.801 91.9375 487.778 92.0312C487.778 92.125 487.801 92.1953 487.848 92.2422ZM473.293 87.8477C473.27 87.8242 473.246 87.8125 473.223 87.8125C473.223 87.8125 473.211 87.8008 473.188 87.7773C472.696 87.5195 472.286 87.4023 471.957 87.4258C471.629 87.4258 471.325 87.5195 471.043 87.707C470.786 87.8711 470.539 88.0938 470.305 88.375C470.094 88.6328 469.86 88.8789 469.602 89.1133C469.368 89.3242 469.086 89.4883 468.758 89.6055C468.43 89.7227 468.032 89.7109 467.563 89.5703C467.493 89.9453 467.422 90.3203 467.352 90.6953C467.305 91.0469 467.27 91.4102 467.246 91.7852C466.848 91.9258 466.532 92.125 466.297 92.3828C466.086 92.6406 465.899 92.9219 465.735 93.2266C465.594 93.5312 465.454 93.8594 465.313 94.2109C465.196 94.5391 465.032 94.8555 464.821 95.1602L464.961 95.3359C465.055 95.2891 465.161 95.3242 465.278 95.4414C465.395 95.5586 465.477 95.6406 465.524 95.6875C465.782 95.3125 466.121 94.9961 466.543 94.7383C466.989 94.4805 467.434 94.2461 467.879 94.0352C468.348 93.8008 468.793 93.5547 469.215 93.2969C469.637 93.0391 469.954 92.6992 470.164 92.2773C470.914 92.0664 471.477 91.6445 471.852 91.0117C472.227 90.3789 472.543 89.7227 472.801 89.043C472.848 88.9023 472.93 88.7031 473.047 88.4453C473.188 88.1641 473.27 87.9648 473.293 87.8477ZM508.168 96.0391C507.629 96.2969 507.266 96.6133 507.079 96.9883C506.891 97.3633 506.739 97.75 506.621 98.1484C506.528 98.5469 506.399 98.9336 506.235 99.3086C506.094 99.6602 505.778 99.9531 505.286 100.188C505.168 100.609 504.934 100.902 504.582 101.066C504.254 101.23 503.903 101.383 503.528 101.523C503.153 101.641 502.813 101.805 502.508 102.016C502.227 102.227 502.086 102.59 502.086 103.105C501.618 103.363 501.102 103.598 500.539 103.809C500 104.02 499.426 104.172 498.817 104.266C498.231 104.383 497.645 104.43 497.059 104.406C496.473 104.383 495.922 104.266 495.407 104.055C495.055 103.891 494.715 103.68 494.387 103.422C494.27 103.328 494.153 103.246 494.036 103.176C493.942 103.129 493.836 103.047 493.719 102.93C493.438 102.648 493.204 102.32 493.016 101.945C492.829 101.57 492.676 101.172 492.559 100.75C492.442 100.328 492.348 99.9062 492.278 99.4844C492.207 99.0625 492.149 98.6641 492.102 98.2891L493.403 94.7734C492.723 94.2344 492.172 93.6133 491.75 92.9102C491.329 92.1836 490.813 91.5156 490.204 90.9062C490.086 91.0703 489.934 91.2109 489.746 91.3281C489.559 91.4453 489.489 91.6328 489.536 91.8906L489.887 92.207C489.114 93.0508 488.329 94.0117 487.532 95.0898C486.758 96.1445 486.149 97.2109 485.704 98.2891C485.188 98.2656 484.825 98.3945 484.614 98.6758C484.403 98.9336 484.227 99.2383 484.086 99.5898C483.946 99.918 483.77 100.223 483.559 100.504C483.348 100.785 482.996 100.902 482.504 100.855C482.387 101.113 482.27 101.395 482.153 101.699C482.036 101.98 481.895 102.25 481.731 102.508C481.567 102.766 481.368 102.977 481.133 103.141C480.899 103.328 480.606 103.422 480.254 103.422C480.067 103.234 479.961 103.035 479.938 102.824C479.914 102.613 479.938 102.402 480.008 102.191C480.079 101.957 480.172 101.734 480.289 101.523C480.407 101.289 480.489 101.066 480.536 100.855C480.723 100.176 481.063 99.5664 481.555 99.0273C482.047 98.4648 482.539 97.9141 483.032 97.375C483.524 96.8125 483.946 96.2266 484.297 95.6172C484.649 95.0078 484.789 94.293 484.719 93.4727C485.024 93.4492 485.329 93.3906 485.633 93.2969C485.961 93.1797 486.254 93.0391 486.512 92.875C486.793 92.6875 487.004 92.4648 487.145 92.207C487.309 91.9258 487.368 91.5977 487.321 91.2227C487.133 91.1289 487.028 91 487.004 90.8359C486.981 90.6484 486.981 90.4609 487.004 90.2734C487.52 90.1094 487.93 89.8281 488.235 89.4297C488.563 89.0078 488.856 88.5625 489.114 88.0938C489.371 87.625 489.618 87.1562 489.852 86.6875C490.11 86.1953 490.438 85.7734 490.836 85.4219C491.164 85.6094 491.493 85.7734 491.821 85.9141C492.149 86.0312 492.465 86.1953 492.77 86.4062C492.559 86.6875 492.43 86.957 492.383 87.2148C492.336 87.4727 492.313 87.7422 492.313 88.0234C492.313 88.2812 492.313 88.5391 492.313 88.7969C492.313 89.0547 492.243 89.3242 492.102 89.6055C492.477 89.9336 492.793 90.3203 493.051 90.7656C493.309 91.2109 493.637 91.5859 494.036 91.8906C494.317 91.6797 494.633 91.5742 494.985 91.5742C495.336 91.5508 495.688 91.5508 496.039 91.5742C496.414 91.5742 496.766 91.5508 497.094 91.5039C497.422 91.4336 497.692 91.2344 497.903 90.9062C497.996 91 498.137 91.0469 498.325 91.0469C498.512 91.0469 498.7 91.0469 498.887 91.0469C499.075 91.0469 499.239 91.082 499.379 91.1523C499.52 91.1992 499.602 91.3047 499.625 91.4688C499.649 91.6562 499.637 91.7852 499.59 91.8555C499.567 91.9258 499.532 92.043 499.485 92.207C499.438 92.3945 499.426 92.4883 499.45 92.4883C499.473 92.4883 499.45 92.5703 499.379 92.7344C499.262 93.0391 499.063 93.2969 498.782 93.5078C498.524 93.7188 498.254 93.9297 497.973 94.1406C497.715 94.3281 497.469 94.5508 497.235 94.8086C497.024 95.043 496.918 95.3477 496.918 95.7227C496.403 95.9102 496.039 96.1914 495.829 96.5664C495.618 96.918 495.477 97.3281 495.407 97.7969C495.336 98.2422 495.289 98.7109 495.266 99.2031C495.243 99.6719 495.161 100.105 495.02 100.504L495.336 100.855L495.618 100.504C495.946 100.973 496.332 101.266 496.778 101.383C497.246 101.5 497.727 101.535 498.219 101.488C498.454 101.137 498.723 100.855 499.028 100.645C499.356 100.434 499.696 100.258 500.047 100.117C500.422 99.9766 500.797 99.8477 501.172 99.7305C501.571 99.6133 501.946 99.4727 502.297 99.3086C502.579 99.168 502.813 99.0156 503 98.8516C503.211 98.6875 503.434 98.5 503.668 98.2891C504.371 97.6328 505.063 96.9883 505.743 96.3555C506.446 95.7227 507.149 95.0781 507.852 94.4219C507.993 94.4219 508.086 94.4922 508.133 94.6328C508.18 94.7734 508.204 94.9375 508.204 95.125C508.204 95.2891 508.192 95.4648 508.168 95.6523C508.168 95.8164 508.168 95.9453 508.168 96.0391ZM530.668 101.242C530.387 101.242 530.164 101.254 530 101.277C529.86 101.277 529.731 101.289 529.614 101.312C529.496 101.336 529.368 101.383 529.227 101.453C529.086 101.523 528.899 101.629 528.664 101.77C528.571 102.027 528.442 102.227 528.278 102.367C528.137 102.484 527.961 102.59 527.75 102.684C527.563 102.754 527.364 102.836 527.153 102.93C526.942 103 526.743 103.129 526.555 103.316C524.774 103.598 523.204 103.199 521.844 102.121C521.68 102.004 521.528 101.875 521.387 101.734C521.27 101.594 521.129 101.465 520.965 101.348C520.848 101.254 520.778 101.219 520.754 101.242C520.754 101.242 520.707 101.184 520.614 101.066C520.45 100.832 520.344 100.551 520.297 100.223C520.274 99.8711 520.227 99.543 520.157 99.2383C520.086 98.9102 519.946 98.6406 519.735 98.4297C519.547 98.1953 519.207 98.0898 518.715 98.1133C518.481 98.6055 518.141 99.1094 517.696 99.625C517.274 100.117 516.793 100.562 516.254 100.961C515.715 101.359 515.141 101.688 514.532 101.945C513.946 102.203 513.383 102.332 512.844 102.332C512.657 102.871 512.329 103.27 511.86 103.527C511.414 103.809 510.934 104.02 510.418 104.16C510.371 104.184 510.278 104.207 510.137 104.23C509.996 104.277 509.914 104.301 509.891 104.301C509.563 104.324 509.305 104.266 509.118 104.125C508.93 103.984 508.754 103.832 508.59 103.668C508.426 103.504 508.25 103.352 508.063 103.211C507.875 103.07 507.618 103 507.289 103C507.032 102.391 506.774 101.793 506.516 101.207C506.258 100.621 506.071 100.023 505.954 99.4141C506.164 99.2969 506.282 99.1562 506.305 98.9922C506.305 98.8047 506.305 98.6172 506.305 98.4297C505.93 98.3125 505.743 98.1719 505.743 98.0078C505.719 97.8203 505.754 97.6328 505.848 97.4453C505.918 97.2578 506 97.082 506.094 96.918C506.164 96.7305 506.118 96.5781 505.954 96.4609C506.141 95.0312 506.551 93.6484 507.184 92.3125C507.817 90.9766 508.719 89.8633 509.891 88.9727C509.75 88.5273 509.786 88.1875 509.996 87.9531C510.231 87.7188 510.5 87.5898 510.805 87.5664C511.133 87.543 511.438 87.625 511.719 87.8125C512.024 87.9766 512.176 88.2461 512.176 88.6211C512.2 88.7852 512.188 88.9492 512.141 89.1133C512.094 89.2773 512.047 89.4297 512 89.5703C511.86 90.2734 511.649 90.9531 511.368 91.6094C511.086 92.2656 510.782 92.9102 510.454 93.543C510.125 94.1758 509.786 94.8086 509.434 95.4414C509.106 96.0742 508.825 96.7305 508.59 97.4102C508.309 97.5977 508.215 97.7969 508.309 98.0078C508.403 98.2188 508.52 98.4297 508.661 98.6406C508.825 98.8281 508.907 99.0156 508.907 99.2031C508.93 99.3906 508.719 99.5664 508.274 99.7305C508.133 100.059 508.168 100.352 508.379 100.609C508.59 100.844 508.766 101.09 508.907 101.348C509.094 101.371 509.27 101.371 509.434 101.348C509.621 101.324 509.774 101.219 509.891 101.031C510.172 101.219 510.418 101.254 510.629 101.137C510.864 101.02 511.098 100.879 511.332 100.715C511.59 100.527 511.86 100.375 512.141 100.258C512.446 100.141 512.786 100.176 513.161 100.363C513.325 100.199 513.454 100 513.547 99.7656C513.664 99.5312 513.782 99.3086 513.899 99.0977C514.016 98.8867 514.157 98.7109 514.321 98.5703C514.508 98.4297 514.766 98.3828 515.094 98.4297C515.422 97.8438 515.856 97.3633 516.395 96.9883C516.934 96.5898 517.473 96.2148 518.012 95.8633C518.575 95.5117 519.067 95.1367 519.489 94.7383C519.934 94.3398 520.215 93.8242 520.332 93.1914C520.778 92.4883 521.223 91.7031 521.668 90.8359C522.137 89.9453 522.676 89.207 523.286 88.6211C523.356 88.4336 523.473 88.293 523.637 88.1992C523.801 88.082 523.977 88.0117 524.164 87.9883C524.352 87.9414 524.539 87.9531 524.727 88.0234C524.914 88.0703 525.079 88.1641 525.219 88.3047C525.266 88.7266 525.207 89.1133 525.043 89.4648C524.903 89.8164 524.739 90.168 524.551 90.5195C524.387 90.8477 524.258 91.1992 524.164 91.5742C524.071 91.9492 524.106 92.3828 524.27 92.875C523.942 93.0625 523.614 93.2266 523.286 93.3672C522.981 93.5078 522.688 93.6602 522.407 93.8242C522.149 93.9883 521.914 94.1992 521.704 94.457C521.516 94.7148 521.387 95.0547 521.317 95.4766C521.95 95.7109 522.325 96.0039 522.442 96.3555C522.559 96.707 522.618 97.0938 522.618 97.5156C522.618 97.9141 522.641 98.3359 522.688 98.7812C522.758 99.2031 523.063 99.625 523.602 100.047C523.696 100.117 523.754 100.176 523.778 100.223C523.825 100.246 523.907 100.281 524.024 100.328C524.258 100.398 524.469 100.398 524.657 100.328C524.844 100.234 525.02 100.152 525.184 100.082C525.371 100.012 525.559 99.9883 525.746 100.012C525.957 100.012 526.192 100.152 526.45 100.434C526.801 99.9883 527.129 99.9883 527.434 100.434C527.715 99.918 527.973 99.625 528.207 99.5547C528.442 99.4844 528.664 99.4609 528.875 99.4844C529.11 99.5078 529.344 99.4844 529.579 99.4141C529.813 99.3438 530.071 99.0508 530.352 98.5352L530.668 98.8516C530.809 98.4766 530.973 98.3008 531.161 98.3242C531.371 98.3242 531.571 98.3594 531.758 98.4297C531.946 98.4766 532.11 98.4766 532.25 98.4297C532.391 98.3594 532.461 98.0781 532.461 97.5859C532.672 97.5859 532.848 97.5391 532.989 97.4453C533.153 97.3516 533.305 97.2461 533.446 97.1289C533.61 97.0117 533.786 96.918 533.973 96.8477C534.161 96.7539 534.383 96.707 534.641 96.707L533.727 98.9219L530.668 101.242Z" fill="#291C17"/>
<defs>
<clipPath id="clip0">
<rect width="47.9407" height="70" fill="white" transform="translate(518.388 86)"/>
</clipPath>
</defs>
</svg>
