<svg width="649" height="200" viewBox="0 0 649 200" fill="none" xmlns="http://www.w3.org/2000/svg">
<g filter="url(#filter0_d)">
<rect x="83" y="18" width="510" height="174" rx="10" fill="#C4C4C4"/>
<rect x="4" y="89" width="281" height="103" rx="10" fill="#F5D0D0"/>
<path d="M236.875 144.109H232.258V155.593H230.852V144.109H226.41V142.914H236.875V144.109ZM239.336 155.593V142.914H243.989C245.598 142.914 246.832 143.203 247.692 143.781C248.551 144.351 248.981 145.191 248.981 146.3C248.981 146.933 248.789 147.5 248.407 148C248.024 148.492 247.465 148.851 246.731 149.078C247.559 149.234 248.223 149.59 248.723 150.144C249.231 150.699 249.485 151.343 249.485 152.078C249.485 153.195 249.071 154.062 248.242 154.679C247.422 155.289 246.258 155.593 244.75 155.593H239.336ZM240.731 149.757V154.422H244.797C245.852 154.422 246.664 154.218 247.235 153.812C247.805 153.406 248.09 152.82 248.09 152.054C248.09 151.351 247.805 150.793 247.235 150.379C246.664 149.965 245.852 149.757 244.797 149.757H240.731ZM240.731 148.586H244.282C246.485 148.554 247.586 147.804 247.586 146.336C247.586 145.562 247.282 145 246.672 144.648C246.071 144.289 245.176 144.109 243.989 144.109H240.731V148.586ZM251.84 149.066C251.84 147.847 252.074 146.75 252.543 145.773C253.02 144.797 253.688 144.039 254.547 143.5C255.414 142.953 256.395 142.679 257.489 142.679C259.176 142.679 260.543 143.273 261.59 144.461C262.637 145.64 263.16 147.207 263.16 149.16V149.453C263.16 150.679 262.922 151.785 262.446 152.769C261.977 153.746 261.313 154.5 260.453 155.031C259.594 155.562 258.614 155.828 257.512 155.828C255.832 155.828 254.465 155.238 253.41 154.058C252.364 152.871 251.84 151.3 251.84 149.347V149.066ZM253.246 149.453C253.246 150.968 253.637 152.215 254.418 153.191C255.207 154.16 256.239 154.644 257.512 154.644C258.778 154.644 259.801 154.16 260.582 153.191C261.371 152.215 261.766 150.929 261.766 149.336V149.066C261.766 148.097 261.586 147.211 261.227 146.406C260.867 145.601 260.364 144.98 259.715 144.543C259.067 144.097 258.324 143.875 257.489 143.875C256.239 143.875 255.219 144.367 254.43 145.351C253.641 146.328 253.246 147.609 253.246 149.195V149.453ZM274.399 142.914H275.805V155.593H274.399V145.175L267.555 155.593H266.16V142.914H267.555V153.343L274.399 142.914ZM274.328 138.343C274.328 139.242 274.02 139.968 273.403 140.523C272.793 141.078 271.973 141.355 270.942 141.355C269.926 141.355 269.106 141.082 268.481 140.535C267.864 139.98 267.555 139.25 267.555 138.343H268.75C268.75 138.992 268.942 139.488 269.324 139.832C269.715 140.175 270.254 140.347 270.942 140.347C271.629 140.347 272.164 140.168 272.547 139.808C272.938 139.449 273.133 138.961 273.133 138.343H274.328ZM290.09 154.644C291.067 154.644 291.883 154.371 292.539 153.824C293.203 153.269 293.563 152.554 293.617 151.679H294.965C294.926 152.453 294.684 153.16 294.239 153.8C293.793 154.433 293.199 154.929 292.457 155.289C291.723 155.648 290.934 155.828 290.09 155.828C288.426 155.828 287.106 155.25 286.129 154.093C285.16 152.937 284.676 151.382 284.676 149.429V149.007C284.676 147.757 284.895 146.652 285.332 145.691C285.77 144.73 286.395 143.988 287.207 143.465C288.028 142.941 288.985 142.679 290.078 142.679C291.469 142.679 292.614 143.093 293.512 143.922C294.418 144.75 294.903 145.84 294.965 147.191H293.617C293.555 146.199 293.196 145.398 292.539 144.789C291.891 144.179 291.071 143.875 290.078 143.875C288.813 143.875 287.828 144.332 287.125 145.246C286.43 146.16 286.082 147.441 286.082 149.09V149.5C286.082 151.117 286.43 152.379 287.125 153.285C287.828 154.191 288.817 154.644 290.09 154.644ZM306.883 144.109H302.266V155.593H300.86V144.109H296.418V142.914H306.883V144.109ZM317.524 142.914H318.93V155.593H317.524V145.175L310.68 155.593H309.285V142.914H310.68V153.343L317.524 142.914ZM331.797 144.109H327.18V155.593H325.774V144.109H321.332V142.914H331.797V144.109ZM342.438 142.914H343.844V155.593H342.438V145.175L335.594 155.593H334.199V142.914H335.594V153.343L342.438 142.914ZM352.293 154.644C353.27 154.644 354.086 154.371 354.742 153.824C355.407 153.269 355.766 152.554 355.821 151.679H357.168C357.129 152.453 356.887 153.16 356.442 153.8C355.996 154.433 355.403 154.929 354.66 155.289C353.926 155.648 353.137 155.828 352.293 155.828C350.629 155.828 349.309 155.25 348.332 154.093C347.364 152.937 346.879 151.382 346.879 149.429V149.007C346.879 147.757 347.098 146.652 347.535 145.691C347.973 144.73 348.598 143.988 349.41 143.465C350.231 142.941 351.188 142.679 352.282 142.679C353.672 142.679 354.817 143.093 355.715 143.922C356.621 144.75 357.106 145.84 357.168 147.191H355.821C355.758 146.199 355.399 145.398 354.742 144.789C354.094 144.179 353.274 143.875 352.282 143.875C351.016 143.875 350.032 144.332 349.328 145.246C348.633 146.16 348.285 147.441 348.285 149.09V149.5C348.285 151.117 348.633 152.379 349.328 153.285C350.032 154.191 351.02 154.644 352.293 154.644ZM369.086 144.109H364.469V155.593H363.063V144.109H358.621V142.914H369.086V144.109ZM380.676 149.781H378.731V155.593H377.313V142.914H378.731V148.539H380.653L385.305 142.914H387.074L381.871 149.066L387.649 155.593H385.797L380.676 149.781ZM404.617 144.109H400V155.593H398.594V144.109H394.153V142.914H404.617V144.109ZM410.899 155.828C409.821 155.828 408.844 155.562 407.969 155.031C407.102 154.5 406.426 153.761 405.942 152.816C405.457 151.863 405.215 150.797 405.215 149.617V149.113C405.215 147.894 405.449 146.797 405.918 145.82C406.395 144.843 407.055 144.078 407.899 143.523C408.742 142.961 409.657 142.679 410.641 142.679C412.18 142.679 413.399 143.207 414.297 144.261C415.203 145.308 415.657 146.742 415.657 148.562V149.347H406.61V149.617C406.61 151.054 407.02 152.254 407.84 153.215C408.668 154.168 409.707 154.644 410.957 154.644C411.707 154.644 412.367 154.507 412.938 154.234C413.516 153.961 414.039 153.523 414.508 152.922L415.387 153.59C414.356 155.082 412.86 155.828 410.899 155.828ZM410.641 143.875C409.586 143.875 408.696 144.261 407.969 145.035C407.25 145.808 406.813 146.847 406.657 148.152H414.262V148C414.223 146.781 413.875 145.789 413.219 145.023C412.563 144.257 411.703 143.875 410.641 143.875ZM423.496 143.757C425.106 143.757 426.41 144.285 427.41 145.34C428.41 146.386 428.91 147.777 428.91 149.511V149.816C428.91 150.965 428.68 152 428.219 152.922C427.766 153.836 427.11 154.55 426.25 155.066C425.399 155.574 424.418 155.828 423.309 155.828C421.637 155.828 420.282 155.273 419.242 154.164C418.211 153.047 417.696 151.558 417.696 149.699V148.574C417.696 145.949 418.196 143.851 419.196 142.281C420.196 140.711 421.617 139.773 423.461 139.468C424.625 139.281 425.442 139.027 425.91 138.707C426.387 138.386 426.625 137.949 426.625 137.394H427.832C427.832 138.05 427.696 138.593 427.422 139.023C427.149 139.453 426.739 139.8 426.192 140.066C425.645 140.324 424.809 140.543 423.684 140.722C422.395 140.925 421.356 141.476 420.567 142.375C419.785 143.265 419.278 144.461 419.043 145.961C419.543 145.304 420.168 144.773 420.918 144.367C421.676 143.961 422.535 143.757 423.496 143.757ZM419.102 149.523V149.816C419.102 151.246 419.489 152.41 420.262 153.308C421.035 154.199 422.051 154.644 423.309 154.644C424.574 154.644 425.59 154.195 426.356 153.297C427.121 152.39 427.504 151.203 427.504 149.734V149.429C427.504 148.109 427.114 147.031 426.332 146.195C425.559 145.359 424.543 144.941 423.285 144.941C422.028 144.941 421.016 145.367 420.25 146.218C419.485 147.062 419.102 148.164 419.102 149.523ZM436.516 155.828C435.438 155.828 434.461 155.562 433.586 155.031C432.719 154.5 432.043 153.761 431.559 152.816C431.074 151.863 430.832 150.797 430.832 149.617V149.113C430.832 147.894 431.067 146.797 431.535 145.82C432.012 144.843 432.672 144.078 433.516 143.523C434.36 142.961 435.274 142.679 436.258 142.679C437.797 142.679 439.016 143.207 439.914 144.261C440.821 145.308 441.274 146.742 441.274 148.562V149.347H432.227V149.617C432.227 151.054 432.637 152.254 433.457 153.215C434.285 154.168 435.324 154.644 436.574 154.644C437.324 154.644 437.985 154.507 438.555 154.234C439.133 153.961 439.657 153.523 440.125 152.922L441.004 153.59C439.973 155.082 438.477 155.828 436.516 155.828ZM436.258 143.875C435.203 143.875 434.313 144.261 433.586 145.035C432.867 145.808 432.43 146.847 432.274 148.152H439.879V148C439.84 146.781 439.492 145.789 438.836 145.023C438.18 144.257 437.321 143.875 436.258 143.875ZM449.547 154.41L450.168 153.601C451.153 152.265 451.719 150.312 451.867 147.742L452.09 142.914H459.578V154.41H460.891V159.32H459.496V155.593H449.969V159.32H448.621L448.633 154.41H449.547ZM451.164 154.41H458.172V144.226H453.426L453.274 147.519C453.133 150.543 452.43 152.84 451.164 154.41ZM462.824 149.066C462.824 147.847 463.059 146.75 463.528 145.773C464.004 144.797 464.672 144.039 465.532 143.5C466.399 142.953 467.379 142.679 468.473 142.679C470.16 142.679 471.528 143.273 472.574 144.461C473.621 145.64 474.145 147.207 474.145 149.16V149.453C474.145 150.679 473.907 151.785 473.43 152.769C472.961 153.746 472.297 154.5 471.438 155.031C470.578 155.562 469.598 155.828 468.496 155.828C466.817 155.828 465.449 155.238 464.395 154.058C463.348 152.871 462.824 151.3 462.824 149.347V149.066ZM464.231 149.453C464.231 150.968 464.621 152.215 465.403 153.191C466.192 154.16 467.223 154.644 468.496 154.644C469.762 154.644 470.785 154.16 471.567 153.191C472.356 152.215 472.75 150.929 472.75 149.336V149.066C472.75 148.097 472.571 147.211 472.211 146.406C471.852 145.601 471.348 144.98 470.699 144.543C470.051 144.097 469.309 143.875 468.473 143.875C467.223 143.875 466.203 144.367 465.414 145.351C464.625 146.328 464.231 147.609 464.231 149.195V149.453ZM484.071 153.695L489.11 142.914H490.844V155.593H489.438V145.187L484.563 155.593H483.567L478.598 144.953V155.593H477.203V142.914H479.043L484.071 153.695ZM493.832 149.066C493.832 147.847 494.067 146.75 494.535 145.773C495.012 144.797 495.68 144.039 496.539 143.5C497.407 142.953 498.387 142.679 499.481 142.679C501.168 142.679 502.535 143.273 503.582 144.461C504.629 145.64 505.153 147.207 505.153 149.16V149.453C505.153 150.679 504.914 151.785 504.438 152.769C503.969 153.746 503.305 154.5 502.446 155.031C501.586 155.562 500.606 155.828 499.504 155.828C497.824 155.828 496.457 155.238 495.403 154.058C494.356 152.871 493.832 151.3 493.832 149.347V149.066ZM495.239 149.453C495.239 150.968 495.629 152.215 496.41 153.191C497.199 154.16 498.231 154.644 499.504 154.644C500.77 154.644 501.793 154.16 502.574 153.191C503.364 152.215 503.758 150.929 503.758 149.336V149.066C503.758 148.097 503.578 147.211 503.219 146.406C502.86 145.601 502.356 144.98 501.707 144.543C501.059 144.097 500.317 143.875 499.481 143.875C498.231 143.875 497.211 144.367 496.422 145.351C495.633 146.328 495.239 147.609 495.239 149.195V149.453ZM516.391 142.914H517.797V155.593H516.391V145.175L509.547 155.593H508.153V142.914H509.547V153.343L516.391 142.914ZM516.321 138.343C516.321 139.242 516.012 139.968 515.395 140.523C514.785 141.078 513.965 141.355 512.934 141.355C511.918 141.355 511.098 141.082 510.473 140.535C509.856 139.98 509.547 139.25 509.547 138.343H510.742C510.742 138.992 510.934 139.488 511.317 139.832C511.707 140.175 512.246 140.347 512.934 140.347C513.621 140.347 514.157 140.168 514.539 139.808C514.93 139.449 515.125 138.961 515.125 138.343H516.321Z" fill="black"/>
<line x1="180.001" y1="131.5" x2="551.001" y2="132.487" stroke="black"/>
<path d="M551.914 74.1928C549.232 75.0867 548.557 77.212 550.285 79.2361C550.662 79.6578 551.278 80.5518 551.655 81.2265C552.251 82.2217 552.51 82.4747 553.165 82.7277C553.602 82.8795 554.059 83.1831 554.198 83.4024C554.496 83.9084 554.317 85.8819 553.9 86.759L553.582 87.4L552.112 87.2988C551.318 87.2313 550.146 87.147 549.55 87.0795L548.438 86.9614L547.226 87.9566C545.021 89.7446 541.863 93.6241 539.241 97.7566L538.268 99.3084L538.705 100.034C540.155 102.48 543.373 105.752 546.69 108.13C547.623 108.805 547.683 108.822 548.994 108.788L550.345 108.754L550.484 109.429C550.543 109.783 551 111.301 551.477 112.786C552.529 116.007 554.436 122.923 554.853 125.048C555.032 125.875 555.112 126.752 555.052 126.988C553.979 130.969 550.027 135.928 545.001 139.571C540.075 143.147 533.521 146.318 526.568 148.494C525.754 148.747 524.821 149.034 524.503 149.135C523.788 149.354 522.596 150.214 522.596 150.518C522.596 150.923 523.43 151.631 524.384 152.036C527.264 153.267 535.705 154.026 546.63 154.043C555.688 154.06 560.554 153.622 563.931 152.525C565.301 152.087 566.493 151.226 566.493 150.67C566.493 150.535 566.215 149.877 565.877 149.202C564.447 146.318 562.799 140.28 562.203 135.557C561.766 132.065 561.885 129.484 562.699 126.145C564.368 119.161 565.142 114.405 565.182 110.677C565.182 109.159 565.222 107.928 565.262 107.928C565.301 107.928 565.579 108.046 565.917 108.198C566.235 108.333 566.672 108.417 566.851 108.366C567.466 108.198 570.664 103.39 571.836 100.86C572.333 99.8313 572.293 99.747 570.505 97.5542C567.506 93.9108 563.931 90.2337 562.958 89.8289C562.66 89.694 561.627 89.4241 560.634 89.2048C559.66 89.0024 558.747 88.7494 558.608 88.6651C558.25 88.4289 558.091 87.6024 558.25 86.7084L558.369 85.9157L559.164 85.9663C559.918 86.0337 559.958 86.0169 560.316 85.3084C561.249 83.5205 561.368 80.1301 560.554 78.1566C560.077 76.959 559.005 76.0482 557.595 75.6096C557.078 75.441 556.403 75.1036 556.065 74.8506C555.35 74.2771 554.198 73.8554 553.443 73.8554C553.145 73.8723 552.45 74.0241 551.914 74.1928ZM548.1 94.6193C548.497 95.4626 549.411 97.2506 550.126 98.5831C551.775 101.67 551.894 102.463 551.04 104.554C550.503 105.836 550.404 105.988 549.788 106.173C548.358 106.612 548.16 106.528 546.769 104.925C543.929 101.653 542.558 99.6795 542.737 99.0891C542.797 98.8867 543.651 97.7566 544.624 96.5928C545.597 95.4289 546.59 94.1638 546.849 93.7759C547.107 93.4048 547.345 93.0843 547.345 93.0843C547.365 93.0843 547.703 93.7759 548.1 94.6193ZM562.58 94.2651C564.209 94.906 569.274 99.7638 569.274 100.658C569.274 101.383 566.692 105.853 566.076 106.157C565.758 106.325 560.534 101.569 560.197 100.793C560.058 100.489 559.958 99.6964 559.958 99.0048C559.938 97.8916 560.018 97.6217 560.634 96.6096C561.13 95.7831 561.329 95.2434 561.329 94.7036C561.329 94.2651 561.428 93.9277 561.527 93.9277C561.647 93.9277 562.103 94.0795 562.58 94.2651Z" fill="black"/>
<path d="M273.9 119.188C273.9 119.562 273.754 119.896 273.463 120.188C273.213 120.479 272.9 120.708 272.525 120.875C272.15 121.083 271.754 121.271 271.338 121.438C270.963 121.604 270.629 121.75 270.338 121.875C269.879 121.625 269.4 121.458 268.9 121.375C268.442 121.292 268.025 121.083 267.65 120.75H267.213C266.546 120.75 266.025 120.833 265.65 121C265.067 120.792 264.588 120.479 264.213 120.062C263.838 119.688 263.483 119.271 263.15 118.812C262.817 118.396 262.483 117.979 262.15 117.562C261.817 117.146 261.4 116.792 260.9 116.5C260.15 114.417 259.483 112.312 258.9 110.188C258.317 108.062 257.879 105.896 257.588 103.688C257.671 103.479 257.733 103.25 257.775 103C257.817 102.75 257.838 102.521 257.838 102.312C257.838 102.146 257.796 101.979 257.713 101.812C257.671 101.604 257.546 101.479 257.338 101.438C257.546 101.104 257.671 100.729 257.713 100.312C257.796 99.8542 257.838 99.4375 257.838 99.0625C257.838 98.2292 257.754 97.5417 257.588 97C257.838 96.7917 257.942 96.4583 257.9 96C257.858 95.5 257.963 95.1458 258.213 94.9375C258.004 94.2292 257.9 93.5417 257.9 92.875C257.9 91.9583 258.004 91.0625 258.213 90.1875C258.463 89.3125 258.588 88.4167 258.588 87.5C258.588 87.2917 258.567 87.0833 258.525 86.875C258.525 86.6667 258.504 86.4583 258.463 86.25C258.671 85.5833 258.858 84.9167 259.025 84.25C259.233 83.5417 259.338 82.8333 259.338 82.125C259.338 81.625 259.254 81.2083 259.088 80.875C259.629 78.9583 260.004 77.0625 260.213 75.1875C260.463 73.2708 260.692 71.3333 260.9 69.375C260.858 69.2917 260.817 69.2292 260.775 69.1875C260.733 69.1458 260.713 69.0833 260.713 69C260.713 68.7917 260.817 68.625 261.025 68.5C261.275 68.375 261.379 68.1458 261.338 67.8125C260.838 68.3125 260.421 68.8958 260.088 69.5625C259.796 70.2292 259.504 70.8958 259.213 71.5625C258.963 72.2292 258.671 72.8958 258.338 73.5625C258.046 74.1875 257.65 74.75 257.15 75.25C257.108 75.7083 256.963 76.1458 256.713 76.5625C256.504 76.9792 256.4 77.4375 256.4 77.9375C256.358 77.9375 256.317 77.9375 256.275 77.9375C256.233 77.8958 256.171 77.875 256.088 77.875C255.921 77.875 255.796 77.9792 255.713 78.1875C255.671 78.3958 255.546 78.4583 255.338 78.375C254.379 80.25 253.317 82.0833 252.15 83.875C251.025 85.6667 249.546 87.1042 247.713 88.1875C247.379 88.0625 247.067 88 246.775 88C246.233 88 245.692 88.1667 245.15 88.5C244.65 88.7917 244.317 88.9375 244.15 88.9375C243.733 88.9375 243.213 88.7292 242.588 88.3125C242.004 87.8542 241.4 87.6042 240.775 87.5625C240.108 87.1042 239.546 86.6458 239.088 86.1875C238.671 85.6875 238.025 85.3958 237.15 85.3125C236.567 84.4375 235.983 83.6042 235.4 82.8125C234.858 82.0208 234.317 81.25 233.775 80.5C233.275 79.7083 232.817 78.875 232.4 78C232.025 77.125 231.733 76.1458 231.525 75.0625C231.567 74.9792 231.588 74.8958 231.588 74.8125C231.588 74.5625 231.463 74.4583 231.213 74.5C231.004 74.5417 230.9 74.4167 230.9 74.125V73.6875C230.9 73.3542 230.838 73.0625 230.713 72.8125C230.629 72.5208 230.608 72.2083 230.65 71.875C230.358 71.4167 230.129 70.9375 229.963 70.4375C229.796 69.9375 229.504 69.5 229.088 69.125V68.5625C229.088 68.3125 229.067 68.0833 229.025 67.875C229.025 67.625 228.963 67.4167 228.838 67.25C228.754 67.0417 228.608 66.9167 228.4 66.875C228.358 65.375 228.046 63.8542 227.463 62.3125C226.921 60.7292 226.421 59.2083 225.963 57.75C225.629 58.8333 225.379 59.9375 225.213 61.0625C225.046 62.1458 224.963 63.25 224.963 64.375V65.4375C224.963 65.7708 225.004 66.1042 225.088 66.4375C224.963 66.6458 224.775 66.7917 224.525 66.875C224.317 66.9583 224.192 67.125 224.15 67.375C224.108 67.5833 224.088 67.7917 224.088 68C224.129 68.2083 224.129 68.4167 224.088 68.625C224.004 69.625 223.879 70.5833 223.713 71.5C223.463 72.875 223.171 74.2708 222.838 75.6875C222.504 77.0625 222.338 78.4792 222.338 79.9375C222.338 80.0208 222.338 80.1458 222.338 80.3125C222.379 80.4375 222.4 80.5417 222.4 80.625C221.733 81.2083 221.379 81.9375 221.338 82.8125C221.296 83.6875 221.192 84.5208 221.025 85.3125C220.817 86.4792 220.567 87.6458 220.275 88.8125C219.983 89.9375 219.733 91.1042 219.525 92.3125C219.4 92.9792 219.296 93.6458 219.213 94.3125C219.129 94.9375 219.046 95.5833 218.963 96.25C218.921 96.625 218.775 96.9375 218.525 97.1875C218.317 97.4375 218.171 97.7292 218.088 98.0625C218.046 98.3542 218.025 98.6875 218.025 99.0625C218.067 99.3958 218.088 99.7083 218.088 100C218.088 100.5 218.046 100.979 217.963 101.438C217.879 101.854 217.629 102.229 217.213 102.562C217.296 103.646 217.483 104.562 217.775 105.312C218.067 106.104 218.4 106.979 218.775 107.938H220.338V108.188C220.338 108.604 220.4 108.979 220.525 109.312C220.692 109.646 221.004 109.792 221.463 109.75C221.421 109.917 221.4 110.125 221.4 110.375C221.4 110.75 221.463 111.083 221.588 111.375C221.754 111.708 221.879 112.062 221.963 112.438C221.129 113.812 220.233 114.833 219.275 115.5C218.317 116.167 217.004 116.5 215.338 116.5H214.338C214.129 115.833 213.879 115.188 213.588 114.562C213.296 113.938 213.004 113.312 212.713 112.688C212.463 112.062 212.233 111.417 212.025 110.75C211.858 110.125 211.775 109.458 211.775 108.75C211.775 108.583 211.796 108.417 211.838 108.25C211.879 108.125 211.9 107.979 211.9 107.812C211.9 107.604 211.817 107.479 211.65 107.438C211.483 107.396 211.4 107.188 211.4 106.812C211.4 106.521 211.379 106.25 211.338 106C211.338 105.75 211.338 105.479 211.338 105.188C211.338 103.812 211.442 102.458 211.65 101.125C211.858 99.75 212.004 98.375 212.088 97C212.296 96.7917 212.4 96.5208 212.4 96.1875C212.4 95.8542 212.504 95.5833 212.713 95.375V94.9375C212.713 94.1875 212.796 93.4375 212.963 92.6875C213.129 91.9375 213.317 91.2083 213.525 90.5C213.733 89.7917 213.921 89.0625 214.088 88.3125C214.254 87.5625 214.338 86.8125 214.338 86.0625V85.0625C214.338 84.7708 214.463 84.6458 214.713 84.6875C215.004 84.6875 215.171 84.5208 215.213 84.1875C215.296 83.6042 215.338 83.0417 215.338 82.5C215.379 81.9167 215.442 81.3333 215.525 80.75C215.733 79.625 215.963 78.5 216.213 77.375C216.463 76.2083 216.588 75.0417 216.588 73.875V73.6875C216.588 73.5625 216.692 73.3125 216.9 72.9375C217.108 72.5208 217.213 72.125 217.213 71.75C217.213 71.4583 217.15 71.1875 217.025 70.9375C217.067 70.9792 217.15 71 217.275 71C217.442 71 217.546 70.9583 217.588 70.875C217.671 70.75 217.775 70.6458 217.9 70.5625C217.775 70.3958 217.713 70.2292 217.713 70.0625C217.713 69.8542 217.733 69.6667 217.775 69.5C217.858 69.2917 217.9 69.0833 217.9 68.875C217.9 68.5833 217.754 68.375 217.463 68.25C217.963 67.3333 218.317 66.3542 218.525 65.3125C218.775 64.2708 218.942 63.2083 219.025 62.125C219.15 61.0417 219.254 59.9583 219.338 58.875C219.421 57.75 219.608 56.6875 219.9 55.6875C219.817 55.4375 219.754 55.1667 219.713 54.875C219.713 54.5833 219.713 54.3125 219.713 54.0625C219.713 53.8958 219.692 53.7292 219.65 53.5625C219.608 53.3542 219.629 53.1667 219.713 53C219.713 52.9167 219.733 52.8125 219.775 52.6875L219.9 52.3125C219.983 52.0208 220.025 51.7292 220.025 51.4375C220.067 51.1042 220.108 50.7708 220.15 50.4375C220.233 49.4792 220.254 48.5 220.213 47.5C220.213 46.5 220.254 45.5 220.338 44.5C220.213 44.3333 220.088 44.2083 219.963 44.125C219.838 44 219.754 43.8333 219.713 43.625C220.046 43.0417 220.4 42.5 220.775 42C221.192 41.4583 221.733 41.0417 222.4 40.75C222.525 41.2083 222.858 41.4375 223.4 41.4375C223.65 41.4375 223.963 41.375 224.338 41.25C224.713 41.125 224.963 40.9583 225.088 40.75C225.796 41 226.504 41.125 227.213 41.125C227.963 41.0833 228.65 41.25 229.275 41.625C229.4 42.25 229.567 42.8958 229.775 43.5625C229.983 44.2292 230.275 44.8333 230.65 45.375C230.733 45.9167 230.817 46.5833 230.9 47.375C230.983 48.125 231.067 48.9167 231.15 49.75C231.233 50.5417 231.358 51.3125 231.525 52.0625C231.692 52.7708 231.921 53.3333 232.213 53.75C232.254 54.5 232.379 55.25 232.588 56C232.796 56.75 233.025 57.4792 233.275 58.1875C233.525 58.8542 233.733 59.4792 233.9 60.0625C234.108 60.6458 234.213 61.125 234.213 61.5C234.213 61.8333 234.15 62.0625 234.025 62.1875C233.942 62.2708 233.858 62.4375 233.775 62.6875C233.942 63.1458 234.171 63.5417 234.463 63.875C234.754 64.1667 235.067 64.5208 235.4 64.9375C236.025 67.3125 236.838 69.625 237.838 71.875C238.838 74.125 240.046 76.2917 241.463 78.375C241.838 78.4167 242.129 78.5208 242.338 78.6875C242.588 78.8542 242.963 78.8958 243.463 78.8125V79.25C243.463 79.6667 243.546 79.9583 243.713 80.125C244.088 80.375 244.525 80.5 245.025 80.5C245.567 80.5 245.983 80.3542 246.275 80.0625C246.608 79.7292 246.921 79.3542 247.213 78.9375C247.504 78.5208 247.796 78.125 248.088 77.75C248.379 77.375 248.775 77.125 249.275 77V76.875C249.275 76.5417 249.338 76.2708 249.463 76.0625C249.629 75.8125 249.713 75.5417 249.713 75.25C250.171 74.9167 250.525 74.5 250.775 74C251.025 73.5 251.254 73 251.463 72.5C251.671 71.9583 251.9 71.4583 252.15 71C252.442 70.5417 252.817 70.1667 253.275 69.875C253.858 68.0833 254.567 66.4167 255.4 64.875C256.233 63.3333 257.108 61.7708 258.025 60.1875C258.025 60.0625 258.004 59.9375 257.963 59.8125C257.921 59.6458 257.9 59.5 257.9 59.375C257.9 59.3333 257.942 59.1458 258.025 58.8125C258.233 58.3958 258.421 58 258.588 57.625C258.754 57.25 258.9 56.8333 259.025 56.375C259.442 55.0833 259.817 53.8125 260.15 52.5625C260.525 51.3125 261.067 50.125 261.775 49V47.4375C262.525 45.9375 263.046 44.3542 263.338 42.6875C263.671 41.0208 264.067 39.3958 264.525 37.8125C264.608 37.3542 264.754 36.8958 264.963 36.4375C265.213 35.9375 265.504 35.5833 265.838 35.375C265.713 35.125 265.65 34.875 265.65 34.625C265.65 34.2917 265.692 34 265.775 33.75C265.9 33.4583 266.004 33.1667 266.088 32.875C265.963 32.5833 265.9 32.2083 265.9 31.75C265.9 31.1667 266.067 30.625 266.4 30.125C266.733 29.5833 267.233 29.2292 267.9 29.0625C268.317 29.1875 268.671 29.3958 268.963 29.6875C269.254 29.9792 269.525 30.2917 269.775 30.625C270.067 30.9167 270.358 31.1667 270.65 31.375C270.983 31.5417 271.4 31.5833 271.9 31.5C272.233 32.125 272.463 32.7917 272.588 33.5C272.713 34.1667 272.775 34.8542 272.775 35.5625C272.775 36.5208 272.692 37.5208 272.525 38.5625C272.358 39.5625 272.296 40.5833 272.338 41.625C272.004 42.2917 271.754 43.0208 271.588 43.8125C271.463 44.5625 271.338 45.3333 271.213 46.125C271.088 46.9167 270.942 47.6875 270.775 48.4375C270.608 49.1875 270.317 49.8958 269.9 50.5625C269.775 52.4375 269.629 54.2708 269.463 56.0625C269.338 57.8542 269.129 59.6458 268.838 61.4375L268.275 65C268.192 65.2917 268.108 65.625 268.025 66C267.942 66.3333 267.9 66.625 267.9 66.875C267.9 67.125 267.921 67.3958 267.963 67.6875C268.004 67.9375 268.129 68.125 268.338 68.25C268.046 68.6667 267.838 69.1667 267.713 69.75C267.588 70.3333 267.463 70.9583 267.338 71.625L267.025 73.5625C266.942 74.1875 266.775 74.75 266.525 75.25V75.9375C266.525 77.6042 266.233 79.3125 265.65 81.0625V81.375C265.65 81.5833 265.629 81.7708 265.588 81.9375C265.588 82.0625 265.588 82.2292 265.588 82.4375C265.588 82.7292 265.671 82.9583 265.838 83.125C265.504 84.2083 265.192 85.3333 264.9 86.5C264.608 87.625 264.4 88.7917 264.275 90C264.15 91.625 264.129 93.2917 264.213 95C264.296 96.6667 264.088 98.2917 263.588 99.875C263.838 100.625 264.004 101.438 264.088 102.312L264.338 104.938C264.421 105.812 264.546 106.646 264.713 107.438C264.921 108.271 265.296 108.958 265.838 109.5C265.879 109.583 265.9 109.708 265.9 109.875C265.9 110.208 265.817 110.458 265.65 110.625C265.733 111.042 265.879 111.396 266.088 111.688C266.296 111.979 266.504 112.25 266.713 112.5C266.921 112.792 267.088 113.104 267.213 113.438C267.379 113.771 267.463 114.188 267.463 114.688C267.796 115.146 268.317 115.5 269.025 115.75C269.733 116 270.442 116.25 271.15 116.5C271.9 116.75 272.546 117.062 273.088 117.438C273.629 117.854 273.9 118.438 273.9 119.188ZM300.861 99.3086C300.533 99.8711 300.275 100.328 300.088 100.68C299.923 101.008 299.748 101.289 299.56 101.523C299.396 101.734 299.197 101.934 298.963 102.121C298.752 102.285 298.447 102.496 298.048 102.754C297.791 102.988 297.533 103.188 297.275 103.352C297.064 103.516 296.853 103.656 296.642 103.773C296.455 103.891 296.302 103.949 296.185 103.949C296.138 103.949 296.091 103.938 296.045 103.914C295.998 103.914 295.951 103.914 295.904 103.914C295.763 103.914 295.623 103.914 295.482 103.914C295.365 103.938 295.259 103.855 295.166 103.668C295.095 103.738 295.037 103.82 294.99 103.914C294.943 104.008 294.896 104.09 294.849 104.16C294.802 104.254 294.732 104.324 294.638 104.371C294.568 104.418 294.463 104.418 294.322 104.371L294.146 104.16L293.619 104.617C292.963 104.289 292.33 104.008 291.72 103.773C291.134 103.562 290.607 103.305 290.138 103C289.67 102.695 289.271 102.309 288.943 101.84C288.615 101.348 288.38 100.68 288.24 99.8359C288.123 99.6953 287.994 99.5781 287.853 99.4844C287.713 99.3672 287.548 99.332 287.361 99.3789C287.127 99.7773 286.845 100.117 286.517 100.398C286.189 100.68 285.861 100.984 285.533 101.312C285.416 101.43 285.322 101.559 285.252 101.699C285.181 101.84 285.088 101.969 284.97 102.086C284.783 102.297 284.56 102.449 284.302 102.543C284.045 102.613 283.787 102.684 283.529 102.754C283.271 102.824 283.025 102.941 282.791 103.105C282.58 103.27 282.427 103.551 282.334 103.949C282.052 103.785 281.771 103.738 281.49 103.809C281.279 103.855 281.056 103.902 280.822 103.949C280.588 104.02 280.353 104.055 280.119 104.055C279.908 104.078 279.697 104.055 279.486 103.984C279.275 103.914 279.088 103.762 278.923 103.527C278.595 103.668 278.291 103.656 278.009 103.492C277.728 103.352 277.459 103.152 277.201 102.895C276.966 102.613 276.732 102.32 276.498 102.016C276.263 101.711 276.041 101.488 275.83 101.348C275.689 100.973 275.701 100.656 275.865 100.398C276.005 100.117 276.17 99.8594 276.357 99.625C276.521 99.3672 276.638 99.1211 276.709 98.8867C276.779 98.6289 276.673 98.3242 276.392 97.9727C276.627 97.6211 276.838 97.2578 277.025 96.8828C277.213 96.4844 277.4 96.0977 277.588 95.7227C277.798 95.3242 278.009 94.9492 278.22 94.5977C278.455 94.2227 278.736 93.9062 279.064 93.6484C278.923 93.4844 278.853 93.332 278.853 93.1914C278.853 93.0273 278.888 92.875 278.959 92.7344C279.029 92.5703 279.111 92.418 279.205 92.2773C279.298 92.1133 279.369 91.9609 279.416 91.8203L280.435 91.3281L280.189 90.4844C280.447 90.5312 280.634 90.5195 280.752 90.4492C280.892 90.3789 280.986 90.2734 281.033 90.1328C281.103 89.9922 281.15 89.8398 281.173 89.6758C281.22 89.4883 281.279 89.3242 281.349 89.1836C281.466 88.9727 281.642 88.8203 281.877 88.7266C282.369 88.3516 282.849 87.9531 283.318 87.5312C283.81 87.1094 284.291 86.6992 284.759 86.3008C285.252 85.9023 285.755 85.5273 286.271 85.1758C286.787 84.8008 287.349 84.4844 287.959 84.2266C288.38 84.2969 288.709 84.4258 288.943 84.6133C289.201 84.8008 289.388 85.0234 289.505 85.2812C289.646 85.5391 289.752 85.832 289.822 86.1602C289.892 86.4648 289.963 86.7695 290.033 87.0742C290.15 87.4727 290.291 87.8125 290.455 88.0938C290.619 88.375 290.9 88.6094 291.298 88.7969C290.97 89.3594 290.841 89.9219 290.912 90.4844C290.982 91.0234 291.052 91.5977 291.123 92.207C291.193 92.7695 291.181 93.3203 291.088 93.8594C291.017 94.3984 290.677 94.8789 290.068 95.3008C290.021 95.4648 290.009 95.6406 290.033 95.8281C290.056 96.0156 290.068 96.2031 290.068 96.3906C290.068 96.5781 290.033 96.7539 289.963 96.918C289.892 97.082 289.763 97.2109 289.576 97.3047C289.787 97.5625 289.892 97.8203 289.892 98.0781C289.916 98.3359 289.927 98.582 289.927 98.8164C289.951 99.0508 290.009 99.2617 290.103 99.4492C290.22 99.6367 290.478 99.7773 290.877 99.8711C290.947 100.176 291.005 100.41 291.052 100.574C291.123 100.715 291.193 100.832 291.263 100.926C291.357 101.02 291.474 101.113 291.615 101.207C291.755 101.277 291.943 101.395 292.177 101.559C292.365 101.605 292.576 101.605 292.81 101.559C293.045 101.512 293.232 101.582 293.373 101.77C293.49 101.652 293.63 101.594 293.795 101.594C293.959 101.57 294.111 101.57 294.252 101.594L294.709 102.367C294.966 102.18 295.259 102.016 295.588 101.875C295.916 101.734 296.232 101.617 296.537 101.523C296.888 101.43 297.24 101.348 297.591 101.277L300.861 99.3086ZM287.361 87.2852C287.15 87.4727 286.892 87.6602 286.588 87.8477C286.283 88.0352 285.978 88.2344 285.673 88.4453C285.392 88.6562 285.146 88.8906 284.935 89.1484C284.724 89.3828 284.595 89.6641 284.548 89.9922C284.009 90.0859 283.634 90.3086 283.423 90.6602C283.213 91.0117 283.037 91.3984 282.896 91.8203C282.755 92.2422 282.603 92.6641 282.439 93.0859C282.275 93.4844 281.982 93.8008 281.56 94.0352C281.42 94.1289 281.291 94.1758 281.173 94.1758C281.197 94.1758 281.127 94.2227 280.963 94.3164C280.705 94.5039 280.482 94.7383 280.295 95.0195C280.107 95.3008 279.943 95.6055 279.802 95.9336C279.685 96.2617 279.568 96.6016 279.451 96.9531C279.357 97.2812 279.263 97.5859 279.17 97.8672C278.841 97.9141 278.595 97.9844 278.431 98.0781C278.267 98.1719 278.162 98.2773 278.115 98.3945C278.091 98.4883 278.103 98.6055 278.15 98.7461C278.197 98.8867 278.267 99.0391 278.361 99.2031C278.455 99.3438 278.548 99.5078 278.642 99.6953C278.759 99.8828 278.853 100.07 278.923 100.258C278.994 100.445 279.029 100.633 279.029 100.82C279.052 101.008 279.005 101.184 278.888 101.348C279.216 101.605 279.533 101.664 279.838 101.523C280.142 101.359 280.423 101.184 280.681 100.996C280.775 100.926 280.869 100.855 280.963 100.785C281.08 100.691 281.197 100.621 281.314 100.574C281.853 100.691 282.345 100.656 282.791 100.469C283.236 100.281 283.646 100.023 284.021 99.6953C284.396 99.3672 284.759 99.0156 285.111 98.6406C285.463 98.2656 285.814 97.9375 286.166 97.6562L285.884 97.375C286.306 97.2578 286.599 97.1055 286.763 96.918C286.951 96.707 287.068 96.4727 287.115 96.2148C287.162 95.957 287.162 95.6875 287.115 95.4062C287.068 95.1016 287.033 94.7852 287.009 94.457C286.986 94.2695 286.974 94.0938 286.974 93.9297C286.998 93.7422 287.045 93.5547 287.115 93.3672C286.927 92.8281 286.892 92.3125 287.009 91.8203C287.15 91.3281 287.326 90.8594 287.537 90.4141C287.771 89.9453 287.994 89.4766 288.205 89.0078C288.416 88.5391 288.521 88.0469 288.521 87.5312L287.361 87.2852ZM324.802 96.0391C324.263 96.2969 323.9 96.6133 323.713 96.9883C323.525 97.3633 323.373 97.75 323.255 98.1484C323.162 98.5469 323.033 98.9336 322.869 99.3086C322.728 99.6602 322.412 99.9531 321.92 100.188C321.802 100.609 321.568 100.902 321.216 101.066C320.888 101.23 320.537 101.383 320.162 101.523C319.787 101.641 319.447 101.805 319.142 102.016C318.861 102.227 318.72 102.59 318.72 103.105C318.252 103.363 317.736 103.598 317.173 103.809C316.634 104.02 316.06 104.172 315.451 104.266C314.865 104.383 314.279 104.43 313.693 104.406C313.107 104.383 312.556 104.266 312.041 104.055C311.689 103.891 311.349 103.68 311.021 103.422C310.904 103.328 310.787 103.246 310.67 103.176C310.576 103.129 310.47 103.047 310.353 102.93C310.072 102.648 309.838 102.32 309.65 101.945C309.463 101.57 309.31 101.172 309.193 100.75C309.076 100.328 308.982 99.9062 308.912 99.4844C308.841 99.0625 308.783 98.6641 308.736 98.2891L310.037 94.7734C309.357 94.2344 308.806 93.6133 308.384 92.9102C307.963 92.1836 307.447 91.5156 306.838 90.9062C306.72 91.0703 306.568 91.2109 306.38 91.3281C306.193 91.4453 306.123 91.6328 306.17 91.8906L306.521 92.207C305.748 93.0508 304.963 94.0117 304.166 95.0898C303.392 96.1445 302.783 97.2109 302.338 98.2891C301.822 98.2656 301.459 98.3945 301.248 98.6758C301.037 98.9336 300.861 99.2383 300.72 99.5898C300.58 99.918 300.404 100.223 300.193 100.504C299.982 100.785 299.63 100.902 299.138 100.855C299.021 101.113 298.904 101.395 298.787 101.699C298.67 101.98 298.529 102.25 298.365 102.508C298.201 102.766 298.002 102.977 297.767 103.141C297.533 103.328 297.24 103.422 296.888 103.422C296.701 103.234 296.595 103.035 296.572 102.824C296.548 102.613 296.572 102.402 296.642 102.191C296.713 101.957 296.806 101.734 296.923 101.523C297.041 101.289 297.123 101.066 297.17 100.855C297.357 100.176 297.697 99.5664 298.189 99.0273C298.681 98.4648 299.173 97.9141 299.666 97.375C300.158 96.8125 300.58 96.2266 300.931 95.6172C301.283 95.0078 301.423 94.293 301.353 93.4727C301.658 93.4492 301.963 93.3906 302.267 93.2969C302.595 93.1797 302.888 93.0391 303.146 92.875C303.427 92.6875 303.638 92.4648 303.779 92.207C303.943 91.9258 304.002 91.5977 303.955 91.2227C303.767 91.1289 303.662 91 303.638 90.8359C303.615 90.6484 303.615 90.4609 303.638 90.2734C304.154 90.1094 304.564 89.8281 304.869 89.4297C305.197 89.0078 305.49 88.5625 305.748 88.0938C306.005 87.625 306.252 87.1562 306.486 86.6875C306.744 86.1953 307.072 85.7734 307.47 85.4219C307.798 85.6094 308.127 85.7734 308.455 85.9141C308.783 86.0312 309.099 86.1953 309.404 86.4062C309.193 86.6875 309.064 86.957 309.017 87.2148C308.97 87.4727 308.947 87.7422 308.947 88.0234C308.947 88.2812 308.947 88.5391 308.947 88.7969C308.947 89.0547 308.877 89.3242 308.736 89.6055C309.111 89.9336 309.427 90.3203 309.685 90.7656C309.943 91.2109 310.271 91.5859 310.67 91.8906C310.951 91.6797 311.267 91.5742 311.619 91.5742C311.97 91.5508 312.322 91.5508 312.673 91.5742C313.048 91.5742 313.4 91.5508 313.728 91.5039C314.056 91.4336 314.326 91.2344 314.537 90.9062C314.63 91 314.771 91.0469 314.959 91.0469C315.146 91.0469 315.334 91.0469 315.521 91.0469C315.709 91.0469 315.873 91.082 316.013 91.1523C316.154 91.1992 316.236 91.3047 316.259 91.4688C316.283 91.6562 316.271 91.7852 316.224 91.8555C316.201 91.9258 316.166 92.043 316.119 92.207C316.072 92.3945 316.06 92.4883 316.084 92.4883C316.107 92.4883 316.084 92.5703 316.013 92.7344C315.896 93.0391 315.697 93.2969 315.416 93.5078C315.158 93.7188 314.888 93.9297 314.607 94.1406C314.349 94.3281 314.103 94.5508 313.869 94.8086C313.658 95.043 313.552 95.3477 313.552 95.7227C313.037 95.9102 312.673 96.1914 312.463 96.5664C312.252 96.918 312.111 97.3281 312.041 97.7969C311.97 98.2422 311.923 98.7109 311.9 99.2031C311.877 99.6719 311.795 100.105 311.654 100.504L311.97 100.855L312.252 100.504C312.58 100.973 312.966 101.266 313.412 101.383C313.88 101.5 314.361 101.535 314.853 101.488C315.088 101.137 315.357 100.855 315.662 100.645C315.99 100.434 316.33 100.258 316.681 100.117C317.056 99.9766 317.431 99.8477 317.806 99.7305C318.205 99.6133 318.58 99.4727 318.931 99.3086C319.213 99.168 319.447 99.0156 319.634 98.8516C319.845 98.6875 320.068 98.5 320.302 98.2891C321.005 97.6328 321.697 96.9883 322.377 96.3555C323.08 95.7227 323.783 95.0781 324.486 94.4219C324.627 94.4219 324.72 94.4922 324.767 94.6328C324.814 94.7734 324.838 94.9375 324.838 95.125C324.838 95.2891 324.826 95.4648 324.802 95.6523C324.802 95.8164 324.802 95.9453 324.802 96.0391ZM332.326 81.0625C331.904 81.2266 331.67 81.4727 331.623 81.8008C331.576 82.1289 331.552 82.4688 331.552 82.8203C331.576 83.1719 331.564 83.5 331.517 83.8047C331.47 84.1094 331.236 84.3086 330.814 84.4023C330.65 84.1211 330.439 83.8633 330.181 83.6289C329.947 83.3711 329.713 83.125 329.478 82.8906C329.244 82.6328 329.056 82.3633 328.916 82.082C328.775 81.8008 328.728 81.4609 328.775 81.0625L330.533 79.0234C330.814 79.1172 331.037 79.2344 331.201 79.375C331.365 79.5156 331.505 79.6797 331.623 79.8672C331.74 80.0547 331.845 80.2539 331.939 80.4648C332.056 80.6523 332.185 80.8516 332.326 81.0625ZM339.146 96.8125C339.17 97.3281 339.123 97.6914 339.005 97.9023C338.912 98.1133 338.795 98.2891 338.654 98.4297C338.513 98.5469 338.384 98.6875 338.267 98.8516C338.173 98.9922 338.127 99.25 338.127 99.625C337.588 100.211 337.154 100.645 336.826 100.926C336.498 101.184 336.181 101.406 335.877 101.594C335.572 101.758 335.232 101.945 334.857 102.156C334.482 102.367 333.966 102.695 333.31 103.141L333.064 103.176C332.994 103.527 332.865 103.727 332.677 103.773C332.513 103.844 332.314 103.879 332.08 103.879C331.869 103.879 331.658 103.902 331.447 103.949C331.236 103.996 331.06 104.195 330.92 104.547C330.521 104.664 330.181 104.711 329.9 104.688C329.619 104.664 329.255 104.652 328.81 104.652C328.67 104.652 328.482 104.641 328.248 104.617C328.037 104.594 327.861 104.605 327.72 104.652C327.627 104.676 327.521 104.734 327.404 104.828C327.31 104.945 327.205 105.039 327.088 105.109C326.97 105.18 326.853 105.203 326.736 105.18C326.619 105.18 326.513 105.086 326.42 104.898C326.138 104.969 325.88 104.969 325.646 104.898C325.412 104.828 325.189 104.711 324.978 104.547C324.767 104.383 324.568 104.184 324.38 103.949C324.216 103.738 324.052 103.539 323.888 103.352C323.771 103.211 323.642 103.082 323.502 102.965C323.361 102.848 323.232 102.73 323.115 102.613C322.857 102.355 322.67 102.027 322.552 101.629C322.435 101.23 322.365 100.82 322.341 100.398C322.318 99.9766 322.33 99.5547 322.377 99.1328C322.423 98.7109 322.494 98.3359 322.588 98.0078C322.798 97.7969 322.951 97.5625 323.045 97.3047C323.115 97.0234 323.173 96.7422 323.22 96.4609C323.291 96.1797 323.361 95.9102 323.431 95.6523C323.525 95.3711 323.677 95.125 323.888 94.9141C323.888 94.6094 323.935 94.3281 324.029 94.0703C324.146 93.8125 324.287 93.5664 324.451 93.332C324.638 93.0977 324.838 92.8867 325.048 92.6992C325.283 92.4883 325.494 92.2891 325.681 92.1016C325.869 92.1016 326.056 92.1016 326.244 92.1016C326.431 92.0781 326.607 92.0898 326.771 92.1367C326.935 92.1602 327.076 92.2305 327.193 92.3477C327.31 92.4414 327.404 92.6055 327.474 92.8398C327.638 93.4727 327.591 93.9883 327.334 94.3867C327.099 94.7617 326.83 95.125 326.525 95.4766C326.22 95.8281 325.974 96.1914 325.787 96.5664C325.599 96.9414 325.646 97.4219 325.927 98.0078C325.67 98.0078 325.494 98.0781 325.4 98.2188C325.33 98.3594 325.271 98.5234 325.224 98.7109C325.201 98.875 325.154 99.0391 325.084 99.2031C325.013 99.3672 324.873 99.4844 324.662 99.5547C324.802 99.6953 324.873 99.9414 324.873 100.293C324.896 100.645 324.931 100.984 324.978 101.312C325.048 101.617 325.154 101.863 325.295 102.051C325.459 102.238 325.752 102.25 326.173 102.086C326.478 102.344 326.841 102.449 327.263 102.402C327.709 102.355 328.119 102.344 328.494 102.367C328.822 102.156 329.103 102.051 329.338 102.051C329.572 102.027 329.795 102.051 330.005 102.121C330.216 102.168 330.439 102.215 330.673 102.262C330.908 102.309 331.189 102.273 331.517 102.156C331.611 101.758 331.775 101.523 332.009 101.453C332.244 101.383 332.478 101.348 332.713 101.348C332.947 101.324 333.158 101.277 333.345 101.207C333.556 101.137 333.697 100.902 333.767 100.504C333.955 100.27 334.177 100.141 334.435 100.117C334.693 100.07 334.951 100.023 335.209 99.9766C335.49 99.9297 335.736 99.8359 335.947 99.6953C336.181 99.5312 336.345 99.2266 336.439 98.7812C336.838 98.4766 337.119 98.2539 337.283 98.1133C337.47 97.9492 337.623 97.8203 337.74 97.7266C337.857 97.6328 338.009 97.5273 338.197 97.4102C338.384 97.293 338.701 97.0938 339.146 96.8125ZM361.013 99.3086C360.685 99.8711 360.427 100.328 360.24 100.68C360.076 101.008 359.9 101.289 359.713 101.523C359.548 101.734 359.349 101.934 359.115 102.121C358.904 102.285 358.599 102.496 358.201 102.754C357.943 102.988 357.685 103.188 357.427 103.352C357.216 103.516 357.005 103.656 356.795 103.773C356.607 103.891 356.455 103.949 356.338 103.949C356.291 103.949 356.244 103.938 356.197 103.914C356.15 103.914 356.103 103.914 356.056 103.914C355.916 103.914 355.775 103.914 355.634 103.914C355.517 103.938 355.412 103.855 355.318 103.668C355.248 103.738 355.189 103.82 355.142 103.914C355.095 104.008 355.048 104.09 355.002 104.16C354.955 104.254 354.884 104.324 354.791 104.371C354.72 104.418 354.615 104.418 354.474 104.371L354.298 104.16L353.771 104.617C353.115 104.289 352.482 104.008 351.873 103.773C351.287 103.562 350.759 103.305 350.291 103C349.822 102.695 349.423 102.309 349.095 101.84C348.767 101.348 348.533 100.68 348.392 99.8359C348.275 99.6953 348.146 99.5781 348.005 99.4844C347.865 99.3672 347.701 99.332 347.513 99.3789C347.279 99.7773 346.998 100.117 346.67 100.398C346.341 100.68 346.013 100.984 345.685 101.312C345.568 101.43 345.474 101.559 345.404 101.699C345.334 101.84 345.24 101.969 345.123 102.086C344.935 102.297 344.713 102.449 344.455 102.543C344.197 102.613 343.939 102.684 343.681 102.754C343.423 102.824 343.177 102.941 342.943 103.105C342.732 103.27 342.58 103.551 342.486 103.949C342.205 103.785 341.923 103.738 341.642 103.809C341.431 103.855 341.209 103.902 340.974 103.949C340.74 104.02 340.505 104.055 340.271 104.055C340.06 104.078 339.849 104.055 339.638 103.984C339.427 103.914 339.24 103.762 339.076 103.527C338.748 103.668 338.443 103.656 338.162 103.492C337.88 103.352 337.611 103.152 337.353 102.895C337.119 102.613 336.884 102.32 336.65 102.016C336.416 101.711 336.193 101.488 335.982 101.348C335.841 100.973 335.853 100.656 336.017 100.398C336.158 100.117 336.322 99.8594 336.509 99.625C336.673 99.3672 336.791 99.1211 336.861 98.8867C336.931 98.6289 336.826 98.3242 336.545 97.9727C336.779 97.6211 336.99 97.2578 337.177 96.8828C337.365 96.4844 337.552 96.0977 337.74 95.7227C337.951 95.3242 338.162 94.9492 338.373 94.5977C338.607 94.2227 338.888 93.9062 339.216 93.6484C339.076 93.4844 339.005 93.332 339.005 93.1914C339.005 93.0273 339.041 92.875 339.111 92.7344C339.181 92.5703 339.263 92.418 339.357 92.2773C339.451 92.1133 339.521 91.9609 339.568 91.8203L340.588 91.3281L340.341 90.4844C340.599 90.5312 340.787 90.5195 340.904 90.4492C341.045 90.3789 341.138 90.2734 341.185 90.1328C341.255 89.9922 341.302 89.8398 341.326 89.6758C341.373 89.4883 341.431 89.3242 341.502 89.1836C341.619 88.9727 341.795 88.8203 342.029 88.7266C342.521 88.3516 343.002 87.9531 343.47 87.5312C343.963 87.1094 344.443 86.6992 344.912 86.3008C345.404 85.9023 345.908 85.5273 346.423 85.1758C346.939 84.8008 347.502 84.4844 348.111 84.2266C348.533 84.2969 348.861 84.4258 349.095 84.6133C349.353 84.8008 349.541 85.0234 349.658 85.2812C349.798 85.5391 349.904 85.832 349.974 86.1602C350.045 86.4648 350.115 86.7695 350.185 87.0742C350.302 87.4727 350.443 87.8125 350.607 88.0938C350.771 88.375 351.052 88.6094 351.451 88.7969C351.123 89.3594 350.994 89.9219 351.064 90.4844C351.134 91.0234 351.205 91.5977 351.275 92.207C351.345 92.7695 351.334 93.3203 351.24 93.8594C351.17 94.3984 350.83 94.8789 350.22 95.3008C350.173 95.4648 350.162 95.6406 350.185 95.8281C350.209 96.0156 350.22 96.2031 350.22 96.3906C350.22 96.5781 350.185 96.7539 350.115 96.918C350.045 97.082 349.916 97.2109 349.728 97.3047C349.939 97.5625 350.045 97.8203 350.045 98.0781C350.068 98.3359 350.08 98.582 350.08 98.8164C350.103 99.0508 350.162 99.2617 350.255 99.4492C350.373 99.6367 350.63 99.7773 351.029 99.8711C351.099 100.176 351.158 100.41 351.205 100.574C351.275 100.715 351.345 100.832 351.416 100.926C351.509 101.02 351.627 101.113 351.767 101.207C351.908 101.277 352.095 101.395 352.33 101.559C352.517 101.605 352.728 101.605 352.963 101.559C353.197 101.512 353.384 101.582 353.525 101.77C353.642 101.652 353.783 101.594 353.947 101.594C354.111 101.57 354.263 101.57 354.404 101.594L354.861 102.367C355.119 102.18 355.412 102.016 355.74 101.875C356.068 101.734 356.384 101.617 356.689 101.523C357.041 101.43 357.392 101.348 357.744 101.277L361.013 99.3086ZM347.513 87.2852C347.302 87.4727 347.045 87.6602 346.74 87.8477C346.435 88.0352 346.13 88.2344 345.826 88.4453C345.545 88.6562 345.298 88.8906 345.088 89.1484C344.877 89.3828 344.748 89.6641 344.701 89.9922C344.162 90.0859 343.787 90.3086 343.576 90.6602C343.365 91.0117 343.189 91.3984 343.048 91.8203C342.908 92.2422 342.755 92.6641 342.591 93.0859C342.427 93.4844 342.134 93.8008 341.713 94.0352C341.572 94.1289 341.443 94.1758 341.326 94.1758C341.349 94.1758 341.279 94.2227 341.115 94.3164C340.857 94.5039 340.634 94.7383 340.447 95.0195C340.259 95.3008 340.095 95.6055 339.955 95.9336C339.838 96.2617 339.72 96.6016 339.603 96.9531C339.509 97.2812 339.416 97.5859 339.322 97.8672C338.994 97.9141 338.748 97.9844 338.584 98.0781C338.42 98.1719 338.314 98.2773 338.267 98.3945C338.244 98.4883 338.255 98.6055 338.302 98.7461C338.349 98.8867 338.42 99.0391 338.513 99.2031C338.607 99.3438 338.701 99.5078 338.795 99.6953C338.912 99.8828 339.005 100.07 339.076 100.258C339.146 100.445 339.181 100.633 339.181 100.82C339.205 101.008 339.158 101.184 339.041 101.348C339.369 101.605 339.685 101.664 339.99 101.523C340.295 101.359 340.576 101.184 340.834 100.996C340.927 100.926 341.021 100.855 341.115 100.785C341.232 100.691 341.349 100.621 341.466 100.574C342.005 100.691 342.498 100.656 342.943 100.469C343.388 100.281 343.798 100.023 344.173 99.6953C344.548 99.3672 344.912 99.0156 345.263 98.6406C345.615 98.2656 345.966 97.9375 346.318 97.6562L346.037 97.375C346.459 97.2578 346.752 97.1055 346.916 96.918C347.103 96.707 347.22 96.4727 347.267 96.2148C347.314 95.957 347.314 95.6875 347.267 95.4062C347.22 95.1016 347.185 94.7852 347.162 94.457C347.138 94.2695 347.127 94.0938 347.127 93.9297C347.15 93.7422 347.197 93.5547 347.267 93.3672C347.08 92.8281 347.045 92.3125 347.162 91.8203C347.302 91.3281 347.478 90.8594 347.689 90.4141C347.923 89.9453 348.146 89.4766 348.357 89.0078C348.568 88.5391 348.673 88.0469 348.673 87.5312L347.513 87.2852ZM378.873 101.734C378.896 102.016 378.849 102.227 378.732 102.367C378.615 102.508 378.451 102.613 378.24 102.684C378.052 102.754 377.841 102.812 377.607 102.859C377.373 102.883 377.173 102.941 377.009 103.035C376.33 102.965 375.673 102.871 375.041 102.754C374.408 102.613 373.822 102.414 373.283 102.156C372.744 101.875 372.252 101.512 371.806 101.066C371.384 100.621 371.021 100.059 370.716 99.3789C371.021 98.8867 371.127 98.3477 371.033 97.7617C370.939 97.1523 370.845 96.5664 370.752 96.0039C370.681 95.4414 370.693 94.9258 370.787 94.457C370.904 93.9883 371.314 93.6133 372.017 93.332C371.97 93.0742 371.97 92.793 372.017 92.4883C372.088 92.1836 372.005 91.9258 371.771 91.7148C370.951 91.9961 370.236 92.3945 369.627 92.9102C369.017 93.4258 368.431 93.9883 367.869 94.5977C367.33 95.207 366.779 95.8281 366.216 96.4609C365.677 97.0703 365.08 97.6094 364.423 98.0781C364.119 98.1016 363.791 98.0898 363.439 98.043C363.111 97.9727 362.83 98.0664 362.595 98.3242C362.619 98.4883 362.677 98.6289 362.771 98.7461C362.865 98.8633 362.935 98.9805 362.982 99.0977C363.052 99.2148 363.088 99.3438 363.088 99.4844C363.088 99.6016 363.005 99.7422 362.841 99.9062C362.607 100.141 362.349 100.34 362.068 100.504C361.81 100.645 361.552 100.809 361.295 100.996C361.06 101.16 360.861 101.359 360.697 101.594C360.533 101.828 360.451 102.145 360.451 102.543C360.31 102.473 360.181 102.461 360.064 102.508C359.947 102.531 359.841 102.59 359.748 102.684C359.63 102.777 359.525 102.883 359.431 103C359.338 103.117 359.244 103.211 359.15 103.281C359.103 103.398 359.115 103.492 359.185 103.562C359.255 103.656 359.338 103.75 359.431 103.844C359.338 104.102 359.22 104.254 359.08 104.301C358.916 104.371 358.752 104.383 358.588 104.336C358.4 104.289 358.224 104.207 358.06 104.09C357.873 103.996 357.709 103.914 357.568 103.844C357.498 103.539 357.451 103.188 357.427 102.789C357.404 102.391 357.416 102.004 357.463 101.629C357.509 101.23 357.603 100.855 357.744 100.504C357.884 100.152 358.095 99.8594 358.377 99.625C358.47 99.5547 358.529 99.5195 358.552 99.5195C358.576 99.4961 358.588 99.4844 358.588 99.4844C358.588 99.4844 358.599 99.4844 358.623 99.4844C358.646 99.4609 358.693 99.4141 358.763 99.3438C358.951 99.1328 359.08 98.9102 359.15 98.6758C359.22 98.418 359.279 98.1602 359.326 97.9023C359.373 97.6445 359.443 97.3984 359.537 97.1641C359.607 96.9062 359.748 96.6836 359.959 96.4961C359.865 96.1211 359.865 95.793 359.959 95.5117C360.076 95.207 360.216 94.9258 360.38 94.668C360.568 94.3867 360.744 94.1172 360.908 93.8594C361.095 93.5781 361.213 93.2734 361.259 92.9453C361.283 92.8281 361.283 92.7227 361.259 92.6289C361.259 92.5117 361.259 92.3945 361.259 92.2773C361.213 91.9023 361.248 91.6211 361.365 91.4336C361.505 91.2227 361.67 91.0586 361.857 90.9414C362.068 90.8008 362.279 90.6602 362.49 90.5195C362.724 90.3789 362.923 90.168 363.088 89.8867C363.767 90.2148 364.166 90.6602 364.283 91.2227C364.423 91.7617 364.47 92.3711 364.423 93.0508C364.025 93.3086 363.72 93.6719 363.509 94.1406C363.298 94.5859 363.158 95.0195 363.088 95.4414C363.134 95.582 363.193 95.6641 363.263 95.6875C363.357 95.6875 363.451 95.6758 363.545 95.6523C363.662 95.6055 363.767 95.5586 363.861 95.5117C363.955 95.4648 364.048 95.4414 364.142 95.4414C364.986 94.8555 365.818 94.1992 366.638 93.4727C367.482 92.7461 368.138 91.9141 368.607 90.9766C369.287 90.6484 369.931 90.2734 370.541 89.8516C371.15 89.4062 371.818 89.0781 372.545 88.8672L373.353 88.0586C373.47 88.2461 373.611 88.293 373.775 88.1992C373.939 88.082 374.103 87.9531 374.267 87.8125C374.431 87.6719 374.584 87.5898 374.724 87.5664C374.888 87.543 375.041 87.707 375.181 88.0586C375.416 88.668 375.474 89.2656 375.357 89.8516C375.24 90.4141 375.052 90.9766 374.795 91.5391C374.56 92.0781 374.314 92.6289 374.056 93.1914C373.798 93.7539 373.646 94.3281 373.599 94.9141C373.599 95.0547 373.599 95.207 373.599 95.3711C373.599 95.5117 373.588 95.6641 373.564 95.8281C373.517 96.3203 373.447 96.8594 373.353 97.4453C373.283 98.0078 373.318 98.5234 373.459 98.9922C373.576 99.4141 373.822 99.7891 374.197 100.117C374.572 100.445 374.9 100.773 375.181 101.102C375.345 101.078 375.509 101.09 375.673 101.137C375.838 101.184 375.99 101.23 376.13 101.277C376.295 101.324 376.447 101.348 376.588 101.348C376.728 101.324 376.869 101.242 377.009 101.102C377.173 101.031 377.326 101.043 377.466 101.137C377.63 101.207 377.783 101.301 377.923 101.418C378.064 101.535 378.205 101.641 378.345 101.734C378.509 101.805 378.685 101.805 378.873 101.734ZM405.416 99.3086C405.088 99.8711 404.83 100.328 404.642 100.68C404.478 101.008 404.302 101.289 404.115 101.523C403.951 101.734 403.752 101.934 403.517 102.121C403.306 102.285 403.002 102.496 402.603 102.754C402.345 102.988 402.088 103.188 401.83 103.352C401.619 103.516 401.408 103.656 401.197 103.773C401.009 103.891 400.857 103.949 400.74 103.949C400.693 103.949 400.646 103.938 400.599 103.914C400.552 103.914 400.505 103.914 400.459 103.914C400.318 103.914 400.177 103.914 400.037 103.914C399.92 103.938 399.814 103.855 399.72 103.668C399.65 103.738 399.591 103.82 399.545 103.914C399.498 104.008 399.451 104.09 399.404 104.16C399.357 104.254 399.287 104.324 399.193 104.371C399.123 104.418 399.017 104.418 398.877 104.371L398.701 104.16L398.173 104.617C397.517 104.289 396.884 104.008 396.275 103.773C395.689 103.562 395.162 103.305 394.693 103C394.224 102.695 393.826 102.309 393.498 101.84C393.17 101.348 392.935 100.68 392.795 99.8359C392.677 99.6953 392.548 99.5781 392.408 99.4844C392.267 99.3672 392.103 99.332 391.916 99.3789C391.681 99.7773 391.4 100.117 391.072 100.398C390.744 100.68 390.416 100.984 390.088 101.312C389.97 101.43 389.877 101.559 389.806 101.699C389.736 101.84 389.642 101.969 389.525 102.086C389.338 102.297 389.115 102.449 388.857 102.543C388.599 102.613 388.341 102.684 388.084 102.754C387.826 102.824 387.58 102.941 387.345 103.105C387.134 103.27 386.982 103.551 386.888 103.949C386.607 103.785 386.326 103.738 386.045 103.809C385.834 103.855 385.611 103.902 385.377 103.949C385.142 104.02 384.908 104.055 384.673 104.055C384.463 104.078 384.252 104.055 384.041 103.984C383.83 103.914 383.642 103.762 383.478 103.527C383.15 103.668 382.845 103.656 382.564 103.492C382.283 103.352 382.013 103.152 381.755 102.895C381.521 102.613 381.287 102.32 381.052 102.016C380.818 101.711 380.595 101.488 380.384 101.348C380.244 100.973 380.255 100.656 380.42 100.398C380.56 100.117 380.724 99.8594 380.912 99.625C381.076 99.3672 381.193 99.1211 381.263 98.8867C381.334 98.6289 381.228 98.3242 380.947 97.9727C381.181 97.6211 381.392 97.2578 381.58 96.8828C381.767 96.4844 381.955 96.0977 382.142 95.7227C382.353 95.3242 382.564 94.9492 382.775 94.5977C383.009 94.2227 383.291 93.9062 383.619 93.6484C383.478 93.4844 383.408 93.332 383.408 93.1914C383.408 93.0273 383.443 92.875 383.513 92.7344C383.584 92.5703 383.666 92.418 383.759 92.2773C383.853 92.1133 383.923 91.9609 383.97 91.8203L384.99 91.3281L384.744 90.4844C385.002 90.5312 385.189 90.5195 385.306 90.4492C385.447 90.3789 385.541 90.2734 385.588 90.1328C385.658 89.9922 385.705 89.8398 385.728 89.6758C385.775 89.4883 385.834 89.3242 385.904 89.1836C386.021 88.9727 386.197 88.8203 386.431 88.7266C386.923 88.3516 387.404 87.9531 387.873 87.5312C388.365 87.1094 388.845 86.6992 389.314 86.3008C389.806 85.9023 390.31 85.5273 390.826 85.1758C391.341 84.8008 391.904 84.4844 392.513 84.2266C392.935 84.2969 393.263 84.4258 393.498 84.6133C393.755 84.8008 393.943 85.0234 394.06 85.2812C394.201 85.5391 394.306 85.832 394.377 86.1602C394.447 86.4648 394.517 86.7695 394.588 87.0742C394.705 87.4727 394.845 87.8125 395.009 88.0938C395.173 88.375 395.455 88.6094 395.853 88.7969C395.525 89.3594 395.396 89.9219 395.466 90.4844C395.537 91.0234 395.607 91.5977 395.677 92.207C395.748 92.7695 395.736 93.3203 395.642 93.8594C395.572 94.3984 395.232 94.8789 394.623 95.3008C394.576 95.4648 394.564 95.6406 394.588 95.8281C394.611 96.0156 394.623 96.2031 394.623 96.3906C394.623 96.5781 394.588 96.7539 394.517 96.918C394.447 97.082 394.318 97.2109 394.13 97.3047C394.341 97.5625 394.447 97.8203 394.447 98.0781C394.47 98.3359 394.482 98.582 394.482 98.8164C394.505 99.0508 394.564 99.2617 394.658 99.4492C394.775 99.6367 395.033 99.7773 395.431 99.8711C395.502 100.176 395.56 100.41 395.607 100.574C395.677 100.715 395.748 100.832 395.818 100.926C395.912 101.02 396.029 101.113 396.17 101.207C396.31 101.277 396.498 101.395 396.732 101.559C396.92 101.605 397.13 101.605 397.365 101.559C397.599 101.512 397.787 101.582 397.927 101.77C398.045 101.652 398.185 101.594 398.349 101.594C398.513 101.57 398.666 101.57 398.806 101.594L399.263 102.367C399.521 102.18 399.814 102.016 400.142 101.875C400.47 101.734 400.787 101.617 401.091 101.523C401.443 101.43 401.795 101.348 402.146 101.277L405.416 99.3086ZM391.916 87.2852C391.705 87.4727 391.447 87.6602 391.142 87.8477C390.838 88.0352 390.533 88.2344 390.228 88.4453C389.947 88.6562 389.701 88.8906 389.49 89.1484C389.279 89.3828 389.15 89.6641 389.103 89.9922C388.564 90.0859 388.189 90.3086 387.978 90.6602C387.767 91.0117 387.591 91.3984 387.451 91.8203C387.31 92.2422 387.158 92.6641 386.994 93.0859C386.83 93.4844 386.537 93.8008 386.115 94.0352C385.974 94.1289 385.845 94.1758 385.728 94.1758C385.752 94.1758 385.681 94.2227 385.517 94.3164C385.259 94.5039 385.037 94.7383 384.849 95.0195C384.662 95.3008 384.498 95.6055 384.357 95.9336C384.24 96.2617 384.123 96.6016 384.005 96.9531C383.912 97.2812 383.818 97.5859 383.724 97.8672C383.396 97.9141 383.15 97.9844 382.986 98.0781C382.822 98.1719 382.716 98.2773 382.67 98.3945C382.646 98.4883 382.658 98.6055 382.705 98.7461C382.752 98.8867 382.822 99.0391 382.916 99.2031C383.009 99.3438 383.103 99.5078 383.197 99.6953C383.314 99.8828 383.408 100.07 383.478 100.258C383.548 100.445 383.584 100.633 383.584 100.82C383.607 101.008 383.56 101.184 383.443 101.348C383.771 101.605 384.088 101.664 384.392 101.523C384.697 101.359 384.978 101.184 385.236 100.996C385.33 100.926 385.423 100.855 385.517 100.785C385.634 100.691 385.752 100.621 385.869 100.574C386.408 100.691 386.9 100.656 387.345 100.469C387.791 100.281 388.201 100.023 388.576 99.6953C388.951 99.3672 389.314 99.0156 389.666 98.6406C390.017 98.2656 390.369 97.9375 390.72 97.6562L390.439 97.375C390.861 97.2578 391.154 97.1055 391.318 96.918C391.505 96.707 391.623 96.4727 391.67 96.2148C391.716 95.957 391.716 95.6875 391.67 95.4062C391.623 95.1016 391.588 94.7852 391.564 94.457C391.541 94.2695 391.529 94.0938 391.529 93.9297C391.552 93.7422 391.599 93.5547 391.67 93.3672C391.482 92.8281 391.447 92.3125 391.564 91.8203C391.705 91.3281 391.88 90.8594 392.091 90.4141C392.326 89.9453 392.548 89.4766 392.759 89.0078C392.97 88.5391 393.076 88.0469 393.076 87.5312L391.916 87.2852ZM453.838 55.9375C453.4 56.5625 452.931 57.1562 452.431 57.7188C451.963 58.25 451.369 58.6719 450.65 58.9844C450.275 61.1406 449.963 63.3125 449.713 65.5C449.494 67.6875 449.244 69.875 448.963 72.0625C448.713 74.25 448.416 76.4375 448.072 78.625C447.759 80.7812 447.322 82.9219 446.759 85.0469L446.806 85.6094C446.869 86.2344 446.791 86.8281 446.572 87.3906C446.353 87.9531 446.259 88.5625 446.291 89.2188C445.853 90.3125 445.478 91.5312 445.166 92.875C444.853 94.1875 444.666 95.4375 444.603 96.625C444.291 97.1562 444.025 97.7344 443.806 98.3594C443.619 98.9844 443.416 99.625 443.197 100.281C443.009 100.906 442.791 101.516 442.541 102.109C442.291 102.672 441.963 103.188 441.556 103.656C441.463 104.375 441.275 105.047 440.994 105.672C440.744 106.328 440.447 106.969 440.103 107.594C439.791 108.219 439.478 108.828 439.166 109.422C438.884 110.047 438.681 110.703 438.556 111.391C438.025 112.203 437.494 112.984 436.963 113.734C436.431 114.516 435.947 115.328 435.509 116.172C435.103 116.359 434.744 116.562 434.431 116.781C434.15 117.031 433.869 117.25 433.588 117.438C433.306 117.656 432.978 117.844 432.603 118C432.259 118.156 431.838 118.234 431.338 118.234C431.213 118.234 431.088 118.219 430.963 118.188C430.869 118.188 430.759 118.188 430.634 118.188C430.197 117.844 429.759 117.5 429.322 117.156C428.884 116.844 428.416 116.562 427.916 116.312C427.916 116.125 427.884 115.969 427.822 115.844C427.791 115.719 427.759 115.594 427.728 115.469C427.697 115.344 427.681 115.219 427.681 115.094C427.681 114.969 427.713 114.812 427.775 114.625C427.494 114.438 427.166 114.094 426.791 113.594C426.447 113.125 426.275 112.719 426.275 112.375C426.275 112.062 426.384 111.906 426.603 111.906C426.541 111.594 426.431 111.281 426.275 110.969C426.15 110.688 426.088 110.391 426.088 110.078C426.088 109.859 426.15 109.625 426.275 109.375C425.931 108.562 425.619 107.719 425.338 106.844C425.056 106 424.869 105.125 424.775 104.219C424.463 103.812 424.213 103.344 424.025 102.812C423.869 102.25 423.744 101.672 423.65 101.078C423.556 100.484 423.478 99.9062 423.416 99.3438C423.353 98.75 423.275 98.2031 423.181 97.7031C423.15 97.5156 423.072 97.2188 422.947 96.8125C422.822 96.375 422.759 96.0781 422.759 95.9219C422.759 95.7344 422.791 95.5938 422.853 95.5C422.947 95.4062 423.025 95.2812 423.088 95.125C422.713 93.625 422.4 92.1094 422.15 90.5781C421.931 89.0469 421.713 87.5156 421.494 85.9844C421.306 84.4531 421.072 82.9375 420.791 81.4375C420.541 79.9062 420.181 78.4062 419.713 76.9375V76.5156C419.713 75.5156 419.322 74.7188 418.541 74.125C418.697 73.6562 418.775 73.2656 418.775 72.9531C418.775 72.5469 418.713 72.1562 418.588 71.7812C418.494 71.4062 418.384 71.0312 418.259 70.6562C418.134 70.2812 418.041 69.9062 417.978 69.5312C417.947 69.1562 417.978 68.7812 418.072 68.4062C417.728 68.0312 417.447 67.625 417.228 67.1875C417.009 66.75 416.728 66.375 416.384 66.0625L416.338 65.7812C416.338 65.625 416.384 65.4844 416.478 65.3594C416.541 65.2344 416.572 65.0938 416.572 64.9375C416.572 64.7188 416.525 64.5312 416.431 64.375C416.306 64.2188 416.181 64.0781 416.056 63.9531C415.9 63.8281 415.775 63.7031 415.681 63.5781C415.556 63.4531 415.494 63.3125 415.494 63.1562C415.494 62.7812 415.619 62.4844 415.869 62.2656C416.119 62.0469 416.4 61.8594 416.713 61.7031C417.025 61.5156 417.322 61.3281 417.603 61.1406C417.916 60.9531 418.119 60.6875 418.213 60.3438C418.463 60.4062 418.713 60.4531 418.963 60.4844C419.213 60.4844 419.463 60.5469 419.713 60.6719C419.744 60.6406 419.759 60.5938 419.759 60.5312C419.759 60.4375 419.603 60.3594 419.291 60.2969C419.009 60.2031 418.822 60.0938 418.728 59.9688C418.978 59.9062 419.166 59.875 419.291 59.875C419.916 59.875 420.509 60.0312 421.072 60.3438C421.666 60.6562 422.228 60.9844 422.759 61.3281C422.822 61.6094 422.838 61.9062 422.806 62.2188C422.775 62.5 422.869 62.7656 423.088 63.0156C423.056 63.1719 423.041 63.3125 423.041 63.4375C423.072 63.5625 423.088 63.6875 423.088 63.8125C423.088 63.9688 423.056 64.1094 422.994 64.2344C422.963 64.3281 422.884 64.375 422.759 64.375C422.978 64.75 423.119 65.2031 423.181 65.7344C423.275 66.2656 423.353 66.8125 423.416 67.375C423.509 67.9375 423.619 68.4844 423.744 69.0156C423.869 69.5469 424.103 70.0156 424.447 70.4219C424.384 70.6094 424.338 70.7969 424.306 70.9844C424.306 71.1719 424.306 71.375 424.306 71.5938C424.306 72.5938 424.431 73.5781 424.681 74.5469C424.931 75.5156 425.056 76.5 425.056 77.5C425.056 78.0938 424.963 78.6406 424.775 79.1406C424.775 79.4219 424.869 79.6562 425.056 79.8438C425.244 80 425.369 80.2188 425.431 80.5C425.275 80.875 425.197 81.2344 425.197 81.5781C425.197 82.2969 425.338 82.9844 425.619 83.6406C425.9 84.2656 426.041 84.9219 426.041 85.6094C426.041 85.8281 426.009 86.0312 425.947 86.2188C425.884 86.4062 425.822 86.5781 425.759 86.7344C426.041 87.0156 426.181 87.375 426.181 87.8125C426.213 88.25 426.353 88.6094 426.603 88.8906C426.572 89.0469 426.541 89.2031 426.509 89.3594C426.509 89.5156 426.431 89.6406 426.275 89.7344C426.431 89.9531 426.509 90.25 426.509 90.625C426.541 90.9688 426.681 91.1719 426.931 91.2344C426.869 91.3906 426.822 91.5312 426.791 91.6562C426.759 91.7812 426.744 91.9219 426.744 92.0781C426.744 92.4219 426.791 92.7344 426.884 93.0156L427.166 93.8594C427.259 94.1406 427.322 94.4375 427.353 94.75C427.416 95.0625 427.384 95.4062 427.259 95.7812C427.384 95.9688 427.478 96.1875 427.541 96.4375C427.634 96.6875 427.713 96.9531 427.775 97.2344C427.838 97.4844 427.931 97.7188 428.056 97.9375C428.181 98.125 428.369 98.25 428.619 98.3125C428.65 98.5 428.572 98.5938 428.384 98.5938C428.228 98.5938 428.15 98.6719 428.15 98.8281C428.15 99.0781 428.244 99.3906 428.431 99.7656C428.619 100.109 428.791 100.359 428.947 100.516C428.916 100.641 428.9 100.766 428.9 100.891V101.312C428.9 101.75 428.963 102.203 429.088 102.672C429.213 103.109 429.322 103.547 429.416 103.984C429.541 104.453 429.634 104.906 429.697 105.344C429.759 105.781 429.728 106.188 429.603 106.562C429.853 107 430.072 107.469 430.259 107.969C430.447 108.469 430.744 108.891 431.15 109.234C431.15 109.766 431.259 110.266 431.478 110.734C431.697 111.234 431.978 111.703 432.322 112.141C432.634 112.141 432.869 112.031 433.025 111.812C433.181 111.625 433.306 111.406 433.4 111.156C433.494 110.906 433.603 110.672 433.728 110.453C433.853 110.234 434.056 110.109 434.338 110.078C434.369 109.766 434.447 109.5 434.572 109.281C434.728 109.094 434.869 108.891 434.994 108.672C435.15 108.453 435.275 108.219 435.369 107.969C435.494 107.719 435.541 107.406 435.509 107.031L436.025 106.891C436.181 106.047 436.416 105.281 436.728 104.594C437.072 103.938 437.447 103.25 437.853 102.531V102.297C437.853 101.984 437.9 101.719 437.994 101.5C438.088 101.281 438.103 101 438.041 100.656C438.259 100.594 438.416 100.469 438.509 100.281C438.603 100.094 438.681 99.9062 438.744 99.7188C438.806 99.5 438.869 99.2969 438.931 99.1094C439.025 98.8906 439.166 98.7344 439.353 98.6406V98.2656C439.322 97.9844 439.338 97.7188 439.4 97.4688C439.494 97.1875 439.478 96.9062 439.353 96.625C439.603 96.5312 439.791 96.375 439.916 96.1562C440.041 95.9375 440.134 95.7031 440.197 95.4531C440.291 95.2031 440.338 94.9375 440.338 94.6562C440.369 94.375 440.384 94.125 440.384 93.9062C440.603 93.625 440.759 93.2969 440.853 92.9219C440.947 92.5156 441.025 92.1094 441.088 91.7031C441.15 91.2969 441.228 90.9062 441.322 90.5312C441.447 90.1562 441.634 89.8281 441.884 89.5469C441.822 89.3906 441.791 89.25 441.791 89.125V88.7031C441.791 88.1094 441.884 87.5781 442.072 87.1094C442.259 86.6094 442.431 86.0781 442.588 85.5156C442.994 84.1094 443.275 82.6719 443.431 81.2031C443.619 79.7031 443.884 78.2344 444.228 76.7969C444.259 76.6406 444.322 76.3906 444.416 76.0469C444.509 75.7031 444.603 75.3594 444.697 75.0156C444.791 74.6406 444.869 74.3125 444.931 74.0312C445.025 73.7188 445.072 73.5156 445.072 73.4219C445.072 73.1719 445.009 73 444.884 72.9062C444.791 72.8125 444.744 72.6562 444.744 72.4375C444.931 72.1562 445.056 71.7969 445.119 71.3594C445.181 70.9219 445.228 70.4688 445.259 70C445.291 69.5 445.291 69.0312 445.259 68.5938C445.259 68.125 445.259 67.7188 445.259 67.375C445.259 67.0312 445.338 66.5938 445.494 66.0625C445.65 65.5312 445.759 65.0625 445.822 64.6562C445.978 63.5938 446.072 62.5469 446.103 61.5156C446.166 60.4531 446.228 59.3906 446.291 58.3281C446.509 58.2031 446.666 58.0469 446.759 57.8594C446.853 57.6406 446.9 57.4219 446.9 57.2031C446.9 56.8594 446.853 56.5312 446.759 56.2188C446.697 55.9062 446.666 55.5781 446.666 55.2344C446.666 55.0781 446.681 54.9219 446.713 54.7656C446.744 54.5781 446.822 54.4219 446.947 54.2969C446.916 54.0781 446.884 53.8594 446.853 53.6406C446.853 53.4219 446.775 53.2344 446.619 53.0781C446.775 52.6719 446.853 52.2656 446.853 51.8594C446.853 51.4844 446.806 51.1094 446.713 50.7344C446.65 50.3594 446.619 49.9688 446.619 49.5625C446.619 48.7812 446.947 48.2188 447.603 47.875H448.259C448.572 47.875 448.884 47.8594 449.197 47.8281C449.509 47.7969 449.838 47.7031 450.181 47.5469C450.588 47.9844 451.009 48.4688 451.447 49C451.884 49.5 452.259 50.0469 452.572 50.6406C452.884 51.2344 453.119 51.8438 453.275 52.4688C453.431 53.0938 453.447 53.75 453.322 54.4375C453.447 54.6875 453.525 54.9375 453.556 55.1875C453.588 55.4375 453.681 55.6875 453.838 55.9375ZM444.275 81.4844C444.15 81.4531 444.056 81.4062 443.994 81.3438C443.963 81.25 443.869 81.1875 443.713 81.1562V81.6719H444.088L444.275 81.4844ZM462.65 81.0625C462.228 81.2266 461.994 81.4727 461.947 81.8008C461.9 82.1289 461.877 82.4688 461.877 82.8203C461.9 83.1719 461.888 83.5 461.841 83.8047C461.795 84.1094 461.56 84.3086 461.138 84.4023C460.974 84.1211 460.763 83.8633 460.505 83.6289C460.271 83.3711 460.037 83.125 459.802 82.8906C459.568 82.6328 459.38 82.3633 459.24 82.082C459.099 81.8008 459.052 81.4609 459.099 81.0625L460.857 79.0234C461.138 79.1172 461.361 79.2344 461.525 79.375C461.689 79.5156 461.83 79.6797 461.947 79.8672C462.064 80.0547 462.17 80.2539 462.263 80.4648C462.38 80.6523 462.509 80.8516 462.65 81.0625ZM469.47 96.8125C469.494 97.3281 469.447 97.6914 469.33 97.9023C469.236 98.1133 469.119 98.2891 468.978 98.4297C468.838 98.5469 468.709 98.6875 468.591 98.8516C468.498 98.9922 468.451 99.25 468.451 99.625C467.912 100.211 467.478 100.645 467.15 100.926C466.822 101.184 466.505 101.406 466.201 101.594C465.896 101.758 465.556 101.945 465.181 102.156C464.806 102.367 464.291 102.695 463.634 103.141L463.388 103.176C463.318 103.527 463.189 103.727 463.002 103.773C462.838 103.844 462.638 103.879 462.404 103.879C462.193 103.879 461.982 103.902 461.771 103.949C461.56 103.996 461.384 104.195 461.244 104.547C460.845 104.664 460.505 104.711 460.224 104.688C459.943 104.664 459.58 104.652 459.134 104.652C458.994 104.652 458.806 104.641 458.572 104.617C458.361 104.594 458.185 104.605 458.045 104.652C457.951 104.676 457.845 104.734 457.728 104.828C457.634 104.945 457.529 105.039 457.412 105.109C457.295 105.18 457.177 105.203 457.06 105.18C456.943 105.18 456.838 105.086 456.744 104.898C456.463 104.969 456.205 104.969 455.97 104.898C455.736 104.828 455.513 104.711 455.302 104.547C455.091 104.383 454.892 104.184 454.705 103.949C454.541 103.738 454.377 103.539 454.213 103.352C454.095 103.211 453.966 103.082 453.826 102.965C453.685 102.848 453.556 102.73 453.439 102.613C453.181 102.355 452.994 102.027 452.877 101.629C452.759 101.23 452.689 100.82 452.666 100.398C452.642 99.9766 452.654 99.5547 452.701 99.1328C452.748 98.7109 452.818 98.3359 452.912 98.0078C453.123 97.7969 453.275 97.5625 453.369 97.3047C453.439 97.0234 453.498 96.7422 453.545 96.4609C453.615 96.1797 453.685 95.9102 453.755 95.6523C453.849 95.3711 454.002 95.125 454.213 94.9141C454.213 94.6094 454.259 94.3281 454.353 94.0703C454.47 93.8125 454.611 93.5664 454.775 93.332C454.963 93.0977 455.162 92.8867 455.373 92.6992C455.607 92.4883 455.818 92.2891 456.005 92.1016C456.193 92.1016 456.38 92.1016 456.568 92.1016C456.755 92.0781 456.931 92.0898 457.095 92.1367C457.259 92.1602 457.4 92.2305 457.517 92.3477C457.634 92.4414 457.728 92.6055 457.798 92.8398C457.963 93.4727 457.916 93.9883 457.658 94.3867C457.423 94.7617 457.154 95.125 456.849 95.4766C456.545 95.8281 456.298 96.1914 456.111 96.5664C455.923 96.9414 455.97 97.4219 456.252 98.0078C455.994 98.0078 455.818 98.0781 455.724 98.2188C455.654 98.3594 455.595 98.5234 455.548 98.7109C455.525 98.875 455.478 99.0391 455.408 99.2031C455.338 99.3672 455.197 99.4844 454.986 99.5547C455.127 99.6953 455.197 99.9414 455.197 100.293C455.22 100.645 455.255 100.984 455.302 101.312C455.373 101.617 455.478 101.863 455.619 102.051C455.783 102.238 456.076 102.25 456.498 102.086C456.802 102.344 457.166 102.449 457.588 102.402C458.033 102.355 458.443 102.344 458.818 102.367C459.146 102.156 459.427 102.051 459.662 102.051C459.896 102.027 460.119 102.051 460.33 102.121C460.541 102.168 460.763 102.215 460.998 102.262C461.232 102.309 461.513 102.273 461.841 102.156C461.935 101.758 462.099 101.523 462.334 101.453C462.568 101.383 462.802 101.348 463.037 101.348C463.271 101.324 463.482 101.277 463.67 101.207C463.88 101.137 464.021 100.902 464.091 100.504C464.279 100.27 464.502 100.141 464.759 100.117C465.017 100.07 465.275 100.023 465.533 99.9766C465.814 99.9297 466.06 99.8359 466.271 99.6953C466.505 99.5312 466.67 99.2266 466.763 98.7812C467.162 98.4766 467.443 98.2539 467.607 98.1133C467.795 97.9492 467.947 97.8203 468.064 97.7266C468.181 97.6328 468.334 97.5273 468.521 97.4102C468.709 97.293 469.025 97.0938 469.47 96.8125ZM492.99 92.2422C492.779 92.4531 492.615 92.6172 492.498 92.7344C492.404 92.8516 492.31 92.9688 492.216 93.0859C492.146 93.1797 492.052 93.2852 491.935 93.4023C491.841 93.5195 491.689 93.6953 491.478 93.9297C491.291 94.1172 491.115 94.3164 490.951 94.5273C490.787 94.7383 490.599 94.9258 490.388 95.0898C490.107 95.0195 489.884 95.0547 489.72 95.1953C489.58 95.3359 489.439 95.5 489.298 95.6875C489.181 95.8516 489.064 96.0156 488.947 96.1797C488.853 96.3203 488.724 96.3789 488.56 96.3555C487.998 96.6602 487.435 96.9297 486.873 97.1641C486.31 97.375 485.771 97.6914 485.255 98.1133L484.974 97.832L481.318 99.5898C481.201 99.6367 481.084 99.707 480.966 99.8008C480.849 99.8945 480.732 99.9766 480.615 100.047C480.099 100.328 479.56 100.586 478.998 100.82C478.459 101.031 477.92 101.23 477.38 101.418L476.923 101.559C477.111 102.027 477.111 102.355 476.923 102.543C476.736 102.73 476.466 102.871 476.115 102.965C475.763 103.035 475.377 103.082 474.955 103.105C474.533 103.129 474.205 103.211 473.97 103.352C473.689 103.305 473.396 103.281 473.091 103.281C472.81 103.305 472.517 103.34 472.213 103.387C471.884 103.434 471.58 103.457 471.298 103.457C471.017 103.457 470.713 103.422 470.384 103.352H470.314C469.916 103.539 469.564 103.574 469.259 103.457C468.978 103.363 468.72 103.199 468.486 102.965C468.252 102.707 468.029 102.414 467.818 102.086C467.63 101.734 467.431 101.418 467.22 101.137C467.08 100.949 466.904 100.68 466.693 100.328C466.482 99.9766 466.306 99.6016 466.166 99.2031C466.002 98.8047 465.908 98.4062 465.884 98.0078C465.838 97.5859 465.92 97.2227 466.13 96.918C466.341 96.6133 466.517 96.2852 466.658 95.9336C466.775 95.582 466.834 95.1719 466.834 94.7031C466.834 94.5391 466.834 94.3867 466.834 94.2461C466.81 94.1055 466.798 93.9531 466.798 93.7891C466.916 93.7891 467.045 93.8008 467.185 93.8242C467.326 93.8242 467.455 93.8242 467.572 93.8242C467.713 93.8008 467.818 93.7539 467.888 93.6836C467.982 93.5898 468.029 93.4375 468.029 93.2266C468.029 93.1094 467.982 93.0156 467.888 92.9453C467.818 92.875 467.771 92.8047 467.748 92.7344C467.888 92.5234 468.017 92.3594 468.134 92.2422C468.275 92.1016 468.392 91.9727 468.486 91.8555C468.58 91.7148 468.65 91.5625 468.697 91.3984C468.744 91.2109 468.732 90.9648 468.662 90.6602C468.943 90.168 469.271 89.7344 469.646 89.3594C470.045 88.9609 470.455 88.5977 470.877 88.2695C471.298 87.918 471.732 87.5781 472.177 87.25C472.623 86.9219 473.045 86.5703 473.443 86.1953C473.888 86.3828 474.24 86.3828 474.498 86.1953C474.779 86.0078 475.025 85.8086 475.236 85.5977C475.447 85.3633 475.658 85.1758 475.869 85.0352C476.08 84.8945 476.361 84.9531 476.713 85.2109L476.783 85.2812C477.416 84.6484 478.048 84.3672 478.681 84.4375C479.338 84.5078 479.888 84.7188 480.334 85.0703C480.802 85.4219 481.107 85.832 481.248 86.3008C481.388 86.7461 481.259 87.0508 480.861 87.2148C481.119 87.4727 481.248 87.7773 481.248 88.1289C481.248 88.4805 481.154 88.7852 480.966 89.043C480.755 89.3242 480.568 89.6172 480.404 89.9219C480.263 90.2031 480.111 90.5078 479.947 90.8359C479.713 91.375 479.455 91.8906 479.173 92.3828C478.892 92.8516 478.494 93.25 477.978 93.5781C477.556 93.4609 477.263 93.5078 477.099 93.7188C476.959 93.9297 476.853 94.1641 476.783 94.4219C476.713 94.6562 476.63 94.8438 476.537 94.9844C476.443 95.125 476.244 95.0781 475.939 94.8438L475.869 94.7734L475.798 94.8438C475.611 95.0312 475.459 95.2422 475.341 95.4766C475.248 95.7109 475.107 95.8867 474.92 96.0039C474.709 95.9336 474.486 95.875 474.252 95.8281C474.017 95.7812 473.795 95.7344 473.584 95.6875C473.584 96.1797 473.49 96.5664 473.302 96.8477C473.115 97.1289 472.869 97.3633 472.564 97.5508C472.283 97.7148 471.955 97.8555 471.58 97.9727C471.205 98.0664 470.83 98.1953 470.455 98.3594C470.103 98.5 469.763 98.6875 469.435 98.9219C469.13 99.1328 468.884 99.4375 468.697 99.8359C468.931 100.094 469.224 100.246 469.576 100.293C469.927 100.316 470.291 100.316 470.666 100.293C471.041 100.246 471.404 100.223 471.755 100.223C472.13 100.223 472.459 100.316 472.74 100.504L472.775 100.539L472.81 100.504C473.373 100.434 473.912 100.305 474.427 100.117C474.966 99.9062 475.482 99.6953 475.974 99.4844C476.49 99.25 477.005 99.0391 477.521 98.8516C478.06 98.6406 478.611 98.4883 479.173 98.3945C479.291 98.582 479.443 98.6875 479.63 98.7109C479.841 98.7344 480.041 98.7227 480.228 98.6758L480.263 98.6055C480.31 98.4414 480.357 98.3008 480.404 98.1836C480.451 98.043 480.521 97.8906 480.615 97.7266C480.779 97.4688 480.978 97.2695 481.213 97.1289C481.447 96.9883 481.693 96.8828 481.951 96.8125C482.232 96.7422 482.525 96.6953 482.83 96.6719C483.134 96.6484 483.439 96.6133 483.744 96.5664H483.814L483.849 96.4609C483.943 96.1797 484.06 95.9922 484.201 95.8984C484.365 95.7812 484.529 95.6992 484.693 95.6523C484.88 95.6055 485.068 95.5703 485.255 95.5469C485.466 95.5234 485.666 95.4531 485.853 95.3359C486.275 95.4766 486.627 95.4297 486.908 95.1953C487.189 94.9609 487.459 94.7148 487.716 94.457L487.998 94.8086L488.103 94.668C488.455 94.3398 488.713 94.0938 488.877 93.9297C489.064 93.7656 489.24 93.625 489.404 93.5078C489.568 93.3672 489.755 93.2383 489.966 93.1211C490.201 92.9805 490.517 92.7812 490.916 92.5234C491.244 92.3125 491.56 92.1016 491.865 91.8906C492.193 91.6797 492.509 91.4453 492.814 91.1875C492.931 91.2344 492.99 91.3281 492.99 91.4688C492.99 91.5859 492.99 91.7031 492.99 91.8203C492.966 91.8672 492.943 91.9375 492.92 92.0312C492.92 92.125 492.943 92.1953 492.99 92.2422ZM478.435 87.8477C478.412 87.8242 478.388 87.8125 478.365 87.8125C478.365 87.8125 478.353 87.8008 478.33 87.7773C477.838 87.5195 477.427 87.4023 477.099 87.4258C476.771 87.4258 476.466 87.5195 476.185 87.707C475.927 87.8711 475.681 88.0938 475.447 88.375C475.236 88.6328 475.002 88.8789 474.744 89.1133C474.509 89.3242 474.228 89.4883 473.9 89.6055C473.572 89.7227 473.173 89.7109 472.705 89.5703C472.634 89.9453 472.564 90.3203 472.494 90.6953C472.447 91.0469 472.412 91.4102 472.388 91.7852C471.99 91.9258 471.673 92.125 471.439 92.3828C471.228 92.6406 471.041 92.9219 470.877 93.2266C470.736 93.5312 470.595 93.8594 470.455 94.2109C470.338 94.5391 470.173 94.8555 469.963 95.1602L470.103 95.3359C470.197 95.2891 470.302 95.3242 470.42 95.4414C470.537 95.5586 470.619 95.6406 470.666 95.6875C470.923 95.3125 471.263 94.9961 471.685 94.7383C472.13 94.4805 472.576 94.2461 473.021 94.0352C473.49 93.8008 473.935 93.5547 474.357 93.2969C474.779 93.0391 475.095 92.6992 475.306 92.2773C476.056 92.0664 476.619 91.6445 476.994 91.0117C477.369 90.3789 477.685 89.7227 477.943 89.043C477.99 88.9023 478.072 88.7031 478.189 88.4453C478.33 88.1641 478.412 87.9648 478.435 87.8477ZM513.31 96.0391C512.771 96.2969 512.408 96.6133 512.22 96.9883C512.033 97.3633 511.88 97.75 511.763 98.1484C511.67 98.5469 511.541 98.9336 511.377 99.3086C511.236 99.6602 510.92 99.9531 510.427 100.188C510.31 100.609 510.076 100.902 509.724 101.066C509.396 101.23 509.045 101.383 508.67 101.523C508.295 101.641 507.955 101.805 507.65 102.016C507.369 102.227 507.228 102.59 507.228 103.105C506.759 103.363 506.244 103.598 505.681 103.809C505.142 104.02 504.568 104.172 503.959 104.266C503.373 104.383 502.787 104.43 502.201 104.406C501.615 104.383 501.064 104.266 500.548 104.055C500.197 103.891 499.857 103.68 499.529 103.422C499.412 103.328 499.295 103.246 499.177 103.176C499.084 103.129 498.978 103.047 498.861 102.93C498.58 102.648 498.345 102.32 498.158 101.945C497.97 101.57 497.818 101.172 497.701 100.75C497.584 100.328 497.49 99.9062 497.42 99.4844C497.349 99.0625 497.291 98.6641 497.244 98.2891L498.545 94.7734C497.865 94.2344 497.314 93.6133 496.892 92.9102C496.47 92.1836 495.955 91.5156 495.345 90.9062C495.228 91.0703 495.076 91.2109 494.888 91.3281C494.701 91.4453 494.63 91.6328 494.677 91.8906L495.029 92.207C494.255 93.0508 493.47 94.0117 492.673 95.0898C491.9 96.1445 491.291 97.2109 490.845 98.2891C490.33 98.2656 489.966 98.3945 489.755 98.6758C489.545 98.9336 489.369 99.2383 489.228 99.5898C489.088 99.918 488.912 100.223 488.701 100.504C488.49 100.785 488.138 100.902 487.646 100.855C487.529 101.113 487.412 101.395 487.295 101.699C487.177 101.98 487.037 102.25 486.873 102.508C486.709 102.766 486.509 102.977 486.275 103.141C486.041 103.328 485.748 103.422 485.396 103.422C485.209 103.234 485.103 103.035 485.08 102.824C485.056 102.613 485.08 102.402 485.15 102.191C485.22 101.957 485.314 101.734 485.431 101.523C485.548 101.289 485.63 101.066 485.677 100.855C485.865 100.176 486.205 99.5664 486.697 99.0273C487.189 98.4648 487.681 97.9141 488.173 97.375C488.666 96.8125 489.088 96.2266 489.439 95.6172C489.791 95.0078 489.931 94.293 489.861 93.4727C490.166 93.4492 490.47 93.3906 490.775 93.2969C491.103 93.1797 491.396 93.0391 491.654 92.875C491.935 92.6875 492.146 92.4648 492.287 92.207C492.451 91.9258 492.509 91.5977 492.463 91.2227C492.275 91.1289 492.17 91 492.146 90.8359C492.123 90.6484 492.123 90.4609 492.146 90.2734C492.662 90.1094 493.072 89.8281 493.377 89.4297C493.705 89.0078 493.998 88.5625 494.255 88.0938C494.513 87.625 494.759 87.1562 494.994 86.6875C495.252 86.1953 495.58 85.7734 495.978 85.4219C496.306 85.6094 496.634 85.7734 496.963 85.9141C497.291 86.0312 497.607 86.1953 497.912 86.4062C497.701 86.6875 497.572 86.957 497.525 87.2148C497.478 87.4727 497.455 87.7422 497.455 88.0234C497.455 88.2812 497.455 88.5391 497.455 88.7969C497.455 89.0547 497.384 89.3242 497.244 89.6055C497.619 89.9336 497.935 90.3203 498.193 90.7656C498.451 91.2109 498.779 91.5859 499.177 91.8906C499.459 91.6797 499.775 91.5742 500.127 91.5742C500.478 91.5508 500.83 91.5508 501.181 91.5742C501.556 91.5742 501.908 91.5508 502.236 91.5039C502.564 91.4336 502.834 91.2344 503.045 90.9062C503.138 91 503.279 91.0469 503.466 91.0469C503.654 91.0469 503.841 91.0469 504.029 91.0469C504.216 91.0469 504.38 91.082 504.521 91.1523C504.662 91.1992 504.744 91.3047 504.767 91.4688C504.791 91.6562 504.779 91.7852 504.732 91.8555C504.709 91.9258 504.673 92.043 504.627 92.207C504.58 92.3945 504.568 92.4883 504.591 92.4883C504.615 92.4883 504.591 92.5703 504.521 92.7344C504.404 93.0391 504.205 93.2969 503.923 93.5078C503.666 93.7188 503.396 93.9297 503.115 94.1406C502.857 94.3281 502.611 94.5508 502.377 94.8086C502.166 95.043 502.06 95.3477 502.06 95.7227C501.545 95.9102 501.181 96.1914 500.97 96.5664C500.759 96.918 500.619 97.3281 500.548 97.7969C500.478 98.2422 500.431 98.7109 500.408 99.2031C500.384 99.6719 500.302 100.105 500.162 100.504L500.478 100.855L500.759 100.504C501.088 100.973 501.474 101.266 501.92 101.383C502.388 101.5 502.869 101.535 503.361 101.488C503.595 101.137 503.865 100.855 504.17 100.645C504.498 100.434 504.838 100.258 505.189 100.117C505.564 99.9766 505.939 99.8477 506.314 99.7305C506.713 99.6133 507.088 99.4727 507.439 99.3086C507.72 99.168 507.955 99.0156 508.142 98.8516C508.353 98.6875 508.576 98.5 508.81 98.2891C509.513 97.6328 510.205 96.9883 510.884 96.3555C511.588 95.7227 512.291 95.0781 512.994 94.4219C513.134 94.4219 513.228 94.4922 513.275 94.6328C513.322 94.7734 513.345 94.9375 513.345 95.125C513.345 95.2891 513.334 95.4648 513.31 95.6523C513.31 95.8164 513.31 95.9453 513.31 96.0391ZM535.81 101.242C535.529 101.242 535.306 101.254 535.142 101.277C535.002 101.277 534.873 101.289 534.755 101.312C534.638 101.336 534.509 101.383 534.369 101.453C534.228 101.523 534.041 101.629 533.806 101.77C533.713 102.027 533.584 102.227 533.42 102.367C533.279 102.484 533.103 102.59 532.892 102.684C532.705 102.754 532.505 102.836 532.295 102.93C532.084 103 531.884 103.129 531.697 103.316C529.916 103.598 528.345 103.199 526.986 102.121C526.822 102.004 526.67 101.875 526.529 101.734C526.412 101.594 526.271 101.465 526.107 101.348C525.99 101.254 525.92 101.219 525.896 101.242C525.896 101.242 525.849 101.184 525.755 101.066C525.591 100.832 525.486 100.551 525.439 100.223C525.416 99.8711 525.369 99.543 525.298 99.2383C525.228 98.9102 525.088 98.6406 524.877 98.4297C524.689 98.1953 524.349 98.0898 523.857 98.1133C523.623 98.6055 523.283 99.1094 522.838 99.625C522.416 100.117 521.935 100.562 521.396 100.961C520.857 101.359 520.283 101.688 519.673 101.945C519.088 102.203 518.525 102.332 517.986 102.332C517.798 102.871 517.47 103.27 517.002 103.527C516.556 103.809 516.076 104.02 515.56 104.16C515.513 104.184 515.42 104.207 515.279 104.23C515.138 104.277 515.056 104.301 515.033 104.301C514.705 104.324 514.447 104.266 514.259 104.125C514.072 103.984 513.896 103.832 513.732 103.668C513.568 103.504 513.392 103.352 513.205 103.211C513.017 103.07 512.759 103 512.431 103C512.173 102.391 511.916 101.793 511.658 101.207C511.4 100.621 511.213 100.023 511.095 99.4141C511.306 99.2969 511.423 99.1562 511.447 98.9922C511.447 98.8047 511.447 98.6172 511.447 98.4297C511.072 98.3125 510.884 98.1719 510.884 98.0078C510.861 97.8203 510.896 97.6328 510.99 97.4453C511.06 97.2578 511.142 97.082 511.236 96.918C511.306 96.7305 511.259 96.5781 511.095 96.4609C511.283 95.0312 511.693 93.6484 512.326 92.3125C512.959 90.9766 513.861 89.8633 515.033 88.9727C514.892 88.5273 514.927 88.1875 515.138 87.9531C515.373 87.7188 515.642 87.5898 515.947 87.5664C516.275 87.543 516.58 87.625 516.861 87.8125C517.166 87.9766 517.318 88.2461 517.318 88.6211C517.341 88.7852 517.33 88.9492 517.283 89.1133C517.236 89.2773 517.189 89.4297 517.142 89.5703C517.002 90.2734 516.791 90.9531 516.509 91.6094C516.228 92.2656 515.923 92.9102 515.595 93.543C515.267 94.1758 514.927 94.8086 514.576 95.4414C514.248 96.0742 513.966 96.7305 513.732 97.4102C513.451 97.5977 513.357 97.7969 513.451 98.0078C513.545 98.2188 513.662 98.4297 513.802 98.6406C513.966 98.8281 514.048 99.0156 514.048 99.2031C514.072 99.3906 513.861 99.5664 513.416 99.7305C513.275 100.059 513.31 100.352 513.521 100.609C513.732 100.844 513.908 101.09 514.048 101.348C514.236 101.371 514.412 101.371 514.576 101.348C514.763 101.324 514.916 101.219 515.033 101.031C515.314 101.219 515.56 101.254 515.771 101.137C516.005 101.02 516.24 100.879 516.474 100.715C516.732 100.527 517.002 100.375 517.283 100.258C517.588 100.141 517.927 100.176 518.302 100.363C518.466 100.199 518.595 100 518.689 99.7656C518.806 99.5312 518.923 99.3086 519.041 99.0977C519.158 98.8867 519.298 98.7109 519.463 98.5703C519.65 98.4297 519.908 98.3828 520.236 98.4297C520.564 97.8438 520.998 97.3633 521.537 96.9883C522.076 96.5898 522.615 96.2148 523.154 95.8633C523.716 95.5117 524.209 95.1367 524.63 94.7383C525.076 94.3398 525.357 93.8242 525.474 93.1914C525.92 92.4883 526.365 91.7031 526.81 90.8359C527.279 89.9453 527.818 89.207 528.427 88.6211C528.498 88.4336 528.615 88.293 528.779 88.1992C528.943 88.082 529.119 88.0117 529.306 87.9883C529.494 87.9414 529.681 87.9531 529.869 88.0234C530.056 88.0703 530.22 88.1641 530.361 88.3047C530.408 88.7266 530.349 89.1133 530.185 89.4648C530.045 89.8164 529.88 90.168 529.693 90.5195C529.529 90.8477 529.4 91.1992 529.306 91.5742C529.213 91.9492 529.248 92.3828 529.412 92.875C529.084 93.0625 528.755 93.2266 528.427 93.3672C528.123 93.5078 527.83 93.6602 527.548 93.8242C527.291 93.9883 527.056 94.1992 526.845 94.457C526.658 94.7148 526.529 95.0547 526.459 95.4766C527.091 95.7109 527.466 96.0039 527.584 96.3555C527.701 96.707 527.759 97.0938 527.759 97.5156C527.759 97.9141 527.783 98.3359 527.83 98.7812C527.9 99.2031 528.205 99.625 528.744 100.047C528.838 100.117 528.896 100.176 528.92 100.223C528.966 100.246 529.048 100.281 529.166 100.328C529.4 100.398 529.611 100.398 529.798 100.328C529.986 100.234 530.162 100.152 530.326 100.082C530.513 100.012 530.701 99.9883 530.888 100.012C531.099 100.012 531.334 100.152 531.591 100.434C531.943 99.9883 532.271 99.9883 532.576 100.434C532.857 99.918 533.115 99.625 533.349 99.5547C533.584 99.4844 533.806 99.4609 534.017 99.4844C534.252 99.5078 534.486 99.4844 534.72 99.4141C534.955 99.3438 535.213 99.0508 535.494 98.5352L535.81 98.8516C535.951 98.4766 536.115 98.3008 536.302 98.3242C536.513 98.3242 536.713 98.3594 536.9 98.4297C537.088 98.4766 537.252 98.4766 537.392 98.4297C537.533 98.3594 537.603 98.0781 537.603 97.5859C537.814 97.5859 537.99 97.5391 538.13 97.4453C538.295 97.3516 538.447 97.2461 538.588 97.1289C538.752 97.0117 538.927 96.918 539.115 96.8477C539.302 96.7539 539.525 96.707 539.783 96.707L538.869 98.9219L535.81 101.242Z" fill="black"/>
</g>
<defs>
<filter id="filter0_d" x="0" y="0" width="653" height="200" filterUnits="userSpaceOnUse" color-interpolation-filters="sRGB">
<feFlood flood-opacity="0" result="BackgroundImageFix"/>
<feColorMatrix in="SourceAlpha" type="matrix" values="0 0 0 0 0 0 0 0 0 0 0 0 0 0 0 0 0 0 127 0"/>
<feOffset dy="4"/>
<feGaussianBlur stdDeviation="2"/>
<feColorMatrix type="matrix" values="0 0 0 0 0 0 0 0 0 0 0 0 0 0 0 0 0 0 0.25 0"/>
<feBlend mode="normal" in2="BackgroundImageFix" result="effect1_dropShadow"/>
<feBlend mode="normal" in="SourceGraphic" in2="effect1_dropShadow" result="shape"/>
</filter>
</defs>
</svg>
